<svg xmlns="http://www.w3.org/2000/svg" viewBox="2541.874 3509.638 542.307 458.062">
  <defs>
    <style>
      .cls-1 {
        fill: #cccccf;
      }

      .cls-2, .cls-9 {
        fill: #d70778;
      }

      .cls-3 {
        fill: #a10c5d;
      }

      .cls-4 {
        fill: #ededee;
      }

      .cls-5 {
        fill: #dddcdf;
      }

      .cls-10, .cls-12, .cls-6, .cls-8 {
        fill: none;
      }

      .cls-6, .cls-9 {
        stroke: #a10c5d;
      }

      .cls-7 {
        fill: #1d1f16;
      }

      .cls-8 {
        stroke: #1d1f16;
        stroke-width: 6px;
      }

      .cls-10 {
        stroke: #ededee;
      }

      .cls-11 {
        stroke: none;
      }
    </style>
  </defs>
  <g id="Group_332" data-name="Group 332" transform="translate(2382.174 3183.738)">
    <g id="_005-coffee-cup-1" data-name="005-coffee-cup-1" transform="translate(465.104 629.264)">
      <g id="Group_323" data-name="Group 323" transform="translate(41.07 0)">
        <path id="Path_1001" data-name="Path 1001" class="cls-1" d="M382.926,241.491H369.779V231.4h13.147a4.307,4.307,0,0,0,4.142-3.067l8.823-28.911a4.331,4.331,0,0,0-4.142-5.6H375.321V183.739h16.428a14.42,14.42,0,0,1,13.792,18.63l-8.823,28.911A14.342,14.342,0,0,1,382.926,241.491Z" transform="translate(-305.692 -128.223)"/>
        <path id="Path_1002" data-name="Path 1002" class="cls-2" d="M167.762,32.5H157.673A14.5,14.5,0,0,1,159.9,24.57a4.6,4.6,0,0,0,.885-2.9,4.611,4.611,0,0,0-.885-2.906,14.493,14.493,0,0,1-2.223-7.927A14.5,14.5,0,0,1,159.9,2.906,4.61,4.61,0,0,0,160.781,0H170.87a14.5,14.5,0,0,1-2.223,7.927,4.61,4.61,0,0,0-.885,2.905,4.611,4.611,0,0,0,.885,2.906,14.492,14.492,0,0,1,2.223,7.927,14.5,14.5,0,0,1-2.223,7.927A4.607,4.607,0,0,0,167.762,32.5Z" transform="translate(-157.673 0)"/>
      </g>
      <path id="Path_1003" data-name="Path 1003" class="cls-3" d="M270.64,32.5H260.551a14.487,14.487,0,0,1,2.224-7.927,4.607,4.607,0,0,0,.885-2.9,4.61,4.61,0,0,0-.885-2.905,14.491,14.491,0,0,1-2.224-7.927,14.49,14.49,0,0,1,2.224-7.927A4.61,4.61,0,0,0,263.659,0h10.089a14.493,14.493,0,0,1-2.224,7.927,4.609,4.609,0,0,0-.885,2.905,4.61,4.61,0,0,0,.885,2.905,14.491,14.491,0,0,1,2.224,7.927,14.491,14.491,0,0,1-2.224,7.927A4.608,4.608,0,0,0,270.64,32.5Z" transform="translate(-188.397 -0.001)"/>
      <path id="Path_1004" data-name="Path 1004" class="cls-4" d="M151.672,240.31H70.535L59.214,141.684h103.78Z" transform="translate(-47.893 -98.875)"/>
      <g id="Group_324" data-name="Group 324" transform="translate(0 42.809)">
        <path id="Path_1005" data-name="Path 1005" class="cls-5" d="M271.648,240.31H231.135V141.684h51.834Z" transform="translate(-167.869 -141.684)"/>
        <path id="Path_1006" data-name="Path 1006" class="cls-2" d="M130.947,472.229H38.965a17.22,17.22,0,0,1-17.22-17.22H148.167A17.22,17.22,0,0,1,130.947,472.229Z" transform="translate(-21.745 -360.34)"/>
      </g>
      <path id="Path_1007" data-name="Path 1007" class="cls-3" d="M130.946,472.229H85.01v-17.22h63.156A17.22,17.22,0,0,1,130.946,472.229Z" transform="translate(-21.744 -317.53)"/>
      <ellipse id="Ellipse_154" data-name="Ellipse 154" class="cls-2" cx="24.658" cy="18.742" rx="24.658" ry="18.742" transform="translate(32.521 92.193) rotate(-45)"/>
      <path id="Path_1008" data-name="Path 1008" class="cls-3" d="M206.657,237.756c-5.756,5.716-8.14,3.386-13.926,9.172-5.812,5.812-3.434,8.19-9.246,14-5.787,5.787-8.17,3.457-13.927,9.174a14.376,14.376,0,0,0,1.115,1.262c7.32,7.319,21.059,5.447,30.688-4.183C210.462,258.081,212.628,245.31,206.657,237.756Z" transform="translate(-124.896 -165.919)"/>
    </g>
    <g id="_005-coffee-cup-1-2" data-name="005-coffee-cup-1" transform="translate(264.528 629.264)">
      <g id="Group_325" data-name="Group 325" transform="translate(0 0)">
        <path id="Path_1009" data-name="Path 1009" class="cls-4" d="M393.036,241.491h13.147V231.4H393.036a4.308,4.308,0,0,1-4.143-3.067l-8.824-28.911a4.331,4.331,0,0,1,4.143-5.6h16.429V183.739H384.212a14.42,14.42,0,0,0-13.793,18.63l8.824,28.911A14.343,14.343,0,0,0,393.036,241.491Z" transform="translate(-369.779 -128.223)"/>
        <path id="Path_1010" data-name="Path 1010" class="cls-2" d="M167.762,32.5H157.673A14.5,14.5,0,0,1,159.9,24.57a4.6,4.6,0,0,0,.885-2.9,4.611,4.611,0,0,0-.885-2.906,14.493,14.493,0,0,1-2.223-7.927A14.5,14.5,0,0,1,159.9,2.906,4.61,4.61,0,0,0,160.781,0H170.87a14.5,14.5,0,0,1-2.223,7.927,4.61,4.61,0,0,0-.885,2.905,4.611,4.611,0,0,0,.885,2.906,14.492,14.492,0,0,1,2.223,7.927,14.5,14.5,0,0,1-2.223,7.927A4.607,4.607,0,0,0,167.762,32.5Z" transform="translate(-100.858 0)"/>
      </g>
      <path id="Path_1011" data-name="Path 1011" class="cls-3" d="M270.64,32.5H260.551a14.487,14.487,0,0,1,2.224-7.927,4.607,4.607,0,0,0,.885-2.9,4.61,4.61,0,0,0-.885-2.905,14.491,14.491,0,0,1-2.224-7.927,14.49,14.49,0,0,1,2.224-7.927A4.61,4.61,0,0,0,263.659,0h10.089a14.493,14.493,0,0,1-2.224,7.927,4.609,4.609,0,0,0-.885,2.905,4.61,4.61,0,0,0,.885,2.905,14.491,14.491,0,0,1,2.224,7.927,14.491,14.491,0,0,1-2.224,7.927A4.608,4.608,0,0,0,270.64,32.5Z" transform="translate(-172.652 -0.001)"/>
      <path id="Path_1012" data-name="Path 1012" class="cls-4" d="M151.672,240.31H70.535L59.214,141.684h103.78Z" transform="translate(-32.148 -98.875)"/>
      <g id="Group_326" data-name="Group 326" transform="translate(15.745 42.809)">
        <path id="Path_1013" data-name="Path 1013" class="cls-5" d="M271.648,240.31H231.135V141.684h51.834Z" transform="translate(-167.869 -141.684)"/>
        <path id="Path_1014" data-name="Path 1014" class="cls-2" d="M130.947,472.229H38.965a17.22,17.22,0,0,1-17.22-17.22H148.167A17.22,17.22,0,0,1,130.947,472.229Z" transform="translate(-21.745 -360.34)"/>
      </g>
      <path id="Path_1015" data-name="Path 1015" class="cls-3" d="M130.946,472.229H85.01v-17.22h63.156A17.22,17.22,0,0,1,130.946,472.229Z" transform="translate(-5.999 -317.53)"/>
      <line id="Line_12" data-name="Line 12" class="cls-6" y2="46.537" transform="translate(65.398 43.114)"/>
      <path id="Path_1016" data-name="Path 1016" class="cls-2" d="M-985.6,1016.194V995.572l11.363-5.472,10,5.472v20.623H-985.6Z" transform="translate(1040.228 -912.211)"/>
    </g>
    <g id="Group_327" data-name="Group 327" transform="translate(312.888 404.782) rotate(-25)">
      <g id="_007-waffle" data-name="007-waffle" transform="translate(0 0)">
        <path id="Path_1017" data-name="Path 1017" class="cls-7" d="M82.853,0a82.853,82.853,0,1,0,82.853,82.853A82.947,82.947,0,0,0,82.853,0Zm0,159.816a76.963,76.963,0,1,1,76.963-76.963A77.051,77.051,0,0,1,82.853,159.816Z" transform="translate(10.471 10.472)"/>
        <path id="Path_1018" data-name="Path 1018" class="cls-7" d="M159.316,27.334A93.325,93.325,0,1,0,27.334,159.316,93.325,93.325,0,0,0,159.316,27.334ZM93.325,181.708c-48.212,0-87.435-40.171-87.435-88.383A87.534,87.534,0,0,1,93.325,5.889c48.212,0,88.811,40.082,88.811,88.294S141.537,181.708,93.325,181.708Z"/>
        <path id="Path_1019" data-name="Path 1019" class="cls-7" d="M148.464,64.142a2.945,2.945,0,0,0-5-1.673l-1.325,1.325L130.425,52.078l-8.519-8.656-1.142-.7,11.274-11.453a4.174,4.174,0,0,0-.35-4.464c-2.22-2.5-6.738-9.114-11.44-9.76-.09,0-1.322-.548-3.479.685L106.535,27.766,85.4,7.048l1.321-1.321a2.945,2.945,0,0,0-1.673-5,75.483,75.483,0,0,0-20.9,0,2.945,2.945,0,0,0-1.673,5L63.8,7.048,42.6,28.305,31.681,17.849a3.863,3.863,0,0,0-4.028-.646c-2.928,1.579-9.207,7.868-11.048,10.58a4.475,4.475,0,0,0-1.066,2.368,2.945,2.945,0,0,0,.853,2.313L27.486,43.422l2.079-2.144-10.8,10.8L7.051,63.793,5.726,62.468a2.945,2.945,0,0,0-5,1.673,75.367,75.367,0,0,0,0,20.9,2.945,2.945,0,0,0,5,1.673l1.325-1.325L18.766,97.108l8.882,9.156-.162.549L16.621,117.681c-.959,2.578-.137,2.715.35,4.463,1.84,2.222,5.614,7.7,12.049,10.439,1.367.177,2.836.233,3.756-.687l9.692-9.771L63.8,142.138l-1.325,1.325a2.945,2.945,0,0,0,1.673,5,75.148,75.148,0,0,0,20.9,0,2.945,2.945,0,0,0,1.673-5L85.4,142.138l11.715-11.715,8.395-8.456,1.538-1.668,10.869,10.869c.016.015.033.029.4.292.735.69,2.485.408,4.065-.642,4.42-2.63,9-8.528,10.581-11.459a2.945,2.945,0,0,0-.509-3.48L122.495,105.4l19.647-20.007,1.325,1.325a2.945,2.945,0,0,0,5-1.673,75.432,75.432,0,0,0,0-20.9Zm-5.271,14.336a2.946,2.946,0,0,0-3.135.668l-23.811,24.171a2.946,2.946,0,0,0,0,4.165l.592.592,9.31,9.036s.93.849-2.107,4.31-4.465,3.084-4.465,3.084l-10.452-10.453a2.946,2.946,0,0,0-4.165,0l-5.7,5.832c-.552.552-3.08,3.143-4.23,4.292l-15.88,15.88a2.945,2.945,0,0,0-.669,3.134,68.959,68.959,0,0,1-7.769,0,2.946,2.946,0,0,0-.668-3.136L44.55,115.879a2.946,2.946,0,0,0-4.164,0L30.312,126.01a20.575,20.575,0,0,1-4.244-2.738,20.033,20.033,0,0,1-3.149-3.7L33.734,108.9a2.945,2.945,0,0,0,0-4.165l-2.085-3.071-6.635-6.635L9.135,79.146A2.945,2.945,0,0,0,6,78.478q-.109-1.942-.109-3.885T6,70.709a2.945,2.945,0,0,0,3.135-.668l15.88-15.88,6.635-6.635,2.085-2.02a2.944,2.944,0,0,0,0-4.164L22.918,30.582A12.832,12.832,0,0,1,26.341,26.2c2.791-2.589,3.605-2.362,3.605-2.362L40.523,34.553a2.946,2.946,0,0,0,4.164,0L70.043,9.131A2.945,2.945,0,0,0,70.711,6a68.947,68.947,0,0,1,7.768,0,2.946,2.946,0,0,0,.669,3.134l25.3,24.882a2.945,2.945,0,0,0,4.164,0l10.739-10.545a15.512,15.512,0,0,1,3.782,2.459,15.238,15.238,0,0,1,2.7,3.58L114.517,40.638a2.945,2.945,0,0,0,0,4.165l3.026,2.723,6.635,6.635,15.88,15.88a2.947,2.947,0,0,0,3.135.668q.109,1.942.109,3.884T143.194,78.478Z" transform="translate(18.729 18.732)"/>
      </g>
      <g id="Rectangle_156" data-name="Rectangle 156" class="cls-8" transform="translate(32.534 92.958) rotate(-45)">
        <rect class="cls-11" width="38.824" height="38.824" rx="1"/>
        <rect class="cls-12" x="3" y="3" width="32.824" height="32.824" rx="2"/>
      </g>
      <g id="Rectangle_157" data-name="Rectangle 157" class="cls-8" transform="translate(65.393 125.817) rotate(-45)">
        <rect class="cls-11" width="38.824" height="38.824" rx="1"/>
        <rect class="cls-12" x="3" y="3" width="32.824" height="32.824" rx="2"/>
      </g>
      <g id="Rectangle_158" data-name="Rectangle 158" class="cls-8" transform="translate(65.603 59.889) rotate(-45)">
        <rect class="cls-11" width="38.824" height="38.824" rx="1"/>
        <rect class="cls-12" x="3" y="3" width="32.824" height="32.824" rx="2"/>
      </g>
      <g id="Rectangle_159" data-name="Rectangle 159" class="cls-8" transform="translate(99.831 92.748) rotate(-45)">
        <rect class="cls-11" width="38.824" height="38.824" rx="1"/>
        <rect class="cls-12" x="3" y="3" width="32.824" height="32.824" rx="2"/>
      </g>
    </g>
    <g id="Group_330" data-name="Group 330" transform="translate(576.459 338.687)">
      <path id="Path_1020" data-name="Path 1020" class="cls-5" d="M-1240.6,789.345V674.3h41.348l-24.233,112.86Z" transform="translate(1289.067 -588.456)"/>
      <g id="Group_329" data-name="Group 329" transform="translate(0 0)">
        <path id="Path_1021" data-name="Path 1021" class="cls-4" d="M-1257.4,985.051c-1.762-5.075-.885-17.151-.885-17.151l1.433-24.881s-.034-9.516,4.655-15.061,8.857-6.846,14.1-7.119c6.243-.325,15.334,0,15.334,0a4.045,4.045,0,0,1,4.244,4.244,4.714,4.714,0,0,1-4.244,4.792h-13.827a13.573,13.573,0,0,0-7.669,3.833c-1.765,1.761-3.1,5.286-3.421,9.721-.821,11.227-4.519,44.633-4.519,44.633S-1255.642,990.126-1257.4,985.051Z" transform="translate(1344.069 -905.505)"/>
        <path id="milkshake-with-straw" class="cls-9" d="M191.373,66.676c-2.389-5.76-10.405-8.215-10.379-8.389A16.079,16.079,0,0,0,172.851,36.1a14.68,14.68,0,0,0,1.547-6.571V27.784A27.815,27.815,0,0,0,146.615,0H141.2a4.719,4.719,0,0,0,0,9.437h2.754a3.987,3.987,0,0,1,0,7.974H132.677a13.416,13.416,0,0,0-12.27,18.86,16.074,16.074,0,0,0-7.75,22.015,16.082,16.082,0,0,0-9.242,23.649c-.079.088,3.422,5.647,3.422,5.647,20.8-.089,85.835,0,85.835,0s.792-5.317.813-5.647C193.621,81.8,193.763,72.436,191.373,66.676Z" transform="translate(-101.148 0)"/>
        <g id="Group_328" data-name="Group 328" transform="translate(7.482 93.307)">
          <path id="Path_1022" data-name="Path 1022" class="cls-10" d="M169.872,71.734H86.964l23.3,101.488s.545,6.009,6.625,7.01a88.8,88.8,0,0,0,12.523,1s7.895.182,11.978-1,5.082-7.01,5.082-7.01Z" transform="translate(-86.964 -71.734)"/>
        </g>
        <path id="Path_1023" data-name="Path 1023" class="cls-4" d="M21.12,16.8H19.695a6.257,6.257,0,0,1,6.46,6.179L40.407,35.806a6.414,6.414,0,0,1-6.414,6.414H6.914A6.414,6.414,0,0,1,.5,35.806L14.752,22.979A6.178,6.178,0,0,1,21.12,16.8Z" transform="translate(29.275 187.429)"/>
      </g>
      <path id="Path_1024" data-name="Path 1024" class="cls-4" d="M-1243.371,783.089l14.512,2.328V672.6H-1268.7l20.127,98.851Z" transform="translate(1278.695 -580.96)"/>
      <ellipse id="Ellipse_155" data-name="Ellipse 155" class="cls-3" cx="21.221" cy="21.221" rx="21.221" ry="21.221" transform="translate(28.752 105.97)"/>
    </g>
    <g id="Group_331" data-name="Group 331" transform="translate(160.2 338.687)">
      <g id="_008-ice-cream-1" data-name="008-ice-cream-1" transform="translate(0 0)">
        <path id="Path_1025" data-name="Path 1025" class="cls-5" d="M-1370.561,807.759l20.272-108.508a39.142,39.142,0,0,0,23.54,3.915c.141.278-36.766,99.577-36.766,99.577s-2.368,3.622-3.9,4.318A8.575,8.575,0,0,1-1370.561,807.759Z" transform="translate(1445.524 -588.061)"/>
        <path id="Path_1026" data-name="Path 1026" class="cls-9" d="M95.738,126.894a14.627,14.627,0,0,0,14.61-14.61V104.5a5.24,5.24,0,0,1,5.977-5.188,38.319,38.319,0,0,0,5.377.379,35.376,35.376,0,0,0,18.654-5.1,5.241,5.241,0,0,1,5.728.094A29.183,29.183,0,0,0,162.5,99.692,29.449,29.449,0,0,0,168.456,41.4a5.241,5.241,0,0,1-4.131-4.4,43.051,43.051,0,0,0-85.249,0,5.241,5.241,0,0,1-4.131,4.4,29.452,29.452,0,0,0-.4,57.6,5.239,5.239,0,0,1,4.11,5.116v8.164a14.627,14.627,0,0,0,14.61,14.61Z" transform="translate(-51.454 0)"/>
        <path id="Path_1027" data-name="Path 1027" class="cls-10" d="M180.212,150.691c-6.876,0-17.912-2.266-23.827-5.582-6.591,3.441-11.328,5.582-19.33,5.433v1.639c-.54,8.336-1.939,10.844-5.186,14.615s-7.072,8.015-18.859,9.429c-5.186,0-8.492.481-12.812-1.279l32.2,75.674a7.485,7.485,0,0,0,14.037,0l37.1-100.078C182.437,150.632,181.331,150.691,180.212,150.691Z" transform="translate(-64.45 -35.804)"/>
      </g>
      <path id="Path_1028" data-name="Path 1028" class="cls-4" d="M204.41,472.344l24.374-104.806L218.222,365.1l-17.061,6.5-4.062,13-13,11.375H164.6l32.5,73.121Z" transform="translate(-128.852 -254.394)"/>
    </g>
  </g>
</svg>
