<?xml version="1.0" encoding="utf-8"?>
<!-- Generator: Adobe Illustrator 21.0.2, SVG Export Plug-In . SVG Version: 6.00 Build 0)  -->
<svg version="1.1" id="Layer_1" xmlns="http://www.w3.org/2000/svg" xmlns:xlink="http://www.w3.org/1999/xlink" x="0px" y="0px"
	 viewBox="0 0 500 500" style="enable-background:new 0 0 500 500;" xml:space="preserve">
<style type="text/css">
	.st0{clip-path:url(#SVGID_2_);fill:#12100B;}
	.st1{clip-path:url(#SVGID_2_);fill:#E2007F;}
	.st2{clip-path:url(#SVGID_2_);fill:#FFFFFF;}
	.st3{fill:#FFFFFF;}
	.st4{fill:#FAFBF9;}
	.st5{fill:#12100B;}
	.st6{fill:#E2007E;}
</style>
<g>
	<g>
		<defs>
			<rect id="SVGID_1_" x="0.2" width="500" height="500"/>
		</defs>
		<clipPath id="SVGID_2_">
			<use xlink:href="#SVGID_1_"  style="overflow:visible;"/>
		</clipPath>
		<path class="st0" d="M498.6,250.2c0,137.1-111.2,248.3-248.3,248.3C113.1,498.5,1.9,387.3,1.9,250.2C1.9,113,113.1,1.9,250.3,1.9
			C387.4,1.9,498.6,113,498.6,250.2"/>
		<path class="st1" d="M250.3,500.1c-66.8,0-129.5-26-176.7-73.2c-47.2-47.2-73.2-110-73.2-176.7c0-66.8,26-129.5,73.2-176.7
			c47.2-47.2,110-73.2,176.7-73.2c66.8,0,129.5,26,176.7,73.2c47.2,47.2,73.2,110,73.2,176.7c0,66.8-26,129.5-73.2,176.7
			C379.8,474.1,317,500.1,250.3,500.1 M250.3,3.5C114.2,3.5,3.6,114.2,3.6,250.2s110.7,246.7,246.7,246.7s246.7-110.7,246.7-246.7
			S386.3,3.5,250.3,3.5"/>
		<path class="st2" d="M250.3,480.2C123.4,480.2,20.2,377,20.2,250.2c0-126.9,103.2-230.1,230.1-230.1s230.1,103.2,230.1,230.1
			C480.3,377,377.1,480.2,250.3,480.2 M250.3,23.4c-125.1,0-226.8,101.7-226.8,226.8S125.2,477,250.3,477
			c125.1,0,226.8-101.7,226.8-226.8S375.3,23.4,250.3,23.4"/>
		<path class="st2" d="M250.3,426.7c-97.3,0-176.5-79.2-176.5-176.5S152.9,73.7,250.3,73.7s176.5,79.2,176.5,176.5
			S347.6,426.7,250.3,426.7 M250.3,77C154.7,77,77,154.7,77,250.2s77.7,173.2,173.2,173.2s173.2-77.7,173.2-173.2S345.8,77,250.3,77
			"/>
	</g>
	<g>
		<path class="st3" d="M108.8,98c-1-0.6-1.6-0.8-2.1-0.6c-0.3,0.1-0.5,0.3-0.7,0.4c-0.2,0.2-0.4,0.2-0.5,0c-0.1-0.1,0-0.3,0.3-0.5
			c1.2-1,2.5-2.1,2.8-2.3c0.5-0.4,1.8-1.6,2.8-2.5c0.3-0.2,0.5-0.3,0.6-0.1c0.1,0.1,0,0.3-0.1,0.4c-0.2,0.2-0.3,0.2-0.4,0.5
			c-0.2,0.2-0.2,0.5,0,0.7c0.2,0.3,0.9,0.7,1.9,1.3c0.8,0.5,6,3.7,8,4.9l-4-11.5c-0.2-0.7-0.2-1,0-1.1c0.2-0.2,0.7,0,1.4,0.3l11,5.2
			c-0.8-2.1-2.6-6.2-3.6-8.5c-0.4-1-0.8-1.7-1-1.9c-0.3-0.4-0.6-0.4-1.7,0.3c-0.2,0.1-0.4,0.2-0.5,0.1c-0.1-0.1-0.1-0.2,0.2-0.6
			c1.2-1,2.2-1.8,2.4-2c0.1-0.1,1.5-1.3,2.1-1.9c0.2-0.2,0.4-0.3,0.5-0.2c0.1,0.1,0.1,0.3-0.1,0.5c-0.2,0.2-0.3,0.3-0.5,0.6
			c-0.5,0.6-0.3,1.4,0.4,3.2c1.1,3,3.7,9.7,5.3,14.5c0.3,0.8,0.5,1.5,0.2,1.8c-0.2,0.2-0.6,0.1-1.5-0.4l-10.8-5
			c0.9,2.6,2.6,8.1,3.4,11c0.3,0.9,0.4,1.5,0.1,1.8c-0.2,0.2-0.6,0-1.7-0.6L108.8,98z"/>
	</g>
	<g>
		<path class="st3" d="M139.6,88.3c-0.1,0.1-0.1,0.1-0.1,0.3l0.5,2.1c0.2,0.7,0.4,1.3,0.6,1.6c0.3,0.4,0.6,0.5,1,0.2
			c0.3-0.1,0.6-0.3,0.8-0.4c0.3-0.2,0.4-0.1,0.5,0c0.1,0.2,0,0.3-0.3,0.5c-0.9,0.6-1.7,1-2.8,1.8c-0.2,0.2-1.6,1.1-2.6,1.8
			c-0.3,0.2-0.5,0.2-0.6,0.1c-0.1-0.2,0-0.3,0.3-0.5c0.2-0.2,0.4-0.3,0.6-0.5c0.6-0.6,0.6-1.6,0.4-2.9L135,76
			c-0.2-1.2-0.2-1.6,0-1.8c0.2-0.1,0.6,0,1.4,0.5c1.3,0.8,10.2,6.4,13.7,8.6c1.8,1.1,2.6,1.3,3.4,1c0.3-0.1,0.5-0.3,0.7-0.4
			c0.3-0.2,0.5-0.2,0.5-0.1c0.1,0.1,0,0.3-0.4,0.6c-2,1.4-4.4,2.9-5.8,3.8c-0.3,0.2-0.5,0.2-0.6,0.1c-0.1-0.1,0-0.3,0.1-0.4
			c0.2-0.2,0.2-0.4,0-0.5l-3.6-2.4c-0.1-0.1-0.2-0.1-0.3,0L139.6,88.3z M142.6,83.8c0.1-0.1,0.1-0.1,0-0.2l-4.8-3.2
			c-0.2-0.1-0.2,0-0.1,0.1l1.2,5.6c0,0.1,0.1,0.1,0.2,0L142.6,83.8z"/>
	</g>
	<g>
		<path class="st3" d="M151,73.2c-2-3.6-2.1-3.8-2.6-4.5c-0.5-0.8-0.9-1-1.5-0.8c-0.2,0.1-0.5,0.2-0.8,0.3c-0.2,0.1-0.5,0.2-0.6,0
			c-0.1-0.2,0-0.3,0.4-0.5c1.3-0.7,2.4-1.3,3.4-1.8c0.5-0.3,6.1-3.4,6.5-3.6c0.4-0.2,0.8-0.5,1.1-0.7c0.1-0.1,0.3-0.2,0.4-0.3
			c0.1,0,0.2,0,0.2,0.1c0.1,0.2,0.2,0.7,0.5,1.2c0.2,0.5,0.6,1.3,1,2.2c0.1,0.3,0.1,0.4,0,0.5c-0.2,0.1-0.3,0-0.4-0.2
			c-0.2-0.3-0.2-0.4-0.5-0.6c-0.4-0.4-0.9-0.6-1.9-0.1c-0.9,0.4-2.9,1.4-3.6,1.8c-0.1,0.1-0.1,0.2,0,0.3l2.7,5
			c0.1,0.2,0.2,0.2,0.3,0.2c0.6-0.3,2.2-1.2,3-1.7c1.2-0.7,1.5-0.9,1.5-1.5c0-0.3,0-0.4,0.2-0.5c0.1-0.1,0.2,0.1,0.3,0.2
			c0.1,0.2,0.4,1.1,0.8,1.9c0.2,0.5,0.8,1.6,1,1.9c0.1,0.2,0.2,0.5,0,0.5c-0.1,0.1-0.3,0-0.4-0.2c-0.1-0.1-0.2-0.3-0.3-0.4
			c-0.4-0.5-0.9-0.8-2-0.3c-0.7,0.3-2.6,1.3-3.2,1.7c-0.1,0.1-0.1,0.2,0,0.4l0.8,1.5c1.2,2.1,1.9,3.5,2.5,4.4c0.4,0.6,0.8,1,1.7,0.7
			c0.3-0.1,0.6-0.2,0.8-0.3c0.3-0.2,0.5-0.2,0.6-0.1c0.1,0.1,0.1,0.3-0.4,0.5c-1.2,0.7-1.4,0.7-3.8,2c-1.6,0.9-2.8,1.6-3.4,1.9
			c-0.3,0.2-0.5,0.2-0.6,0c-0.1-0.1,0-0.2,0.3-0.4c0.2-0.1,0.3-0.2,0.5-0.4c0.5-0.4,0.3-1-0.1-2c-0.6-1.2-1.1-2.2-2.3-4.3L151,73.2z
			"/>
	</g>
	<g>
		<path class="st3" d="M165.8,65.6c-1.7-3.7-1.8-4-2.2-4.7c-0.4-0.8-0.8-1.1-1.5-1c-0.2,0.1-0.6,0.2-0.8,0.3c-0.3,0.1-0.5,0.2-0.6,0
			c-0.1-0.2,0.1-0.3,0.4-0.5c1.3-0.6,2.5-1,3.5-1.5c0.5-0.2,6.3-2.9,6.7-3c0.5-0.2,0.9-0.4,1.1-0.6c0.1-0.1,0.3-0.2,0.4-0.3
			c0.1,0,0.2,0,0.2,0.1c0,0.2,0.2,0.7,0.4,1.2c0.2,0.5,0.5,1.3,0.8,2.3c0.1,0.3,0.1,0.4-0.1,0.5c-0.2,0.1-0.3,0-0.4-0.3
			c-0.1-0.3-0.2-0.4-0.4-0.7c-0.4-0.4-0.9-0.7-1.9-0.3c-0.9,0.3-3,1.2-3.7,1.5c-0.1,0.1-0.2,0.1-0.1,0.3l2.3,5.2
			c0.1,0.2,0.1,0.3,0.3,0.2c0.7-0.3,2.3-1,3.1-1.4c1.2-0.6,1.5-0.8,1.6-1.4c0-0.3,0.1-0.4,0.2-0.4c0.1-0.1,0.2,0.1,0.3,0.2
			c0.1,0.2,0.3,1.1,0.6,1.9c0.2,0.5,0.7,1.7,0.8,1.9c0.1,0.3,0.2,0.5,0,0.5c-0.1,0.1-0.3,0-0.4-0.3c-0.1-0.2-0.2-0.3-0.3-0.5
			c-0.4-0.6-0.9-0.8-2-0.4c-0.7,0.3-2.7,1.1-3.3,1.4c-0.1,0.1-0.1,0.2,0,0.4l0.7,1.6c1,2.2,1.6,3.6,2.2,4.6c0.4,0.6,0.7,1,1.6,0.8
			c0.3-0.1,0.6-0.2,0.8-0.3c0.3-0.2,0.5-0.2,0.6,0c0.1,0.1,0,0.3-0.4,0.5c-1.3,0.6-1.5,0.6-3.9,1.7c-1.6,0.7-2.9,1.4-3.5,1.7
			c-0.3,0.2-0.5,0.1-0.6,0c-0.1-0.1,0-0.2,0.3-0.4c0.2-0.1,0.3-0.2,0.6-0.4c0.6-0.4,0.4-1,0.1-2c-0.5-1.3-0.9-2.3-1.9-4.5
			L165.8,65.6z"/>
	</g>
	<g>
		<path class="st3" d="M186.5,61.8c0.8,2.4,1.4,4.1,1.9,4.5c0.5,0.3,1,0.3,2.9-0.4c1.3-0.5,2.1-0.7,2.6-1.3c0.5-0.5,0.7-1.2,0.5-2.4
			c0-0.3,0-0.5,0.2-0.6c0.2-0.1,0.2,0.1,0.3,0.4c0.2,0.5,0.7,2.9,0.7,3.7c0,0.7-0.2,0.8-1.1,1.1c-3.3,1.1-5.5,1.8-8,2.6
			c-1.1,0.4-2.4,0.9-3.7,1.4c-0.3,0.1-0.5,0.1-0.6-0.1c-0.1-0.1,0.1-0.3,0.4-0.4c0.3-0.1,0.5-0.2,0.8-0.4c0.8-0.4,0.7-0.9,0.1-2.8
			c-0.3-1-0.8-2.4-1.3-3.9l-1.4-4.2c-1.3-3.9-1.5-4.3-1.8-5c-0.3-0.6-0.6-1-1.2-1c-0.2,0-0.6,0.1-1,0.2c-0.3,0.1-0.5,0.1-0.6-0.1
			c-0.1-0.2,0.2-0.3,0.6-0.5c1.3-0.5,2.6-0.8,3.5-1.2c0.2-0.1,3.1-1.2,4-1.5c0.4-0.1,0.6-0.1,0.6,0c0.1,0.2-0.1,0.3-0.5,0.5
			c-0.2,0.1-0.5,0.2-0.8,0.4c-0.6,0.3-0.6,0.9-0.4,1.7c0.2,0.8,0.4,1.3,1.7,5.2L186.5,61.8z"/>
	</g>
	<g>
		<path class="st3" d="M196.9,53.8c-1-4-1.2-4.4-1.4-5.2c-0.2-0.7-0.6-1.1-1.2-1c-0.2,0-0.6,0.1-0.8,0.1c-0.3,0.1-0.5,0-0.5-0.2
			c0-0.1,0.1-0.3,0.5-0.4c1.4-0.4,2.6-0.6,3.6-0.8c0.5-0.1,6.5-1.7,6.8-1.8c0.5-0.1,1.1-0.3,1.3-0.4c0.2-0.1,0.3-0.2,0.4-0.2
			c0.1,0,0.2,0.1,0.2,0.2s0,0.4,0.2,1.1c0.1,0.5,0.2,1.4,0.5,2.7c0,0.2,0,0.4-0.2,0.4c-0.1,0-0.2-0.1-0.3-0.3
			c-0.1-0.3-0.2-0.5-0.3-0.8c-0.3-0.5-0.7-0.8-1.8-0.6c-0.8,0.1-2.9,0.6-3.7,0.8c-0.1,0-0.2,0.1-0.1,0.3l1.4,5.3
			c0,0.2,0.1,0.3,0.3,0.2c0.7-0.1,2.7-0.7,3.5-0.9c1.2-0.4,1.5-0.5,1.6-1c0.1-0.3,0.1-0.4,0.3-0.4c0.1,0,0.2,0.1,0.2,0.3
			c0.1,0.2,0.2,1.2,0.3,2.1c0.1,0.6,0.4,1.8,0.5,2c0.1,0.3,0,0.5-0.1,0.5c-0.2,0-0.3-0.1-0.4-0.3c-0.1-0.2-0.1-0.4-0.2-0.5
			c-0.3-0.7-0.7-1-1.9-0.8c-0.7,0.1-2.7,0.6-3.5,0.8c-0.1,0-0.1,0.2-0.1,0.4l0.4,1.7c0.2,0.8,0.5,2.3,0.8,3.2c0.5,1.7,0.9,2,3.6,1.3
			c0.6-0.2,1.6-0.4,2.2-0.9s0.8-1,0.7-2.2c0-0.3,0-0.5,0.2-0.5c0.2,0,0.3,0.2,0.4,0.5c0.2,1,0.4,2.9,0.4,3.4c0,0.7-0.2,0.7-1.1,1
			c-3.4,0.9-5.2,1.2-7.8,1.8c-1.1,0.3-2.1,0.6-3.5,1c-0.4,0.1-0.6,0.1-0.6-0.1c0-0.1,0.1-0.3,0.4-0.4c0.3-0.1,0.5-0.2,0.7-0.3
			c0.7-0.3,0.5-1.2,0.2-2.8c-0.2-1-0.5-2.4-0.9-3.9L196.9,53.8z"/>
	</g>
	<g>
		<path class="st3" d="M214.2,61.4c-0.4-0.1-0.6-0.4-0.7-0.9c-0.3-2-0.4-3-0.5-3.7c0-0.5,0-0.6,0.2-0.6c0.2,0,0.2,0.2,0.3,0.4
			c0.1,0.2,0.1,0.5,0.3,0.7c0.8,2,2.8,2.8,4.7,2.5c2.3-0.4,2.9-1.7,2.7-2.8c-0.2-1-0.5-1.9-2.9-3l-1.7-0.8c-3.4-1.6-4.5-3.2-4.9-5.4
			c-0.5-2.8,1.5-5.5,5.4-6.2c1.1-0.2,1.8-0.3,2.9-0.2c0.4,0,0.8,0,1.3,0.1c0.3,0,0.3,0.1,0.4,0.3c0.1,0.8,0.1,1.3,0.5,3.5
			c0.1,0.4,0,0.6-0.2,0.7c-0.1,0-0.2,0-0.4-0.4c-0.1-0.2-0.2-0.8-0.7-1.4c-0.6-0.7-1.9-1.4-3.7-1.1c-2,0.3-2.6,1.6-2.4,2.7
			c0.1,0.8,0.6,1.8,2.5,2.6l1.4,0.6c3.8,1.7,5.2,3.1,5.6,5.6c0.3,1.7-0.2,3.5-1.9,4.9c-1.3,1.1-2.8,1.6-4.1,1.8
			C216.6,61.8,215.2,61.7,214.2,61.4z"/>
	</g>
	<g>
		<path class="st4" d="M272.2,48.1c0.4-3.7,0.5-4.4,0.5-5.1c0-0.7-0.2-1.1-0.7-1.3c-0.2-0.1-0.4-0.1-0.7-0.2c-0.3,0-0.4-0.1-0.4-0.3
			c0-0.1,0.1-0.2,0.6-0.2c1,0.1,3.3,0.5,3.5,0.5c0.2,0,3,0.3,3.9,0.4c0.4,0,0.5,0.2,0.5,0.3c0,0.2-0.2,0.2-0.5,0.2
			c-0.2,0-0.4,0-0.7,0c-0.6,0-0.9,0.3-1.1,1.2c-0.2,0.8-0.2,1.4-0.7,5.1l-0.5,4.2c-0.2,1.9-0.5,4.1-0.5,5.1c0,0.6,0.1,1.1,0.8,1.3
			c0.3,0.1,0.7,0.2,1,0.2c0.4,0,0.5,0.2,0.5,0.3c0,0.1-0.1,0.2-0.5,0.2c-1.6-0.2-4.2-0.6-4.4-0.6c-0.1,0-2.6-0.2-3.4-0.3
			c-0.4,0-0.6-0.1-0.5-0.3c0-0.2,0.2-0.2,0.5-0.2c0.2,0,0.5,0,0.7,0c0.5,0,0.7-0.5,0.9-1.2c0.2-1,0.5-2.7,0.7-5L272.2,48.1z"/>
	</g>
	<g>
		<path class="st4" d="M282.8,58.4c-1.9-2.4-2.1-5-1.6-7.5c0.3-1.6,1.4-4.4,4.2-5.9c2.4-1.3,4.9-1.5,8.3-0.9c1.3,0.3,2.4,0.6,3.3,1
			c1,0.4,1.6,0.6,2.3,0.8c0.3,0.1,0.2,0.2,0.2,0.4c0,0.2-0.2,0.7-0.4,1.5c-0.2,0.8-0.5,2.2-0.6,2.7c-0.1,0.3-0.2,0.5-0.4,0.5
			c-0.2,0-0.2-0.2-0.2-0.5c0.1-0.5,0.2-1.5-0.4-2.5c-0.6-1-2.2-2-4.4-2.4c-1.4-0.3-2.6-0.2-3.7,0.4c-1.7,1-2.8,3-3.3,5.5
			c-1,4.8,1,8.6,5,9.4c1.9,0.4,3.2,0.5,4.3-0.4c0.4-0.3,0.8-0.8,1.1-1.4c0.2-0.5,0.3-0.6,0.5-0.6c0.2,0,0.1,0.3,0.1,0.5
			c-0.1,0.4-0.8,2.4-1.2,3.5c-0.1,0.3-0.3,0.5-0.7,0.6c-1,0.2-2.6,0-4.2-0.3C287.7,62.1,284.8,61,282.8,58.4z"/>
	</g>
	<g>
		<path class="st4" d="M303.5,54.1c1.1-3.7,1.2-4.2,1.4-5c0.1-0.7,0.1-1.1-0.5-1.4c-0.2-0.1-0.5-0.2-0.7-0.3
			c-0.3-0.1-0.4-0.2-0.3-0.4c0-0.1,0.2-0.2,0.6-0.1c1.3,0.4,2.4,0.8,3.4,1.1c0.5,0.1,6.1,1.8,6.5,1.9c0.5,0.1,1,0.3,1.3,0.3
			c0.2,0,0.3,0,0.4,0c0.1,0,0.1,0.1,0.1,0.2c0,0.1-0.1,0.3-0.4,1c-0.2,0.4-0.5,1.2-0.9,2.4c-0.1,0.2-0.2,0.3-0.3,0.3
			c-0.1,0-0.2-0.2-0.1-0.4c0.1-0.3,0.1-0.5,0.1-0.8c0-0.6-0.2-1-1.2-1.4c-0.7-0.3-2.7-0.9-3.4-1.1c-0.1,0-0.2,0-0.3,0.2l-1.5,5.1
			c0,0.2-0.1,0.3,0.1,0.3c0.6,0.2,2.5,0.7,3.3,1c1.1,0.3,1.5,0.3,1.8,0c0.2-0.2,0.3-0.2,0.4-0.2c0.1,0,0.1,0.2,0.1,0.3
			c-0.1,0.2-0.4,1-0.8,1.9c-0.2,0.5-0.5,1.6-0.6,1.9c-0.1,0.3-0.2,0.4-0.3,0.4c-0.2,0-0.2-0.2-0.1-0.4c0-0.2,0.1-0.4,0.1-0.5
			c0.1-0.7-0.1-1.2-1.2-1.6c-0.6-0.2-2.5-0.8-3.2-1.1c-0.1,0-0.2,0.1-0.2,0.3l-0.5,1.6c-0.2,0.8-0.7,2.1-0.9,3
			c-0.5,1.6-0.2,2.1,2.3,2.8c0.6,0.2,1.5,0.4,2.2,0.4c0.7-0.1,1.1-0.5,1.7-1.5c0.1-0.3,0.3-0.4,0.4-0.3c0.2,0.1,0.1,0.3,0.1,0.6
			c-0.3,0.9-1,2.6-1.3,3c-0.3,0.5-0.5,0.5-1.4,0.3c-3.2-0.9-4.9-1.6-7.3-2.3c-1.1-0.3-2.1-0.5-3.3-0.9c-0.4-0.1-0.5-0.2-0.5-0.4
			c0-0.1,0.2-0.2,0.5-0.1c0.3,0.1,0.5,0.1,0.7,0.1c0.7,0.1,1-0.7,1.5-2.2c0.3-0.9,0.7-2.3,1.2-3.7L303.5,54.1z"/>
	</g>
	<g>
		<path class="st4" d="M323.3,70.2c-1.3-2.8-0.9-5.3,0.1-7.7c0.7-1.5,2.4-4,5.4-4.9c2.6-0.8,5.1-0.4,8.3,1c1.2,0.6,2.2,1.1,3,1.6
			c0.9,0.6,1.4,0.9,2,1.3c0.2,0.1,0.2,0.3,0.1,0.4c-0.1,0.2-0.4,0.7-0.8,1.4c-0.4,0.7-0.9,2-1.2,2.5c-0.2,0.3-0.3,0.5-0.5,0.4
			c-0.2-0.1-0.2-0.3-0.1-0.6c0.2-0.5,0.5-1.4,0.1-2.5c-0.4-1.2-1.7-2.4-3.8-3.3c-1.3-0.6-2.5-0.8-3.7-0.4c-1.8,0.6-3.3,2.3-4.4,4.7
			c-2,4.5-0.9,8.6,2.8,10.3c1.8,0.8,3,1.1,4.3,0.6c0.5-0.2,0.9-0.6,1.4-1.1c0.3-0.4,0.5-0.5,0.6-0.5c0.1,0.1,0.1,0.3,0,0.5
			c-0.2,0.4-1.3,2.2-2,3.1c-0.2,0.3-0.4,0.4-0.9,0.4c-1,0-2.6-0.6-4-1.2C327.3,74.9,324.7,73.2,323.3,70.2z"/>
	</g>
	<g>
		<path class="st4" d="M344.3,70.3c1.8-3.2,2-3.7,2.4-4.3c0.4-0.9,0.3-1.3-0.1-1.7c-0.3-0.2-0.6-0.4-0.8-0.6
			c-0.2-0.2-0.3-0.3-0.2-0.4c0.1-0.1,0.3-0.1,0.6,0.1c0.9,0.5,2.9,1.7,3.1,1.9c0.4,0.2,2.4,1.3,3.4,1.9c2,1.1,3.2,2.1,3.8,3.1
			c0.7,1.1,1,2.7,0.1,4.3c-1,1.7-2.8,2.5-5.2,2.6c0.2,2.6,0.5,5.7,0.9,7.8c0.4,1.9,0.7,2.5,1.2,2.9c0.2,0.2,0.3,0.2,0.5,0.4
			c0.2,0.1,0.3,0.3,0.2,0.4c-0.1,0.2-0.3,0.1-0.5,0l-1.9-1.1c-2.1-1.2-2.9-2-3.4-2.9c-0.4-0.8-0.6-2-0.7-3.8c-0.1-2.1,0-3.3-0.1-4
			c0-0.1-0.1-0.2-0.2-0.3l-1.4-0.8c-0.1-0.1-0.2-0.1-0.3,0.1l-0.6,1.1c-0.9,1.6-1.5,2.6-1.9,3.6c-0.3,0.6-0.4,1.1,0.2,1.6
			c0.2,0.3,0.5,0.4,0.9,0.7c0.3,0.2,0.3,0.3,0.2,0.4c-0.1,0.1-0.3,0.1-0.5-0.1c-1.4-0.8-3.6-2.2-3.8-2.2c-0.2-0.1-2.3-1.2-3-1.6
			c-0.3-0.2-0.4-0.3-0.3-0.4c0.1-0.1,0.3-0.1,0.5,0c0.2,0.1,0.5,0.2,0.8,0.3c0.5,0.1,0.9-0.1,1.3-0.8c0.6-0.8,1.4-2.3,2.6-4.3
			L344.3,70.3z M347,73.7c-0.1,0.2-0.1,0.3,0,0.4c0.3,0.4,0.9,0.9,1.4,1.2c0.6,0.3,1,0.5,1.5,0.4c0.6-0.1,1.5-0.8,2.3-2.2
			c1.7-3,0.3-4.8-0.8-5.4c-0.3-0.2-0.7-0.4-0.9-0.4c-0.1,0-0.2,0-0.3,0.2L347,73.7z"/>
	</g>
	<g>
		<path class="st4" d="M361.3,80.4c2.2-3.2,2.5-3.6,2.9-4.3c0.4-0.6,0.4-1.1,0-1.5c-0.1-0.2-0.4-0.4-0.6-0.5
			c-0.2-0.2-0.3-0.3-0.2-0.5c0.1-0.1,0.2-0.1,0.6,0.1c1.1,0.8,2,1.5,2.9,2.1c0.4,0.3,5.2,3.6,5.5,3.9c0.4,0.3,0.9,0.6,1.1,0.7
			c0.2,0.1,0.3,0.1,0.4,0.1c0.1,0.1,0.1,0.2,0,0.3s-0.2,0.3-0.7,0.8c-0.3,0.4-0.9,1-1.6,2c-0.1,0.2-0.3,0.2-0.4,0.1
			c-0.1-0.1-0.1-0.2,0-0.4c0.2-0.2,0.3-0.4,0.4-0.8c0.2-0.5,0.1-1-0.7-1.7c-0.6-0.5-2.3-1.8-2.9-2.2c-0.1-0.1-0.2-0.1-0.3,0.1
			l-3,4.3c-0.1,0.1-0.1,0.2,0,0.3c0.5,0.4,2.1,1.5,2.9,2c1,0.6,1.3,0.8,1.8,0.6c0.2-0.1,0.4-0.1,0.5-0.1c0.1,0.1,0,0.2,0,0.3
			c-0.1,0.2-0.7,0.8-1.3,1.6c-0.3,0.4-1,1.4-1.2,1.6c-0.2,0.3-0.3,0.3-0.4,0.2c-0.1-0.1-0.1-0.3,0-0.5c0.1-0.2,0.2-0.3,0.3-0.5
			c0.3-0.6,0.3-1.2-0.6-1.9c-0.5-0.4-2.1-1.6-2.7-2c-0.1-0.1-0.2,0-0.3,0.2l-1,1.4c-0.5,0.7-1.3,1.8-1.8,2.6
			c-0.9,1.4-0.9,1.9,1.3,3.4c0.5,0.4,1.3,0.9,2,1c0.7,0.2,1.2-0.1,2-0.9c0.2-0.2,0.4-0.3,0.5-0.2c0.2,0.1,0,0.3-0.1,0.6
			c-0.5,0.8-1.8,2.1-2.2,2.4c-0.5,0.4-0.6,0.3-1.4-0.2c-2.7-1.9-4.1-3-6.2-4.5c-0.9-0.6-1.8-1.2-2.9-1.9c-0.4-0.2-0.4-0.4-0.3-0.5
			c0.1-0.1,0.2-0.1,0.5,0.1c0.2,0.1,0.5,0.3,0.6,0.3c0.6,0.3,1.2-0.4,2.1-1.6c0.6-0.8,1.4-1.9,2.3-3.1L361.3,80.4z"/>
	</g>
	<g>
		<path class="st4" d="M372.6,96.5c-0.1-0.1-0.2-0.1-0.3,0l-1.8,1c-0.6,0.3-1.1,0.7-1.3,0.9c-0.3,0.3-0.3,0.6,0.1,1
			c0.2,0.2,0.4,0.5,0.6,0.6c0.3,0.2,0.3,0.4,0.2,0.5c-0.1,0.1-0.3,0.1-0.5-0.1c-0.8-0.7-1.4-1.3-2.4-2.1c-0.2-0.2-1.5-1.1-2.4-1.9
			c-0.3-0.2-0.3-0.4-0.2-0.5c0.1-0.1,0.3-0.1,0.5,0.1c0.2,0.2,0.4,0.3,0.6,0.4c0.7,0.4,1.6,0.2,2.7-0.4l14.3-6.9
			c1-0.5,1.4-0.6,1.6-0.4c0.2,0.2,0.1,0.5-0.1,1.5c-0.4,1.4-3.3,11-4.4,14.9c-0.6,2-0.6,2.7,0,3.4c0.2,0.2,0.4,0.4,0.5,0.6
			c0.2,0.2,0.3,0.4,0.2,0.5c-0.1,0.1-0.3,0.1-0.6-0.2c-1.8-1.5-3.8-3.3-5-4.3c-0.3-0.2-0.4-0.4-0.3-0.5c0.1-0.1,0.3-0.1,0.4,0
			c0.2,0.1,0.4,0.1,0.5-0.1l1.2-3.9c0-0.1,0-0.2-0.1-0.2L372.6,96.5z M377.5,98.2c0.1,0.1,0.2,0,0.2,0l1.7-5.3
			c0.1-0.2,0-0.2-0.1-0.1l-4.9,2.6c-0.1,0-0.1,0.1,0,0.2L377.5,98.2z"/>
	</g>
	<g>
		<path class="st4" d="M396.7,122.6c-1,1.2-1.3,1.8-0.9,2.5c0.2,0.4,0.6,0.9,0.8,1.1c0.2,0.2,0.3,0.4,0.1,0.5
			c-0.1,0.1-0.3,0-0.6-0.3c-1.4-1.5-2.7-2.9-4.5-5c-0.3-0.3-0.3-0.5-0.2-0.6c0.1-0.1,0.2-0.1,0.4,0c0.4,0.2,0.5,0.1,1.2-0.7l5.7-6.5
			l-10.1,2.7c-1.3,0.4-1.5,0.4-1.7,0.2c-0.2-0.2-0.1-0.5,0.2-1.7c0.4-1.5,1.4-4.5,1.9-6.2c0.2-0.8,0.9-2.9,1.2-3.8l-5.4,4.1
			c-0.8,0.6-1.2,1-1.5,1.2c-0.5,0.5-0.6,0.8-0.2,1.4c0.2,0.3,0.3,0.5,0.5,0.7c0.2,0.3,0.2,0.4,0.1,0.5c-0.1,0.1-0.3,0.1-0.5-0.2
			c-0.7-0.8-1.6-1.8-2.1-2.3c-0.5-0.5-1.3-1.3-1.9-2c-0.2-0.2-0.4-0.4-0.2-0.5c0.1-0.1,0.3-0.1,0.5,0.2c0.2,0.1,0.3,0.3,0.5,0.5
			c0.6,0.4,1.1,0.2,2.5-0.7l12.2-8.5c0.6-0.4,0.9-0.4,1-0.3c0.2,0.2,0.1,0.5-0.1,1.4l-3.7,12.9l13-3.1c0.7-0.1,1-0.2,1.2,0
			c0.2,0.2,0,0.5-0.4,1L396.7,122.6z"/>
	</g>
	<g>
		<path class="st4" d="M76.8,370.4c-0.1-0.4,0.1-0.7,0.5-1c1.6-1.1,2.3-1.6,2.9-2c0.4-0.2,0.5-0.2,0.6-0.1c0.1,0.1-0.1,0.3-0.2,0.4
			c-0.2,0.2-0.3,0.3-0.5,0.5c-1.3,1.5-1.2,3.6-0.1,5.1c1.3,1.8,2.7,1.7,3.5,1.1c0.8-0.6,1.4-1.2,1.3-3.7l0-1.8
			c-0.1-3.6,0.8-5.2,2.5-6.5c2.2-1.6,5.4-1.1,7.6,2c0.6,0.8,1,1.4,1.4,2.4c0.2,0.4,0.3,0.7,0.5,1.1c0.1,0.2,0.1,0.3-0.1,0.4
			c-0.6,0.4-1.1,0.7-2.8,1.9c-0.3,0.3-0.5,0.3-0.6,0.1c-0.1-0.1-0.1-0.2,0.2-0.5c0.2-0.2,0.6-0.6,0.9-1.2c0.3-0.8,0.4-2.2-0.7-3.6
			c-1.2-1.6-2.5-1.5-3.4-0.9c-0.7,0.5-1.2,1.3-1.2,3.2l0.1,1.5c0.2,4-0.4,5.8-2.4,7.2c-1.3,1-3.1,1.3-5,0.5
			c-1.5-0.6-2.6-1.8-3.3-2.8C77.5,372.6,77,371.4,76.8,370.4z"/>
	</g>
	<g>
		<path class="st4" d="M102,385.3c0,0.1,0.1,0.1,0.2,0l0.4-0.3c2.8-2.5,3.1-2.7,3.6-3.3c0.5-0.5,0.7-0.9,0.3-1.6
			c-0.1-0.2-0.3-0.4-0.5-0.7c-0.2-0.3-0.2-0.4-0.1-0.5c0.1-0.1,0.3-0.1,0.5,0.2c0.9,1,2.3,2.7,2.4,2.9c0.1,0.2,2,2.2,2.7,3
			c0.2,0.3,0.2,0.4,0.1,0.5c-0.1,0.1-0.3,0.1-0.4-0.1c-0.3-0.3-0.4-0.4-0.6-0.6c-0.5-0.4-0.9-0.3-1.5,0.2c-0.6,0.5-1.1,0.9-3.9,3.3
			l-3.2,2.8c-1.7,1.5-3,2.7-3.7,3.4c-0.5,0.6-0.7,1-0.3,1.6c0.2,0.3,0.5,0.7,0.6,0.9c0.2,0.2,0.2,0.4,0.1,0.5
			c-0.1,0.1-0.3,0-0.5-0.2c-1.1-1.2-2.6-3.1-2.9-3.4c-0.3-0.3-1.5-1.6-2.3-2.5c-0.3-0.3-0.3-0.5-0.1-0.6c0.1-0.1,0.3,0,0.5,0.2
			c0.2,0.2,0.4,0.4,0.6,0.5c0.5,0.4,0.9,0.2,1.5-0.3c0.8-0.6,2-1.6,3.7-3.1l1.5-1.3c0.1-0.1,0.1-0.1,0-0.2l-4.9-5.6
			c0-0.1-0.1-0.1-0.2,0l-1.9,1.6c-1.7,1.5-2.4,2.2-3.1,2.9c-0.5,0.5-0.7,1-0.3,1.6c0.3,0.4,0.4,0.6,0.6,0.8c0.2,0.2,0.2,0.4,0.1,0.5
			c-0.1,0.1-0.3,0.1-0.5-0.2c-0.9-1-2.7-3.2-2.9-3.4c-0.1-0.2-1.9-2-2.4-2.6c-0.2-0.2-0.3-0.4-0.2-0.5c0.1-0.1,0.3-0.1,0.5,0.1
			c0.2,0.2,0.3,0.3,0.6,0.5c0.4,0.4,1,0.1,1.6-0.3c0.8-0.6,2.1-1.7,3.8-3.2l3.1-2.8c2.8-2.5,3.2-2.8,3.7-3.4
			c0.6-0.6,0.8-1.1,0.3-1.8c-0.2-0.2-0.2-0.3-0.4-0.6c-0.3-0.3-0.2-0.5-0.1-0.5c0.1-0.1,0.3,0.1,0.5,0.3c0.9,1,2.1,2.5,2.4,2.9
			c0.6,0.7,2,2.1,2.7,2.9c0.3,0.3,0.3,0.4,0.1,0.5c-0.1,0.1-0.3,0-0.5-0.2c-0.2-0.2-0.4-0.4-0.6-0.6c-0.5-0.4-1-0.1-1.6,0.3
			c-0.6,0.5-1.4,1.1-3.6,3.1l-0.4,0.3c-0.1,0.1-0.1,0.2,0,0.2L102,385.3z"/>
	</g>
	<g>
		<path class="st4" d="M107.2,399c-0.1-0.1-0.2-0.1-0.3,0l-1.9,0.9c-0.6,0.3-1.1,0.7-1.3,0.9c-0.3,0.3-0.3,0.6,0,1
			c0.2,0.2,0.4,0.5,0.6,0.6c0.3,0.2,0.2,0.4,0.2,0.5c-0.1,0.1-0.3,0-0.5-0.2c-0.8-0.7-1.3-1.3-2.3-2.2c-0.2-0.2-1.4-1.2-2.3-2
			c-0.2-0.2-0.3-0.4-0.2-0.5c0.1-0.1,0.3-0.1,0.5,0.1c0.2,0.2,0.4,0.3,0.6,0.5c0.7,0.4,1.6,0.2,2.7-0.3l14.5-6.3
			c1-0.4,1.5-0.5,1.7-0.4c0.2,0.2,0.1,0.6-0.2,1.5c-0.5,1.4-3.7,10.9-5,14.7c-0.7,1.9-0.7,2.7-0.1,3.4c0.1,0.2,0.4,0.4,0.5,0.6
			c0.2,0.2,0.3,0.4,0.2,0.5c-0.1,0.1-0.3,0.1-0.6-0.2c-1.7-1.6-3.7-3.5-4.8-4.5c-0.3-0.3-0.3-0.4-0.2-0.5c0.1-0.1,0.3-0.1,0.4,0
			c0.2,0.1,0.4,0.1,0.5-0.1l1.4-3.9c0-0.1,0-0.2,0-0.2L107.2,399z M112,400.8c0.1,0.1,0.2,0,0.2,0l1.9-5.2c0.1-0.2,0-0.2-0.1-0.1
			l-5,2.4c-0.1,0-0.1,0.1,0,0.2L112,400.8z"/>
	</g>
	<g>
		<path class="st4" d="M125.8,408.8c1.8-0.2,4.6-0.6,7.4-1.2c1.2-0.2,1.9-0.5,2.2-0.8c0.2-0.2,0.2-0.4-0.2-0.8
			c-0.2-0.2-0.3-0.3-0.2-0.4c0.1-0.1,0.2-0.1,0.4,0.1c0.9,0.7,0.9,0.8,2,1.6c1.1,0.8,2.5,1.9,2.8,2.1c0.3,0.2,0.4,0.3,0.3,0.5
			c-0.1,0.1-0.2,0.1-0.5-0.1c-0.3-0.2-0.5-0.3-0.8-0.4c-1.1-0.5-2.1-0.4-3.7-0.2c-1.5,0.2-5.4,0.7-6.3,0.9
			c-0.1,1.7,0.1,7.9,0.3,10.2c0.3,2,0.5,2.8,0.7,3.3c0.2,0.4,0.4,0.6,0.7,0.9c0.3,0.2,0.4,0.4,0.2,0.5c-0.1,0.2-0.3,0-0.5-0.1
			l-1.9-1.4c-2.5-1.9-3.2-2.8-3.4-4.7c-0.2-1.9-0.2-6.2,0-9.3l-1.3,1.7c-1.1,1.5-2.4,3.2-3,4.1c-0.3,0.5-0.6,1.1,0,1.7
			c0.2,0.2,0.5,0.5,0.8,0.7c0.2,0.2,0.3,0.3,0.2,0.4c-0.1,0.1-0.2,0.1-0.5-0.1c-1.3-1-3.2-2.6-3.4-2.7c-0.1-0.1-2.3-1.7-2.9-2.2
			c-0.2-0.2-0.4-0.3-0.2-0.5c0.1-0.1,0.3-0.1,0.5,0.1c0.2,0.1,0.4,0.3,0.6,0.4c0.7,0.4,1.1-0.1,1.5-0.6c0.7-0.7,1.7-2,3.2-3.9
			l2.6-3.3c2.3-2.9,2.7-3.5,3.1-4.1c0.4-0.6,0.4-1.1,0-1.5c-0.2-0.3-0.5-0.5-0.7-0.6c-0.2-0.2-0.4-0.3-0.2-0.5
			c0.1-0.1,0.3-0.1,0.6,0.2c0.8,0.6,2.7,2.2,2.9,2.3c0.2,0.1,2.5,1.8,3.2,2.4c0.3,0.2,0.3,0.4,0.3,0.5c-0.1,0.1-0.2,0.1-0.5-0.1
			c-0.2-0.1-0.3-0.2-0.6-0.4c-0.7-0.4-1.2-0.1-1.7,0.5c-0.5,0.6-0.8,0.9-3.1,3.9L125.8,408.8z"/>
	</g>
	<g>
		<path class="st4" d="M140,417.3c2.1-3.3,2.3-3.7,2.7-4.4c0.3-0.6,0.4-1.1-0.1-1.5c-0.2-0.2-0.4-0.3-0.6-0.5
			c-0.3-0.2-0.3-0.3-0.2-0.5c0.1-0.1,0.2-0.1,0.6,0.1c1.2,0.7,2.1,1.4,3,2c0.4,0.3,5.4,3.4,5.7,3.6c0.4,0.3,0.9,0.5,1.1,0.6
			c0.2,0,0.3,0.1,0.4,0.1c0.1,0.1,0.1,0.2,0,0.3c-0.1,0.1-0.2,0.3-0.7,0.8c-0.3,0.4-0.8,1.1-1.5,2.1c-0.1,0.2-0.3,0.2-0.4,0.2
			c-0.1-0.1-0.1-0.2,0-0.4c0.1-0.2,0.2-0.4,0.3-0.8c0.2-0.5,0.1-1-0.8-1.7c-0.6-0.5-2.4-1.6-3-2c-0.1-0.1-0.2,0-0.3,0.1l-2.8,4.5
			c-0.1,0.1-0.1,0.3,0,0.3c0.6,0.4,2.2,1.4,3,1.8c1,0.6,1.3,0.7,1.8,0.5c0.2-0.1,0.3-0.1,0.5-0.1c0.1,0.1,0,0.2,0,0.3
			c-0.1,0.2-0.7,0.9-1.2,1.6c-0.3,0.5-0.9,1.4-1.1,1.7c-0.2,0.3-0.3,0.3-0.4,0.3c-0.1-0.1-0.1-0.3,0-0.5c0.1-0.2,0.2-0.3,0.2-0.5
			c0.3-0.6,0.2-1.2-0.7-1.8c-0.5-0.4-2.2-1.5-2.8-1.9c-0.1-0.1-0.2,0-0.3,0.2l-0.9,1.4c-0.4,0.7-1.2,1.9-1.7,2.7
			c-0.9,1.4-0.8,1.9,1.5,3.4c0.5,0.3,1.3,0.8,2,0.9c0.7,0.1,1.2-0.2,2-1c0.2-0.2,0.4-0.3,0.5-0.2c0.2,0.1,0.1,0.3-0.1,0.6
			c-0.5,0.8-1.7,2.2-2,2.5c-0.5,0.4-0.6,0.4-1.4-0.1c-2.8-1.8-4.2-2.8-6.4-4.2c-1-0.6-1.8-1.1-3-1.8c-0.4-0.2-0.5-0.4-0.4-0.5
			c0.1-0.1,0.2-0.1,0.5,0.1c0.3,0.1,0.5,0.2,0.7,0.3c0.6,0.3,1.2-0.4,2-1.7c0.5-0.8,1.3-2,2.1-3.2L140,417.3z"/>
	</g>
	<g>
		<path class="st4" d="M147.2,434.4c-0.3-0.3-0.2-0.7,0-1.1c0.9-1.7,1.4-2.5,1.8-3c0.2-0.4,0.4-0.4,0.5-0.4c0.1,0.1,0.1,0.3,0,0.5
			c-0.1,0.2-0.2,0.4-0.2,0.7c-0.6,1.9,0.5,3.8,2.2,4.6c2,1.1,3.2,0.4,3.7-0.6c0.5-0.9,0.7-1.7-0.5-3.9l-0.8-1.6
			c-1.6-3.2-1.6-5.1-0.6-6.9c1.3-2.4,4.3-3.3,7.7-1.5c0.9,0.5,1.5,0.9,2.3,1.5c0.3,0.2,0.6,0.5,0.9,0.8c0.2,0.2,0.2,0.3,0.1,0.4
			c-0.4,0.7-0.7,1.1-1.7,2.9c-0.2,0.4-0.3,0.5-0.5,0.4c-0.1-0.1-0.2-0.2,0-0.5c0.1-0.2,0.3-0.8,0.3-1.4c0-0.9-0.6-2.1-2.2-2.9
			c-1.7-0.9-2.9-0.3-3.4,0.7c-0.4,0.7-0.6,1.7,0.4,3.4l0.7,1.3c1.9,3.5,2.2,5.3,1,7.5c-0.8,1.5-2.2,2.6-4.3,2.6
			c-1.6,0.1-3.1-0.5-4.2-1C148.8,436.1,147.8,435.3,147.2,434.4z"/>
	</g>
	<g>
		<path class="st4" d="M196.2,452.3c-1.8-2.5-1.9-5.1-1.3-7.6c0.4-1.6,1.6-4.3,4.4-5.8c2.4-1.2,4.9-1.4,8.3-0.6
			c1.3,0.3,2.4,0.7,3.2,1.1c1,0.4,1.5,0.7,2.2,0.9c0.3,0.1,0.2,0.2,0.2,0.4c0,0.2-0.3,0.7-0.5,1.5c-0.2,0.8-0.5,2.1-0.7,2.7
			c-0.1,0.3-0.2,0.5-0.4,0.5c-0.2,0-0.2-0.2-0.2-0.6c0.1-0.5,0.2-1.5-0.3-2.5c-0.6-1.1-2.1-2.1-4.4-2.6c-1.4-0.3-2.6-0.3-3.7,0.3
			c-1.7,0.9-2.9,2.9-3.5,5.4c-1.1,4.8,0.7,8.6,4.6,9.6c1.9,0.5,3.1,0.6,4.3-0.2c0.4-0.3,0.8-0.7,1.1-1.4c0.2-0.5,0.3-0.6,0.5-0.6
			c0.2,0,0.1,0.3,0.1,0.5c-0.1,0.4-0.9,2.4-1.4,3.4c-0.1,0.3-0.3,0.5-0.8,0.5c-1,0.2-2.6-0.1-4.1-0.4
			C201,456.2,198.1,454.9,196.2,452.3z"/>
	</g>
	<g>
		<path class="st4" d="M214,449.5c0.6-4.8,4.4-9,11.4-8.1c6,0.8,9.3,5.3,8.7,10.1c-0.7,5.5-5,9.3-11.2,8.5
			C215.8,459.1,213.4,453.7,214,449.5z M229.1,452c0.5-3.9-0.5-8.6-4.8-9.2c-2.2-0.3-4.8,0.6-5.5,6.2c-0.6,4.5,0.7,9,4.8,9.6
			C225.2,458.8,228.3,458.5,229.1,452z"/>
	</g>
	<g>
		<path class="st4" d="M239,450.2c0.1-3.9,0.1-4.2,0.1-5c0-0.9-0.2-1.3-0.9-1.4c-0.2-0.1-0.5-0.1-0.8-0.1c-0.3,0-0.5-0.1-0.5-0.3
			c0-0.2,0.2-0.2,0.6-0.2c1.4,0.1,2.6,0.2,3.7,0.2c0.5,0,6.6,0.2,7,0.2c0.5,0,0.9,0,1.2-0.1c0.2,0,0.3-0.1,0.5-0.1
			c0.1,0,0.2,0.1,0.1,0.2c0,0.2-0.1,0.6-0.2,1.2c-0.1,0.5-0.2,1.3-0.3,2.3c0,0.3-0.1,0.4-0.3,0.4c-0.2,0-0.2-0.2-0.2-0.4
			c0-0.3,0-0.4-0.1-0.7c-0.1-0.5-0.5-0.9-1.6-1c-0.9-0.1-3.1-0.2-3.9-0.3c-0.1,0-0.2,0.1-0.2,0.3l-0.2,5.4c0,0.2,0,0.3,0.2,0.3
			c0.7,0,2.4,0.1,3.3,0.1c1.3,0,1.6,0,2-0.5c0.1-0.2,0.2-0.3,0.3-0.3c0.1,0,0.2,0.2,0.2,0.3c0,0.2-0.2,1.1-0.3,1.9
			c0,0.5-0.1,1.7-0.1,2c0,0.3,0,0.5-0.2,0.5c-0.1,0-0.2-0.2-0.2-0.4c0-0.2,0-0.3-0.1-0.5c-0.1-0.7-0.4-1.1-1.5-1.2
			c-0.7-0.1-2.8-0.2-3.4-0.2c-0.1,0-0.1,0.1-0.2,0.3l-0.1,1.7c-0.1,2.3-0.1,3.8-0.1,4.8c0,0.7,0.2,1.2,1.1,1.4
			c0.3,0.1,0.6,0.1,0.8,0.1c0.4,0,0.5,0.1,0.5,0.2c0,0.1-0.1,0.3-0.5,0.2c-1.3,0-1.5-0.1-4-0.2c-1.7-0.1-3.1,0-3.7-0.1
			c-0.4,0-0.5-0.1-0.5-0.3c0-0.1,0.1-0.2,0.4-0.2c0.2,0,0.4,0,0.6-0.1c0.7-0.1,0.8-0.7,0.9-1.7c0.1-1.3,0.2-2.4,0.3-4.7L239,450.2z"
			/>
	</g>
	<g>
		<path class="st4" d="M254,450.2c-0.2-3.9-0.2-4.2-0.3-5c-0.1-0.9-0.3-1.3-1-1.4c-0.2,0-0.6-0.1-0.8-0.1c-0.3,0-0.5,0-0.5-0.2
			c0-0.2,0.2-0.2,0.5-0.3c1.4-0.1,2.6,0,3.7-0.1c0.5,0,6.6-0.3,7-0.3c0.5,0,0.9-0.1,1.2-0.2c0.2-0.1,0.3-0.1,0.5-0.1
			c0.1,0,0.2,0.1,0.2,0.2c0,0.2-0.1,0.6-0.1,1.2c0,0.6-0.1,1.3-0.1,2.3c0,0.3-0.1,0.4-0.2,0.4c-0.2,0-0.2-0.1-0.3-0.4
			c0-0.3,0-0.4-0.1-0.7c-0.2-0.5-0.5-0.9-1.6-0.9c-0.9,0-3.1,0-3.9,0c-0.1,0-0.2,0.1-0.2,0.3l0.2,5.4c0,0.2,0,0.3,0.2,0.3
			c0.7,0,2.4-0.1,3.3-0.2c1.3-0.1,1.6-0.1,1.9-0.6c0.1-0.2,0.2-0.3,0.3-0.3c0.1,0,0.2,0.2,0.2,0.3c0,0.2-0.1,1.1-0.1,1.9
			c0,0.5,0,1.7,0,2c0,0.3,0,0.5-0.2,0.5c-0.1,0-0.2-0.1-0.3-0.4c0-0.2-0.1-0.3-0.1-0.5c-0.1-0.6-0.5-1.1-1.6-1.1
			c-0.7,0-2.8,0-3.5,0.1c-0.1,0-0.1,0.1-0.1,0.3l0.1,1.7c0.1,2.3,0.1,3.8,0.3,4.8c0.1,0.7,0.3,1.2,1.2,1.3c0.3,0,0.6,0.1,0.8,0.1
			c0.4,0,0.5,0.1,0.5,0.2c0,0.1-0.1,0.3-0.5,0.3c-1.3,0.1-1.5,0-4,0.1c-1.7,0.1-3.1,0.2-3.7,0.2c-0.4,0-0.5-0.1-0.5-0.2
			c0-0.1,0.1-0.2,0.4-0.3c0.2,0,0.4-0.1,0.6-0.1c0.6-0.1,0.7-0.7,0.8-1.7c0-1.3,0-2.4-0.1-4.7L254,450.2z"/>
	</g>
	<g>
		<path class="st4" d="M269.4,449.7c-0.5-3.9-0.5-4.4-0.7-5.1c-0.1-0.7-0.4-1.1-1-1.1c-0.2,0-0.6,0-0.8,0c-0.3,0-0.4-0.1-0.5-0.2
			c0-0.1,0.1-0.2,0.5-0.3c1.4-0.2,2.5-0.2,3.6-0.3c0.5-0.1,6.3-0.8,6.7-0.8c0.5-0.1,1-0.2,1.3-0.2c0.2-0.1,0.3-0.1,0.4-0.1
			c0.1,0,0.2,0.1,0.2,0.2c0,0.1,0,0.4,0,1.1c0,0.5,0,1.3,0.1,2.6c0,0.2-0.1,0.3-0.2,0.4c-0.1,0-0.2-0.1-0.3-0.3
			c0-0.3-0.1-0.5-0.2-0.8c-0.2-0.5-0.5-0.8-1.7-0.8c-0.8,0-2.9,0.2-3.6,0.3c-0.1,0-0.2,0.1-0.2,0.3l0.6,5.2c0,0.2,0.1,0.3,0.2,0.3
			c0.7-0.1,2.6-0.3,3.4-0.4c1.2-0.2,1.5-0.3,1.7-0.8c0.1-0.2,0.2-0.3,0.3-0.3c0.1,0,0.2,0.1,0.2,0.3c0,0.2,0,1.1,0,2
			c0,0.6,0.2,1.7,0.2,2c0,0.3,0,0.5-0.2,0.5c-0.2,0-0.2-0.1-0.3-0.3c0-0.2-0.1-0.4-0.1-0.5c-0.2-0.7-0.6-1-1.7-1
			c-0.7,0-2.6,0.2-3.4,0.3c-0.1,0-0.1,0.1-0.1,0.3l0.2,1.6c0.1,0.8,0.2,2.2,0.4,3.1c0.2,1.7,0.6,2,3.2,1.7c0.6-0.1,1.5-0.2,2.2-0.5
			c0.6-0.3,0.9-0.9,0.9-2c0-0.3,0.1-0.4,0.2-0.5c0.2,0,0.2,0.2,0.3,0.5c0.1,0.9,0.1,2.8,0,3.2c-0.1,0.6-0.3,0.7-1.1,0.8
			c-3.3,0.4-5.1,0.4-7.6,0.7c-1.1,0.1-2.1,0.3-3.4,0.5c-0.4,0-0.6,0-0.6-0.2c0-0.1,0.1-0.3,0.4-0.3c0.3-0.1,0.5-0.1,0.7-0.2
			c0.7-0.2,0.6-1.1,0.5-2.6c-0.1-1-0.2-2.4-0.4-3.8L269.4,449.7z"/>
	</g>
	<g>
		<path class="st4" d="M285,447.6c-0.8-3.8-0.9-4.3-1.1-5c-0.2-0.7-0.5-1-1.1-1.1c-0.2,0-0.6,0.1-0.8,0.1c-0.3,0-0.4,0-0.5-0.2
			c0-0.1,0.1-0.2,0.5-0.3c1.3-0.3,2.5-0.4,3.5-0.6c0.5-0.1,6.2-1.3,6.6-1.3c0.5-0.1,1-0.3,1.3-0.3c0.2-0.1,0.3-0.1,0.4-0.2
			c0.1,0,0.2,0.1,0.2,0.2c0,0.1,0,0.4,0.1,1.1c0,0.5,0.1,1.3,0.3,2.6c0,0.2,0,0.3-0.2,0.4c-0.1,0-0.2-0.1-0.3-0.3
			c-0.1-0.3-0.1-0.5-0.3-0.8c-0.2-0.5-0.6-0.8-1.7-0.6c-0.8,0.1-2.8,0.4-3.5,0.6c-0.1,0-0.2,0.1-0.1,0.3l1,5.2
			c0,0.2,0.1,0.3,0.2,0.2c0.7-0.1,2.6-0.5,3.4-0.7c1.1-0.3,1.4-0.4,1.6-0.9c0.1-0.2,0.2-0.3,0.3-0.4c0.1,0,0.2,0.1,0.2,0.3
			c0,0.2,0.1,1.1,0.2,2c0.1,0.5,0.3,1.7,0.4,2c0.1,0.3,0,0.5-0.1,0.5c-0.2,0-0.2-0.1-0.3-0.3c-0.1-0.2-0.1-0.3-0.2-0.5
			c-0.2-0.7-0.6-1-1.8-0.8c-0.7,0.1-2.6,0.4-3.3,0.6c-0.1,0-0.1,0.1-0.1,0.3l0.3,1.6c0.2,0.8,0.4,2.2,0.6,3.1c0.3,1.6,0.8,2,3.4,1.4
			c0.6-0.1,1.5-0.3,2.1-0.7c0.6-0.4,0.8-1,0.8-2.1c0-0.3,0.1-0.5,0.2-0.5c0.2,0,0.3,0.2,0.3,0.5c0.2,0.9,0.3,2.8,0.2,3.2
			c0,0.6-0.2,0.7-1.1,0.9c-3.2,0.6-5,0.8-7.5,1.3c-1.1,0.2-2.1,0.5-3.4,0.7c-0.4,0.1-0.6,0-0.6-0.1c0-0.1,0.1-0.3,0.4-0.3
			c0.3-0.1,0.5-0.2,0.7-0.2c0.6-0.2,0.6-1.1,0.3-2.6c-0.1-0.9-0.4-2.3-0.7-3.8L285,447.6z"/>
	</g>
	<g>
		<path class="st4" d="M336.8,440.6c-3-0.8-4.7-2.7-5.8-5c-0.7-1.5-1.5-4.4-0.2-7.3c1.1-2.5,2.9-4.2,6.1-5.7c1.2-0.6,2.3-1,3.2-1.2
			c1-0.3,1.6-0.5,2.3-0.8c0.2-0.1,0.3,0,0.4,0.2c0.1,0.2,0.3,0.7,0.6,1.5c0.3,0.7,0.9,2,1.2,2.6c0.1,0.3,0.2,0.5,0,0.6
			c-0.2,0.1-0.3,0-0.5-0.3c-0.3-0.5-0.8-1.3-1.8-1.7c-1.1-0.4-2.9-0.3-5,0.8c-1.3,0.6-2.2,1.4-2.7,2.6c-0.8,1.8-0.4,4.1,0.8,6.4
			c2.2,4.4,6,6.2,9.6,4.5c1.8-0.9,2.8-1.5,3.2-2.9c0.1-0.5,0.1-1.1,0-1.8c-0.1-0.5-0.1-0.7,0.1-0.8c0.1-0.1,0.3,0.1,0.4,0.3
			c0.2,0.4,0.8,2.4,1.1,3.5c0.1,0.3,0,0.6-0.3,0.9c-0.7,0.8-2.1,1.6-3.5,2.3C342.9,440.5,339.9,441.4,336.8,440.6z"/>
	</g>
	<g>
		<path class="st4" d="M359.8,418.3c0.1,0,0.1-0.1,0-0.2l-0.3-0.4c-2-3.1-2.2-3.5-2.6-4.1c-0.4-0.6-0.8-0.8-1.5-0.5
			c-0.2,0.1-0.5,0.3-0.8,0.4c-0.3,0.2-0.5,0.1-0.5,0c-0.1-0.1,0-0.3,0.3-0.5c1.2-0.7,3-1.8,3.2-1.9c0.2-0.1,2.5-1.6,3.4-2.2
			c0.3-0.2,0.5-0.2,0.5-0.1c0.1,0.1,0,0.3-0.2,0.4c-0.3,0.3-0.4,0.3-0.7,0.5c-0.5,0.4-0.4,0.9-0.1,1.5c0.4,0.7,0.7,1.2,2.7,4.4
			l2.2,3.6c1.2,1.9,2.2,3.4,2.8,4.2c0.5,0.6,0.9,0.9,1.5,0.6c0.3-0.1,0.7-0.4,0.9-0.5c0.2-0.2,0.4-0.1,0.5,0c0.1,0.1,0,0.3-0.3,0.5
			c-1.4,0.9-3.5,2.1-3.9,2.3c-0.3,0.2-1.9,1.3-2.9,1.9c-0.4,0.2-0.5,0.2-0.6,0.1c-0.1-0.1,0-0.3,0.3-0.4c0.2-0.1,0.4-0.3,0.6-0.5
			c0.4-0.4,0.3-0.9,0-1.6c-0.5-0.9-1.2-2.2-2.4-4.1l-1-1.6c-0.1-0.1-0.1-0.1-0.2,0l-6.3,4c-0.1,0-0.1,0.1,0,0.2l1.3,2.1
			c1.2,1.9,1.8,2.8,2.4,3.6c0.4,0.6,0.9,0.8,1.5,0.5c0.5-0.2,0.7-0.3,0.9-0.4c0.2-0.1,0.4-0.2,0.5,0c0.1,0.1,0,0.3-0.3,0.5
			c-1.2,0.7-3.6,2.2-3.8,2.3c-0.2,0.1-2.3,1.5-2.9,1.9c-0.2,0.1-0.5,0.2-0.6,0.1c-0.1-0.1-0.1-0.3,0.2-0.4c0.2-0.2,0.3-0.3,0.6-0.5
			c0.4-0.4,0.3-1,0-1.6c-0.5-0.9-1.3-2.3-2.5-4.3l-2.2-3.5c-2-3.1-2.3-3.6-2.7-4.2c-0.5-0.7-1-0.9-1.7-0.6c-0.3,0.1-0.4,0.2-0.6,0.3
			c-0.4,0.2-0.5,0.1-0.5,0c-0.1-0.1,0.1-0.3,0.3-0.5c1.2-0.7,2.8-1.7,3.2-1.9c0.8-0.5,2.4-1.6,3.3-2.2c0.4-0.2,0.5-0.2,0.6-0.1
			c0.1,0.1,0,0.3-0.2,0.4c-0.2,0.2-0.5,0.4-0.7,0.5c-0.5,0.5-0.3,1,0,1.6c0.3,0.7,0.9,1.5,2.5,4.1l0.3,0.4c0.1,0.1,0.2,0.1,0.2,0.1
			L359.8,418.3z"/>
	</g>
	<g>
		<path class="st4" d="M374,415.4c-0.1,0.1-0.1,0.1-0.1,0.3l0.6,2c0.2,0.6,0.5,1.2,0.6,1.4c0.3,0.4,0.6,0.4,1,0.1
			c0.2-0.1,0.6-0.3,0.7-0.4c0.3-0.2,0.4-0.2,0.5-0.1c0.1,0.1,0,0.3-0.2,0.5c-0.9,0.7-1.5,1.1-2.5,1.9c-0.2,0.2-1.4,1.2-2.4,1.9
			c-0.3,0.2-0.4,0.2-0.5,0.1c-0.1-0.2,0-0.3,0.2-0.5c0.2-0.2,0.4-0.4,0.5-0.5c0.6-0.6,0.5-1.5,0.2-2.7l-3.9-15.3
			c-0.3-1.1-0.3-1.5-0.1-1.7c0.2-0.1,0.6,0,1.4,0.4c1.3,0.7,10.1,5.4,13.7,7.3c1.8,1,2.6,1.1,3.3,0.7c0.3-0.1,0.5-0.3,0.7-0.4
			c0.2-0.2,0.4-0.2,0.5-0.1c0.1,0.1,0,0.3-0.3,0.6c-1.9,1.4-4,3.1-5.3,4c-0.3,0.2-0.5,0.3-0.5,0.2c-0.1-0.1-0.1-0.3,0.1-0.4
			c0.2-0.2,0.2-0.4,0-0.5l-3.6-2c-0.1-0.1-0.2,0-0.2,0L374,415.4z M376.6,410.9c0.1-0.1,0.1-0.1,0-0.2l-4.8-2.7
			c-0.2-0.1-0.2,0-0.1,0.1l1.5,5.3c0,0.1,0.1,0.1,0.1,0L376.6,410.9z"/>
	</g>
	<g>
		<path class="st4" d="M382.8,399.9c-2.5-2.8-3-3.3-3.5-3.8c-0.5-0.5-1-0.6-1.4-0.3c-0.2,0.1-0.3,0.2-0.6,0.4
			c-0.2,0.2-0.4,0.2-0.5,0.1c-0.1-0.1-0.1-0.2,0.2-0.5c0.7-0.6,2.5-2.2,2.6-2.3c0.2-0.1,2.2-2.1,2.9-2.7c0.3-0.3,0.5-0.3,0.5-0.2
			c0.1,0.1,0,0.3-0.2,0.5c-0.2,0.2-0.3,0.3-0.5,0.5c-0.4,0.5-0.3,0.9,0.2,1.6c0.5,0.6,0.9,1.1,3.4,3.8l2.8,3.1
			c1.3,1.4,2.8,3,3.5,3.7c0.5,0.4,0.8,0.7,1.5,0.3c0.3-0.2,0.6-0.4,0.9-0.6c0.3-0.3,0.4-0.3,0.5-0.2c0.1,0.1,0.1,0.3-0.2,0.5
			c-1.2,1.1-3.2,2.8-3.3,2.9c-0.1,0.1-1.9,1.8-2.5,2.4c-0.3,0.3-0.5,0.3-0.6,0.2c-0.1-0.1,0-0.3,0.2-0.5c0.2-0.2,0.3-0.4,0.5-0.6
			c0.3-0.4,0.1-0.9-0.3-1.5c-0.6-0.8-1.7-2.1-3.3-3.9L382.8,399.9z"/>
	</g>
	<g>
		<polygon class="st3" points="179.7,432.2 180.2,437.3 184.7,439.7 180,441.8 179.1,446.8 175.7,443 170.6,443.6 173.2,439.2 
			171,434.6 176,435.7 		"/>
		<polygon class="st3" points="247.6,37.8 251,44.6 258.5,45.7 253,51 254.3,58.5 247.6,55 240.8,58.5 242.1,51 236.7,45.7 
			244.2,44.6 		"/>
		<polygon class="st3" points="311,435.3 310.5,440.4 306,442.8 310.7,444.9 311.6,449.8 315,446.1 320,446.7 317.5,442.3 
			319.6,437.7 314.7,438.8 		"/>
		<g>
			<path class="st5" d="M442.9,283.6c1.3-0.3,2.7-0.6,4.2-1.1c4.6-1.4,8.6-3.9,12-7.3c0.1-0.1,0.3-0.2,0.5-0.2
				c2.5-0.1,4.8-0.6,7.1-1.4c3.5-1.2,6.7-3.2,9.7-5.8c3.3-3,6-6,8.1-9.3c0.7-1,2.7-4.2,2.2-8.5c-0.1-0.9-0.3-1.7-0.7-2.5
				c0-0.1,0-0.2-0.1-0.2c-0.1-2-0.8-4-2.1-5.5c-1.6-1.8-3.8-3-6.4-3.2c-0.3,0-0.7,0-1,0c-3.2,0-6.3,1.3-8.6,3.7
				c-0.4,0.4-0.7,0.8-1,1.2c-0.2,0.2-0.3,0.4-0.5,0.6c0,0,0,0.1-0.1,0.1c-0.5-2.1-1.2-4.2-2.2-6.4c-2.3-4.9-5.4-9.1-8.2-12.6
				c-0.2-0.3-0.2-0.6,0-0.9c1.3-1.9,2.7-4,3.9-6.2c0.8-1.4,1.4-2.6,1.9-3.9c0,0,0,0,0,0c0.3-0.7,0.6-1.3,0.9-1.9
				c1.1-2.5,2.5-6.3,2.2-10.7c-0.4-6.2-4.3-10.7-10.4-11.9c-1.1-0.2-2.2-0.3-3.4-0.3c-1.8,0-3.6,0.3-5.5,0.8
				c-9.1,2.7-16.2,8.4-21,16.8c-0.8,1.5-1.5,3-2.1,4.6c-0.8,1.8-1.4,3.7-1.7,5.6c-0.1,0.7-1.1,0.8-1.4,0.2c-2-4.8-5.9-8.7-11.4-10.8
				c-2.9-1.1-6.1-1.7-9.7-1.7c-0.7,0-1.3,0-2,0.1c-7.3,0.3-14,2.4-20,6.1c-2.9,1.8-5.5,3.7-7.8,5.9c-0.5,0.4-1.2,0.1-1.2-0.5
				c0-0.2,0-0.3,0-0.5c0.2-2.4-0.4-4.7-1.8-6.6c-0.8-1.1-1.8-2.1-3-2.8c0.4-0.2,0.8-0.3,1.1-0.5c9.7-4.9,11.7-12.5,11.7-18
				c0-4-1.6-7.5-4.6-10.1c-2.7-2.6-6.3-4.1-10.4-4.2l-0.4,0c-7.7,0-15.1,4.6-18.5,11.4c-2.5,5.1-2,9.3-1.1,12c1,3.2,3.2,5.9,6,7.8
				c0.5,0.3,0.4,1.1-0.2,1.3c-0.7,0.2-1.5,0.5-2.2,0.8c-3.8,1.4-7,3.2-9.7,5.3c-0.3,0.3-0.8,0.2-1-0.1c-0.1-0.2-0.3-0.4-0.4-0.6
				c-1.6-2.4-4.6-5.2-10-6.2c-1.2-0.2-2.4-0.3-3.6-0.3c-0.6,0-1.2,0-1.7,0.1c-0.6,0-1-0.6-0.7-1.1c2.6-4.7,4.8-9.1,6.7-13.4
				c1.3-3,2.7-6.3,4.2-10.1c0.6-1.6,1.1-3.1,1.6-4.6c0.1-0.4,0.3-0.8,0.4-1.2c0.5-1.4,1.1-3.3,1.6-5.3c0.4-1.3,0.7-2.6,1-3.8
				c0.4-1.7,0.7-3.4,0.9-4.9l0.1-0.8c0.2-1.3,0.5-2.7,0.6-4.2c0.1-1.1,0.1-2.1,0.2-3c0-0.6,0-1.2,0.1-1.7c0.2-2.6-0.2-5.3-1.2-8
				c-0.7-2-2.1-3.7-3.7-5c-0.1-0.1-0.1-0.1-0.2-0.2c-2.3-3.8-5.7-5.1-7.8-5.5l-0.6-0.1c0,0-0.1,0-0.1,0h-1.6l-0.6,0.1
				c-3.7,0.6-7.1,2.4-10.1,5.3c-1.8,1.7-4.2,4.1-6.4,6.7c-4.6,5.5-8.8,12-13.4,20.5c-6.6,12.3-11.9,25.2-15.7,38.6
				c-2.1,7.5-4.2,14.9-6.2,22.1c-0.2,0.7-1.2,0.7-1.4,0c-0.1-0.6-0.3-1.1-0.5-1.6c-1.8-5.8-5.1-10.4-9.8-13.8
				c-0.6-0.5-1.3-0.9-2-1.3c0,0,0,0,0,0c-3.9-2.8-8.5-4.2-13.2-4.2c-5.6,0-10.8,2-15,5.7c-0.2,0.2-0.5,0.2-0.8,0.1
				c-1.1-0.5-2.3-0.7-3.6-0.7c-1.6,0-3.1,0.4-4.5,1.1c-1.4,0.7-3,1.7-4.6,2.9c-3.6,3-6.8,6.2-9.5,9.6c-0.4,0.5-1.1,0.4-1.3-0.2
				c-0.9-2.4-2-4.6-3.5-6.6c-2.4-3.2-5.2-5.7-8.3-7.4c0,0-0.1,0-0.1,0c-4-3-8.5-4.6-13.4-4.6c-1.4,0-2.8,0.1-4.2,0.4
				c-4.1,0.7-7.8,2.5-10.9,5.3c-0.2,0.2-0.5,0.2-0.8,0.1c-1.1-0.5-2.3-0.7-3.6-0.7c-1.5,0-3,0.4-4.4,1.1c-0.9,0.5-1.9,1-2.8,1.7
				c0-0.1,0.2-0.9,0.2-1.3c0.3-1.4,0.6-3,0.7-4.7l0.1-0.9c0.3-3.5,0.6-7,0.1-10.9c0-0.4-0.1-0.9-0.1-1.3c-0.2-1.8-0.4-3.7-0.8-5.6
				c-0.8-4-2.2-8-4.2-11.8l-0.1-0.2c-0.7-1.4-1.9-3.6-4.4-5.3c-1.7-1.1-3.5-2-5.4-2.5c-0.2-0.1-0.4-0.2-0.5-0.5
				c-0.4-1.1-1-2.1-1.8-3.1c-0.3-0.3-0.6-0.8-0.9-1.4c-0.2-0.4-0.5-0.8-0.8-1.2c-2.6-3.9-5.4-7.9-8.7-11.8l-0.2-0.2
				c-1.1-1.3-3.6-4.3-8.2-4.4c0,0-0.1,0-0.1,0c-0.4-0.1-0.9-0.1-1.4-0.2c-0.1,0-0.3,0-0.4-0.1c-1.4-0.9-3.3-1.6-5.6-1.7l-0.5,0
				c-1.3,0-2.8,0.1-4.4,0.5c-5.9,1.6-11.7,3.9-17.1,6.8c-8.1,4.5-15.5,10.2-22.7,17.4c-0.3,0.3-0.6,0.6-0.9,0.9
				c-0.4,0.4-1,0.3-1.2-0.2c-0.9-2-2.5-3.7-4.6-4.8c-1.5-0.8-3.7-1.8-6.4-2.1c-0.8-0.1-1.6-0.1-2.5-0.1c-3.3,0-6.4,0.7-9.2,2
				c-0.6,0.3-1.3,0.6-1.9,1c0,0-0.1,0-0.1,0c-0.8,0.3-1.6,0.6-2.3,1c-7.7,3.8-13.2,9.7-16.4,17.6c-2.1,5.2-2.5,10.5-1.1,15.6
				c0.6,2.1,1.5,3.9,2.1,5.2c1.8,3.6,4.6,6.4,8.2,8.4c1.7,1,6.4,1.3,5.6,3.7c-4,11.7-6.1,24.1-6.3,36.5c-0.2,11.5,1.6,22.9,9.2,32
				c0.6,0.7,1.1,1.3,1.7,1.9c7.2,7.2,17.8,10.2,28,9.8c11.3-0.5,22.9-4.6,32.7-10.2c0.8-0.5,1.6-0.9,2.4-1.4c0.3-0.2,0.7-0.1,1,0.2
				c0.5,0.6,1,1.3,1.5,1.9c2.1,2.6,4.1,5.4,6.1,8.2c6.2,8.8,11.5,17.2,19.9,24.1c8.3,6.9,18.1,12,28.4,15
				c20.4,5.7,41.3,2.6,61.9-0.2c17.3-2.4,34.7-4.5,52.2-6c17.3-1.4,34.6-2.1,51.9-1.4c12.7,0.5,25.4,2,37.7,5.1
				c9.1,2.3,17.9,5.4,26.1,10c6.4,3.6,12.3,8,17.5,13c4.2,4,7.9,8.5,11,13.3c1.5,2.4,2.2-0.6,2.7-2c0.9-2.7,1.8-5.3,2.8-7.9
				c2.7-7.1,5.8-14.4,11.7-19.4c13.1-10.9,27-11.4,42.6-8.6c2.9,0.5,5.7,1.7,8,2.1c0.6,0.1,1.1-0.5,1-1.1c-1.8-6-3-10.1-6.7-14.9
				c-4.1-5.5-9.3-10-14.4-14.6c-3.5-3.1-7.1-6.1-10.8-8.9c-3.2-2.5-6.8-4.6-10.1-7c-0.5-0.4-0.3-1.2,0.3-1.3
				C441.5,284,442.2,283.8,442.9,283.6 M386.1,235.4c0.2-0.3,0.3-0.6,0.5-0.9c1-1.7,2-3.1,3-4.2C388.7,232,387.5,233.7,386.1,235.4
				 M418.4,234.2c0.4-0.9,0.8-1.8,1.1-2.7c0.8-2.3,1.2-4.6,1.2-6.9c0,0.2,0.1,0.4,0.1,0.6l0.1,0.6c0.2,1.1,0.5,2.4,1,3.8
				c0.2,0.5,0.4,1,0.6,1.5c0.1,0.2,0.1,0.5-0.1,0.7c-0.1,0.1-0.2,0.2-0.3,0.3c-1.6,2-3.2,4.1-4.8,6.1c-0.7,0.9-1.4,1.7-2.1,2.5
				C416.5,238.9,417.6,236.7,418.4,234.2 M352.7,255.7c-0.1,0-0.2,0.1-0.3,0.1c0,0,0.3-0.8,0.3-1
				C352.7,255.1,352.7,255.4,352.7,255.7 M285.1,271.7L285.1,271.7c-0.1,0-0.1-0.1,0-0.1C285.1,271.6,285.1,271.6,285.1,271.7
				 M246.1,275.7c0.7,0.1,1.3,0.2,2.1,0.3c0.9,0.1,1.8,0.1,2.7,0.1c1.6,0,3.1-0.1,4.6-0.3c0,0.1,0,0.2,0,0.3c0,0.4-0.3,0.7-0.6,0.7
				c-0.6,0.1-1.3,0.2-1.3,0.2c-3,0.6-6,1.1-9,1.7c-0.8,0.1-1.2-0.8-0.6-1.3C244.7,276.9,245.4,276.3,246.1,275.7 M154.9,286.8
				c2.7,0,5.2-0.4,7.6-1.1c0.5-0.2,1-0.3,1.6-0.4c1.6-0.4,3.3-0.9,5.2-1.7c4.5-1.9,8.6-4.4,12.5-7.6c0.2-0.1,0.4-0.2,0.6-0.2
				c0.7,0.1,1.4,0.2,2.2,0.2l0.1,0c0.9,0,1.8,0.1,2.7,0.1c1.8,0,3.3-0.1,4.8-0.4c1.6-0.3,3.2-0.7,4.6-1.2c0.3-0.1,0.7,0,0.9,0.3
				c0.5,0.8,1,1.6,1.6,2.4c2.2,2.9,4.8,5.1,7.8,6.7c0.6,0.3,0.5,1.3-0.2,1.4c-2.2,0.3-4.4,0.7-6.6,0.9c-3.8,0.5-7.9,0.9-12.6,1.3
				c-2.7,0.2-5.5,0.3-7.9,0.3c-2.7,0-5.4,0.1-8,0.1c-1.5,0-3,0-4.5,0c-2.7,0-4.9-0.1-6.9-0.3c-2-0.2-4-0.5-5.9-0.9
				C154.5,286.8,154.7,286.8,154.9,286.8 M131.7,272.9c-2.8-3-5.3-6.2-7.8-9.7c-0.2-0.3-0.2-0.7,0-0.9c0.7-0.8,1.4-1.7,2.1-2.5
				c0.4-0.5,1.2-0.3,1.3,0.3c0.1,0.4,0.2,0.9,0.3,1.3c0.5,1.7,1.1,3.4,1.8,4.9c0,0,0,0.1,0,0.1c0.3,1.5,0.8,2.9,1.3,4.3
				C131.1,271.4,131.4,272.1,131.7,272.9 M76.4,233.2c-1.4,0-2.8,0.1-4.1,0.2c-3.1,0.3-5.9,1.1-8.4,2.3c-0.6,0.3-1.3-0.3-1-0.9
				c0.8-2.1,1.6-4,2.4-5.9c1.6-3.5,3.4-7,5.4-10.4c1.3-2.3,2.8-4.5,4.3-6.8c0.5-0.7,0.9-1.4,1.4-2.1c0.1-0.1,0.2-0.3,0.4-0.3
				c2.5-0.7,4.7-1.4,6.9-2.2c2.2-0.8,4.3-1.6,6.4-2.4c1-0.4,1.9-0.7,2.9-1.1c1.1-0.4,2.2-0.8,3.2-1.2c2.4-0.9,4.8-1.8,7.3-2.8
				c3.5-1.4,6.9-3.1,10-5c0.1,0.2,0.1,0.4,0.1,0.7c0.5,2.5,0.7,5.3,0.5,8.4c-0.1,2.2-0.5,4.4-1.1,6.9c-0.9,3.5-2.3,7-4.1,10.7
				c-2.8,5.6-6.4,10.9-10.9,16.1c-0.2,0.3-0.6,0.3-0.9,0.2c-1.8-0.8-3.8-1.7-5.8-2.3c-3.4-1.1-6.9-1.5-10.4-1.9
				C79.4,233.3,77.9,233.2,76.4,233.2"/>
			<path class="st6" d="M472,323.8c-8.4-1-16.4-1.8-24.8-0.3c-8.9,1.6-17.7,5.5-24,12.2c-5.1,5.4-8.7,11.8-10.5,19.1
				c-11.1-13.4-26.7-22.6-43.2-28c-16.5-5.4-34-7.2-51.4-7.8c-26.4-0.8-52.8,1.3-79,4.4c-11.7,1.4-23.3,3-35,4.6
				c-11.4,1.6-22.9,2.5-34.4,1.1c-15.3-1.8-30.5-7.7-41.6-18.5c-5.6-5.5-10-12-14.3-18.5c-1.6-2.3-11.7-18.7-14.4-17
				c-2.3,1.5-4.7,3-7.1,4.4c-2,1.1-4.1,2.1-6.2,3.1c-1.7,0.8-3.4,1.5-5.1,2.2c-0.9,0.4-1.9,0.6-2.9,0.9c-1.3,0.4-2.6,0.9-3.9,1.2
				c-1,0.3-2,0.4-2.9,0.6c-4,0.9-8.1,1.2-12.3,1.2c-1.4,0-2.7-0.3-4.1-0.5c-0.8-0.1-1.6-0.3-2.3-0.4c-2.1-0.4-4-1.2-5.9-2.2
				c-1.2-0.7-2.4-1.5-3.5-2.2c-2-1.3-3.5-3.1-5-5c-1.6-2-2.7-4.2-3.7-6.5c-1.2-2.9-2-5.8-2.5-8.9c-0.4-2.5-0.7-4.9-0.6-7.4
				c0.1-3.1,0.1-6.2,0.4-9.3c0.3-2.8,0.9-5.6,1.4-8.4c0.3-1.7,0.6-3.5,1.1-5.2c0.7-2.4,1.5-4.8,2.3-7.2c0.9-2.6,1.8-5.2,2.9-7.8
				c0.9-2.1,1.9-4.1,2.8-6.2c0.5-1,1.1-2,1.6-3.1c0.1-0.2,0.2-0.7,0.1-0.8c-0.1-0.2-0.5-0.2-0.8-0.2c-4,0.1-7.9-0.3-11.7-1.9
				c-2-0.9-3.5-2.4-4.8-4c-1.5-2-2.4-4.3-2.8-6.7c-0.4-2.5-0.4-5,0.3-7.4c0.8-2.7,1.9-5.3,3.5-7.5c3.1-4.3,6.9-7.7,11.7-9.9
				c2.5-1.2,5.2-1.5,7.9-1.2c1.3,0.1,2.6,0.7,3.7,1.3c1.6,0.8,1.8,2.4,0.5,3.7c-1.2,1.2-2.5,2.2-3.8,3.2c-0.9,0.8-1.9,1.6-2.8,2.4
				c-1.9,1.9-2.7,5.8-1.5,8.3c1.2,2.4,3.1,3.8,5.4,4.9c0.9,0.4,1.9,0.7,2.8,1c0.7,0.3,1.2,0.1,1.7-0.5c4.4-6.4,9.5-12.3,15.1-17.7
				c4.7-4.5,9.7-8.5,15.2-12c5.3-3.4,10.8-6.5,16.9-8.5c2.9-1,5.9-1.6,8.8-2.4c0.6-0.2,1.3-0.3,1.9-0.4c0.4,0,0.9,0.2,1.3,0.2
				c1.7-0.1,2.5,1,3.4,2.1c3,3.5,5.6,7.3,8.2,11.2c0.7,1.1,1.3,2.2,2.1,3.2c1,1.3,0.7,2.5,0.2,3.8c0,0.1-0.1,0.2-0.2,0.3
				c-0.6,1.4-0.6,1.4,1,1.3c3-0.2,5.7,0.3,8.2,2c1.1,0.7,1.6,1.8,2.1,2.8c1.6,3.2,2.8,6.5,3.6,10c0.4,2.1,0.6,4.2,0.8,6.4
				c0.4,3.5,0.1,7-0.2,10.5c-0.1,1.7-0.5,3.4-0.8,5.1c-0.3,1.6-0.6,3.1-0.9,4.7c-0.4,1.5-0.8,3-1.2,4.4c-0.9,2.7-1.8,5.4-2.8,8
				c-0.8,2.1-1.7,4.1-2.7,6.2c-1.2,2.5-2.5,5-3.9,7.5c-2.3,4.1-4.9,8.1-7.8,11.7c-2.2,2.8-4.5,5.4-6.8,8.1c-0.6,0.7-1.2,1.4-1.8,2.1
				c-0.3,0.3-0.3,0.6,0,1c2.4,3.7,4.8,7.5,7.3,11.2c4.2,6.1,8.8,11.9,14.5,16.6c8.7,7.2,18.9,9.7,30,10.1c25.5,1,50.7-3.6,75.6-8.6
				c14.7-3,29.3-6.1,44.1-8.4c3.7-0.6,7.5-1.1,11.2-1.6c4.9-0.7,9.8-1.3,14.7-1.9c2.9-0.4,5.8-0.6,8.8-0.9c1.5-0.1,3.1-0.2,4.6-0.3
				c5.4-0.4,10.8-0.8,16.2-1.1c4.8-0.3,9.6-0.4,14.4-0.5c3-0.1,5.9,0,8.9,0c0.8,0,1.6-0.1,2.4-0.1c3,0.1,6,0,9,0.2
				c4.6,0.3,9.3,0.7,13.9,1.3c4.1,0.5,8.1,1.4,12.1,2.2c2.3,0.4,4.5,0.9,6.7,1.5c2.7,0.7,5.4,1.7,8.1,2.5c5.1,1.5,10.1,3.5,14.9,5.8
				c5.1,2.5,10.7,3,15.5,6c5.3,3.3,9.2,7.8,14,11.7c4.1,3.4,7.8,7.1,11.2,12.6C471.7,323.3,472,323.8,472,323.8 M49.4,260.8
				c0.1,1.2,0.3,2.9,0.4,4.6c0.2,2.2,0.9,4.2,2,6.1c1.5,2.4,3.7,3.8,6.5,3.9c1.9,0.1,3.8-0.5,5.6-0.9c1-0.2,1.9-0.6,2.8-0.9
				c1.8-0.6,3.6-1.3,5.3-2c1.3-0.5,2.5-1.2,3.8-1.9c1.1-0.5,2.2-1.1,3.2-1.7c2.1-1.3,4.1-2.6,6.2-3.9c0.9-0.6,1-1.1,0-1.6
				c-0.7-0.4-1.5-0.6-2.2-1c-2.4-1.4-5.2-1.8-7.8-2.4c-2.3-0.5-4.6-0.6-6.9-0.5c-2.5,0.1-4.9,0.7-7.1,1.8c-1.3,0.6-2.5,1.6-3.7,2.4
				c-0.3,0.2-0.7,0.4-0.9,0.3c-0.2-0.1-0.4-0.6-0.4-0.8c0.2-1.4,0.3-2.8,0.8-4.1c1.3-3.4,3.9-5.9,6.1-8.6c3.1-3.7,7.5-5.3,12.3-5.4
				c2.6-0.1,5.3,0.2,7.9,0.4c1.1,0.1,2.2,0.2,3.3,0.5c1.7,0.4,3.4,0.7,5,1.3c3,1.1,5.7,2.6,8.4,4.2c0.9,0.6,1.1,0.5,1.8-0.3
				c1.1-1.3,2.3-2.5,3.5-3.8c3.6-4,6.8-8.2,9.6-12.7c2.3-3.7,4.5-7.5,6.2-11.5c1.7-3.9,3.1-7.9,4-12c0.3-1.4,0.5-2.9,0.7-4.4
				c0.6-4.5,0.4-8.9-0.6-13.2c-0.8-3.7-2.2-7.1-4.2-10.4c-0.6-0.9-0.8-1-1.7-0.3c-2.3,1.6-4.5,3.3-6.9,4.9
				c-3.7,2.4-7.6,4.4-11.6,6.1c-3.4,1.4-6.9,2.6-10.3,3.9c-3,1.1-6,2.4-9.1,3.4c-2.5,0.9-5,1.7-7.6,2.4c-1.2,0.3-2.1,1-2.7,2
				c-2.2,3.4-4.6,6.7-6.6,10.2c-2.1,3.6-4,7.3-5.7,11.1c-1.7,3.7-3.1,7.5-4.5,11.4c-1,2.7-1.8,5.5-2.5,8.3c-0.7,2.5-1.2,5.1-1.6,7.7
				C49.7,255.6,49.6,258,49.4,260.8 M81,192.2c0,0.1,0.1,0.2,0.1,0.3c0.3,0,0.7,0.1,1,0c4.7-1,9.2-2.6,13.7-4.3
				c3.8-1.5,7.2-3.7,10.4-6.2c3-2.3,5.9-4.8,8.7-7.4c2.1-1.9,4-3.9,6-5.8c0.2-0.2,0.4-0.5,0.6-0.8c-1.2-0.5-10,2-16.3,5.1
				C95.9,177.8,88.1,184.5,81,192.2"/>
			<path class="st3" d="M41.7,208c-1.3,0-2.6,0-3.9,0c-3.2-0.1-6.4-0.3-9.3-2c-2.3-1.3-4.1-3.1-5.3-5.4c-0.6-1.2-1.3-2.5-1.6-3.8
				c-1-3.7-0.7-7.4,0.8-11c2.5-6.2,6.9-10.8,12.9-13.8c3-1.5,6.1-2,9.4-1.2c0.7,0.2,1.4,0.5,2.1,0.8c1.1,0.6,1.6,1.9,0.9,2.9
				c-0.9,1.3-2,2.4-3.1,3.5c-1.1,1.1-2.3,2-3.3,3.2c-1.3,1.6-1.9,3.4-1.5,5.5c0.4,2.2,1.7,3.8,3.5,4.9c1.7,1.1,3.6,1.7,5.5,2.2
				c0.7,0.2,0.9-0.3,1.2-0.7c1.4-2.1,2.8-4.2,4.3-6.2c3.6-5,7.6-9.7,11.9-14c6.3-6.3,13.2-11.8,21.1-16.2c4.9-2.7,10-4.7,15.4-6.2
				c1-0.3,2-0.3,3-0.3c1.8,0,2.6,1.1,3.5,2.2c3.7,4,6.9,8.4,10.1,12.8c0.5,0.6,0.9,1.3,1.4,1.9c0.9,1.1,0.8,2.2,0.5,3.5
				c-0.2,0.5-0.3,1.1-0.6,1.7c1.1,0,2,0,3,0c2.5,0.1,4.8,0.6,6.7,2.2c0.8,0.7,1.5,1.6,2.1,2.5c2.1,3.5,3.6,7.3,4.5,11.3
				c1.1,4.7,1.6,9.4,1.2,14.2c-0.2,3-0.7,5.9-1.1,8.9c-0.9,5.9-2.8,11.6-5.1,17.2c-2.4,5.8-5.4,11.4-9,16.6c-2.6,3.9-5.5,7.6-8.7,11
				c-0.7,0.7-1.4,1.5-2,2.3c-0.1,0.1-0.2,0.5-0.1,0.6c5.4,7.1,10.3,15,16.9,21.2c6,5.6,13.2,9.9,21.1,12.3c11.2,3.4,23.2,3,34.8,2
				c26.2-2.2,52-7,77.8-12.2c25.4-5.1,51.6-7.7,77.5-8.9c6.2-0.3,12.4-0.4,18.6-0.3c12.3,0.1,24.7,1.1,36.8,3.4
				c12.2,2.3,23.7,5.8,34.8,11.4c1,0.5,2,1,3.1,1.6c5,2.5,9.7,5.7,14.1,9.1c3.9,3,8,6.4,11.6,9.8c2.9,2.8,6.9,6.6,9.3,9.9
				c-10.4-2.2-23.3-3.5-33.5-0.3c-11.4,3.6-21.7,12.8-24.1,24.9c-0.1,0.3-0.2,0.5-0.3,0.9c-0.3-0.3-0.4-0.4-0.6-0.6
				c-10.6-12.8-25.7-20.7-41.4-25.5c-24.6-7.5-51.2-8-76.7-6.8c-10.2,0.5-20.4,1.4-30.6,2.4c-16.4,1.7-32.8,4.1-49.1,6.4
				c-19.8,2.9-39.5,5.2-58.6-2.1c-2.2-0.8-4.5-1.7-6.6-2.7c-2.7-1.3-5.3-2.8-7.9-4.4c-2-1.2-4-2.5-5.9-4c-4.9-3.8-9.3-8.3-13.1-13.2
				c-4.1-5.3-8.2-10.5-12.4-15.7c-2.2-2.7-4.7-5.2-7.1-7.8c-0.2-0.2-0.4-0.4-0.7-0.5c-0.4-0.1-0.7,0.1-1,0.3
				c-6.6,4.3-13.8,8-21.4,10.1c-14.1,4-30.7,2.5-39.4-10.8c-3.6-5.5-5.2-11.6-5.7-18c-0.6-7.1,0.2-14,1.7-21
				c1.2-5.4,2.8-10.7,4.9-15.9c0.8-2.1,1.8-4.1,2.6-6.2C41.7,208.3,41.7,208.2,41.7,208 M85,258.7c0-0.1,0-0.2,0-0.4
				c-1.7-0.7-3.3-1.4-5-2c-2.9-1-5.9-1.5-8.9-1.7c-4.7-0.3-9.1,0.5-12.9,3.6c-0.4,0.3-0.9,0.4-1.4,0.6c-0.6-1.6-0.7-3.2,0-4.9
				c0.7-1.8,1.9-3.5,3-5.1c1.5-2,3-3.9,4.9-5.3c1.9-1.4,4.2-2.3,6.5-2.7c2.9-0.6,5.9-0.6,8.8-0.3c3,0.3,6.1,0.7,9,1.6
				c3.2,1,6.3,2.6,9.3,4c0.7,0.3,1,0.3,1.5-0.2c6.1-6.5,11.3-13.5,15.4-21.5c2-3.9,3.6-8,4.7-12.2c0.7-2.7,1.2-5.4,1.4-8.2
				c0.2-3.5,0.1-6.9-0.6-10.4c-1-4.5-2.7-8.7-5.3-12.6c-0.6-0.8-0.8-0.9-1.5-0.2c-5,4.4-10.6,7.8-16.6,10.6
				c-5.3,2.4-10.7,4.6-16.1,6.7c-3.7,1.5-7.5,2.7-11.3,4c-0.5,0.2-1.2,0.5-1.5,1c-1.9,2.9-3.8,5.8-5.5,8.8
				c-2.6,4.5-4.7,9.2-6.6,14.1c-1.8,4.7-3.3,9.5-4.4,14.4c-1,4.5-1.7,9.1-1.6,13.8c0.1,3.1,0.4,6.2,1.6,9.1c1.5,3.6,5,6.4,9.8,5.5
				c3-0.5,5.9-1.3,8.8-2.5c3.9-1.5,7.5-3.5,11-5.6C82.7,260.2,83.9,259.4,85,258.7 M77.4,191.3c0,0.1,0.1,0.2,0.1,0.2
				c0.2,0,0.5-0.1,0.7-0.1c2.9-0.9,5.7-1.7,8.6-2.7c3.7-1.3,7.2-2.9,10.4-5.1c4.4-2.9,8.2-6.6,11.9-10.3c1.7-1.6,3.3-3.4,4.9-5.1
				c0.4-0.4,0.8-0.9,1.3-1.6C99.4,170.1,87.6,179.5,77.4,191.3"/>
			<path class="st6" d="M265.3,264c-0.3,0.1-0.6,0.3-0.8,0.5c-2.3,1.6-4.8,2.7-7.4,3.5c-2.7,0.8-5.5,1-8.3,0.8
				c-1.3-0.1-2.6-0.5-3.9-0.9c-0.6-0.2-1,0-1.4,0.4c-2.5,2.5-5.4,4.7-8.5,6.5c-2.7,1.6-5.6,2.8-8.6,3.7c-3.4,1-6.8,1.3-10.2,0.9
				c-4.5-0.5-8.3-2.6-11.2-6.4c-1.7-2.2-2.8-4.7-3.5-7.4c-0.1-0.3-0.2-0.6-0.3-0.9c0,0-0.1-0.1-0.2-0.2c-1,0.6-2,1.2-3,1.7
				c-2.3,1.2-4.7,1.9-7.3,2.4c-2,0.4-3.9,0.3-5.9,0.2c-1.3-0.1-2.6-0.5-3.9-0.8c-0.6-0.2-1-0.1-1.4,0.3c-3.8,3.6-8.1,6.6-13,8.6
				c-1.9,0.8-4,1.2-5.9,1.8c-2.9,0.9-6,0.9-9,0.5c-6.8-0.9-11.5-4.8-14-11.3c-0.9-2.2-1.3-4.6-1.5-6.9c-0.2-1.6-0.1-3.2,0.1-4.8
				c0.3-2.4,0.6-4.7,1.1-7c0.4-1.7,1-3.3,1.6-4.9c1.5-3.9,3.4-7.7,5.8-11.1c3.4-4.9,7.4-9.2,12.2-12.6c0.6-0.4,1.4-0.8,2.1-1.1
				c0.6-0.3,1.8,0.3,2.2,1c0.8,1.2,0.7,3.4-0.4,4.7c-1.4,1.6-2.7,3.3-3.9,5.1c-1.8,2.7-3,5.6-4.1,8.7c-0.6,1.9-1.2,3.9-1.5,5.9
				c-0.4,2.5-0.7,5.1-0.6,7.7c0.1,3.9,0.7,7.7,2.5,11.2c1.3,2.5,3,4.6,5.7,5.7c0.9,0.3,1.8,0.5,2.7,0.5c4.7,0.3,8.1-2.1,11.3-5.1
				c0.5-0.5,0.2-0.8-0.2-1.1c-4.1-2.8-7.2-6.6-9.4-11c-1.4-2.8-2.2-5.8-2.7-8.9c-0.4-2.7-0.5-5.4-0.2-8c0.2-1.7,0.7-3.4,1.1-5.1
				c0.6-2.5,1.6-4.8,2.8-7.1c2.1-3.7,4.9-6.8,8.9-8.5c2.3-1,4.8-1.4,7.3-1.1c4.5,0.6,7.9,3.1,10.5,6.7c2,2.8,3.2,6,3.7,9.4
				c0.5,2.9,0.4,5.8,0.1,8.7c-0.4,3.8-1.4,7.5-2.9,11.1c-1.1,2.9-2.6,5.6-4.3,8.2c-0.5,0.8-0.4,1,0.5,1c1.7,0,3.5,0.1,5.2-0.1
				c2.5-0.3,4.8-1.3,6.9-2.8c0.2-0.2,0.3-0.6,0.3-0.9c0.3-1.9,0.5-3.8,0.9-5.7c0.8-3.3,1.9-6.6,3.3-9.7c3.1-6.9,7.6-12.7,13.3-17.7
				c1.3-1.2,2.9-2.1,4.4-3.1c0.7-0.5,1.3-0.1,1.8,0.3c1.3,1.1,1.9,3.5,0.4,5.1c-3.3,3.7-5.6,8-7.3,12.6c-0.7,2.1-1.4,4.2-1.8,6.4
				c-0.4,2.4-0.6,4.9-0.7,7.3c-0.1,1.8-0.1,3.5,0.2,5.3c0.6,4.3,1.9,8.4,5.2,11.5c1.8,1.7,3.9,2.4,6.3,2.4c3.4-0.1,6.1-1.7,8.7-3.7
				c0.6-0.5,1.1-1,1.7-1.5c0.4-0.4,0.4-0.7-0.1-1c-4.5-3.1-7.8-7.2-10-12.2c-1-2.3-1.7-4.6-2.1-7.1c-0.7-3.6-0.6-7.2-0.1-10.8
				c0.4-2.7,1.2-5.4,2.3-8c1.3-3,3-5.8,5.4-8.1c1.7-1.6,3.7-2.8,6-3.6c1.8-0.6,3.6-0.8,5.4-0.6c2.4,0.2,4.6,1,6.6,2.4
				c3.5,2.6,5.8,6,7.1,10.2c0.6,1.9,1,3.7,1.1,5.7c0,2.1,0.1,4.3,0.1,6.4c-0.1,1.3-0.4,2.5-0.7,3.8c-0.3,1.5-0.7,2.9-1,4.4
				c-0.8,3-2.1,5.8-3.6,8.6c-0.5,1-1.2,2-1.8,3c-0.2,0.3-0.3,0.5-0.5,1c1.2,0.1,2.2,0.3,3.3,0.2c3.8-0.1,7.3-1.1,10.2-3.4
				c1.6-1.2,3-2.6,4.3-4.1c0.5-0.5,0.6-1.4,0.8-2.1c0.7-2.7,1.4-5.4,2.2-8c0.7-2.6,1.5-5.2,2.3-7.8c0.6-2.2,1.2-4.5,1.8-6.7
				c0.5-1.7,1-3.5,1.5-5.2c0.5-1.9,1-3.7,1.6-5.6c0.4-1.3,0.7-2.6,1.1-3.9c0.5-1.8,1-3.5,1.6-5.3c0.6-2,1.1-4,1.8-6
				c0.9-2.6,1.7-5.2,2.7-7.8c1.1-2.8,2.2-5.7,3.5-8.5c2.1-4.5,4.2-9,6.5-13.4c3-5.7,6.6-11.2,10.6-16.3c2.9-3.7,6.1-7.2,10-9.9
				c1.6-1.1,3.3-2,5.2-2.5c1.4-0.4,3.3,0.8,3.9,2.4c0.6,1.6,0.9,3.2,0.7,4.9c-0.1,1.5-0.1,3-0.2,4.5c-0.2,1.5-0.4,3-0.7,4.5
				c-0.3,1.6-0.5,3.1-0.9,4.6c-0.2,1.1-0.5,2.2-0.8,3.2c-0.5,1.7-1,3.4-1.6,5.1c-0.6,1.8-1.1,3.6-1.8,5.3c-1.3,3.3-2.7,6.6-4.1,9.9
				c-2.3,5.3-5,10.4-7.8,15.4c-3,5.4-6.2,10.6-9.6,15.7c-3.6,5.4-7.3,10.6-11.4,15.6c-0.9,1.1-1.2,2.3-1.5,3.6
				c-0.1,0.5-0.3,1-0.4,1.5c0,0.3,0,0.5,0,0.8l0.2,0.1c0.2-0.2,0.4-0.3,0.5-0.5c2.9-3.6,5.7-7.2,8.8-10.7c3.7-4.2,7.8-8,12.5-11.1
				c2.3-1.6,4.8-2.8,7.4-3.8c2.3-0.8,4.7-1,7-0.6c2.8,0.5,5,2,5.7,4.8c0.3,1.4,0.3,3,0.1,4.5c-0.6,4-2.3,7.6-4.4,11.1
				c-2.4,3.8-5.3,7.1-8.4,10.2c-3.5,3.5-7.3,6.6-11.4,9.5c-0.8,0.6-1.3,1.2-1.2,2.3c0.2,1.2,0.3,2.5,0.6,3.7
				c0.5,1.9,1.1,3.7,1.8,5.5c0.6,1.5,1.6,2.7,3.1,3.4c1.9,0.8,3.8,0.4,5.6-0.5c4.4-2.4,8-5.7,11.4-9.4c1.9-2.1,3.6-4.3,5.5-6.4
				c1-1.1,1.2-2.4,1.7-3.7c1.3-3.1,2.6-6.3,3.9-9.4c1.4-3.2,2.8-6.3,4.2-9.4c0.1-0.2,0.1-0.5,0.2-0.7c0.2-0.5,0.3-1-0.1-1.5
				c-0.5-0.5-1-0.4-1.6-0.4c-0.7,0.1-1.5,0.1-2.2,0c-1.5-0.3-1.7-1.5-1.2-3c0.7-2,2.3-3.4,3.9-4.7c2.9-2.4,6.2-4.1,9.7-5.2
				c2.5-0.8,5-1.3,7.6-1.1c2.1,0.2,2.9,0.8,3.1,2.6c0.1,0.9-0.1,1.9-0.4,2.7c-1.4,3.6-2.9,7.2-4.4,10.8c-1.4,3.4-2.9,6.8-4.3,10.2
				c-1.1,2.6-2.1,5.2-3,7.8c-0.8,2.3-1.6,4.7-2.4,7c-0.6,1.9-1.3,3.9-1.8,5.8c-0.5,1.9-1,3.9-1.3,5.9c-0.1,0.7,0.1,1.5,0.4,2.2
				c0.3,0.8,0.9,1.1,1.7,1.1c2.1,0,4.1-0.2,6.1-0.7c3.5-0.8,6.9-2,10.2-3.3c0.9-0.3,0.9-0.6,0.7-1.5c-0.4-1.7-0.8-3.4-1.1-5.1
				c-0.2-1.4-0.3-2.8-0.2-4.1c0.1-2.1,0.2-4.1,0.6-6.2c1-5.8,3-11.2,6-16.3c4-6.6,9.3-11.9,16.3-15.3c2.2-1.1,4.6-1.9,7-2.5
				c3.2-0.8,6.4-1,9.6-0.7c5.3,0.6,9.7,2.9,12,8c1.2,2.6,1.3,5.3,0.7,8.1c-1.1,4.8-3.7,8.8-6.8,12.6c-3.9,4.7-8.4,8.7-13.4,12.2
				c-4,2.8-8.2,5.1-12.6,7.2c-0.2,0.1-0.4,0.2-0.6,0.3c-1.1,0.6-1.1,0.6-0.3,1.5c1.8,1.9,4,3.1,6.5,3.9c2.5,0.7,5,0.8,7.5,0.5
				c3-0.4,6-1.3,8.8-2.6c6.6-3.1,11.9-7.7,16.6-13.2c2.1-2.5,4-5.1,5.9-7.6c2.1-2.8,4.2-5.6,6.2-8.3c0.5-0.7,1.1-1.5,1.6-2.2
				c0.3-0.4,0.3-0.7,0-1c-1.3-1.7-2.2-3.7-3-5.7c-0.4-1.1-0.6-2.2-0.8-3.3c-0.1-0.7-0.3-1.5-0.3-2.2c-0.2-4.9,1.8-9,4.8-12.8
				c3.1-3.8,7-6.5,11.5-8.2c2-0.8,4.2-1.2,6.4-1c3.3,0.2,5.6,2.6,5.6,6c0.1,3.2-1.1,6.1-2.6,8.8c-2.2,4-4.9,7.7-7.7,11.4
				c-0.9,1.1-0.9,1.1,0,2.2c2.7,3.3,5.4,6.5,7.9,9.9c1.6,2.2,3,4.7,4.3,7.1c0.9,1.6,1.6,3.4,2,5.2c0.4,1.9,0.3,3.9,0.4,5.8
				c0,0.4-0.1,0.9-0.1,1.3c0,1.1,0,1,1,1c3.8-0.1,6.9-1.6,9.6-4.3c1.2-1.2,2.3-2.4,3.4-3.6c1-1.1,2.9-1.6,4.2-1.1
				c0.7,0.3,1.1,0.8,1.2,1.6c0.2,1.4-0.4,2.6-1.1,3.7c-1.9,2.9-4.2,5.5-6.8,7.8c-2.1,1.9-4.5,3.4-7.3,4.4c-2.2,0.8-4.4,1.1-6.7,1
				c-1,0-1.7,0.2-2.4,1c-2.8,3.2-6.2,5.5-10.3,6.8c-1.9,0.6-4,1-5.9,1.5c-2.6,0.7-5.2,0.6-7.8,0.4c-4.1-0.4-8-1.7-10.8-5.1
				c-2.1-2.6-2.1-6.4,0.1-8.9c1.8-2.2,4.1-3.5,6.8-4.4c1.7-0.6,3.5-0.9,5.3-1.3c3.7-0.9,7.6-0.7,11.4-0.6c1,0,2,0.2,3,0.3
				c0.8,0,0.9-0.2,0.6-0.9c-0.3-1-0.5-2-0.8-3c-0.9-2.5-2.4-4.8-4.1-6.9c-2-2.5-4-4.9-6-7.3c-0.6-0.7-0.8-0.7-1.3,0
				c-4,5.2-8,10.4-12,15.6c-4.7,6.2-10.1,11.6-16.6,15.8c-2.8,1.8-5.7,3.4-8.8,4.6c-2.1,0.8-4.3,1.6-6.5,2.2c-3,0.7-6,0.9-9.1,0.9
				c-4.8-0.1-9.1-1.5-13-4.2c-1.7-1.2-3-2.8-4.5-4.3c-0.5-0.5-0.8-0.7-1.5-0.4c-3.2,1.6-6.4,3.1-9.6,4.5c-2.4,1.1-4.9,2-7.3,2.9
				c-1.8,0.7-3.7,1.3-5.6,1.7c-1.9,0.3-3.8,0.3-5.7-0.1c-2.1-0.5-3.8-1.5-5.1-3.2c-1.1-1.4-1.8-2.9-2-4.7c-0.2-1.7-0.2-3.5-0.3-5.2
				c0-0.3-0.1-0.5-0.2-0.7c-0.2,0.1-0.5,0.2-0.6,0.3c-1.8,1.6-3.5,3.3-5.3,4.9c-3.6,3.2-7.6,6-12,7.9c-2.5,1-5.1,1.5-7.7,1.1
				c-2.2-0.3-4.1-1.5-5.6-3c-2.3-2.3-3.7-5.1-4.6-8.1c-0.6-2.1-1.1-4.2-1.4-6.4c-0.2-1.6-0.3-3.2-0.1-4.8c0.2-2.1,1.5-3.7,3-5.1
				c3.3-3,6.6-6,9.8-9.1c2.7-2.7,5.2-5.6,7.1-8.9c0.8-1.4,1.3-2.9,1.4-4.4c0.1-1.5-0.1-2.8-1.7-3.1c-0.7-0.1-1.6,0-2.2,0.4
				c-1.8,1.1-3.6,2.2-5.3,3.5c-4.8,3.9-8.8,8.7-12.5,13.7c-2.9,3.9-5.4,7.9-7.4,12.3c-0.7,1.5-1.1,3-1.6,4.6c-0.6,2-1.2,3.9-1.7,5.9
				c-0.4,1.8-1,3.5-1.9,5c-1.9,3.2-4.5,5.6-8,7c-1.3,0.5-2.7,0.6-4.1,0.4c-1.1-0.1-2.1-1.3-2.2-2.4c-0.1-1.7,0.1-3.4,0.6-5
				c0.6-1.8,1.1-3.7,1.6-5.5c0.2-0.7,0.4-1.5,0.6-2.2C265.5,264.1,265.4,264,265.3,264 M374.4,251.8c0.3,1.9,0.5,3.7,0.8,5.4
				c0.1,0.5,0.4,0.7,0.8,0.4c1.4-1,2.9-2,4.2-3.1c1.8-1.5,3.4-3.2,5.1-4.9c4.5-4.5,8.6-9.3,11.1-15.2c0.8-1.8,1.3-3.7,1.7-5.7
				c0.3-1.2,0.1-2.6,0-3.9c-0.2-2.6-2-4.4-4.6-4.6c-1.8-0.1-3.5,0.6-5,1.5c-3.6,2.2-6.1,5.5-8.2,9.1c-2.4,4.2-4.1,8.7-5,13.5
				C375,246.9,374.7,249.3,374.4,251.8 M291,217.6l0.2,0c0.1-0.1,0.2-0.3,0.3-0.4c1.6-2.7,3.3-5.4,4.9-8.1
				c4.2-7.2,7.8-14.6,10.8-22.4c1.4-3.8,2.6-7.6,3.6-11.5c0.6-2.6,1-5.2,1-7.8c0-1.3-0.1-2.7-0.3-4c-0.2-1.4-1.2-1.7-2.3-0.8
				c-0.3,0.2-0.5,0.5-0.7,0.7c-1.6,1.8-2.6,3.8-3.5,6c-1.4,3.3-2.8,6.7-4,10.1c-1.1,2.9-2,5.8-2.9,8.8c-0.7,2.2-1.2,4.4-1.8,6.7
				c-0.7,2.5-1.3,4.9-2,7.4c-0.5,2-0.9,4.1-1.4,6.2c-0.6,2.6-1.2,5.3-1.7,8C290.9,216.8,291,217.2,291,217.6 M182.4,236.4
				c-0.4-1.8-0.7-3.3-1-4.7c-0.4-1.8-1.1-3.4-2.1-4.9c-1-1.4-2.4-2.3-4.1-2.4c-1.8-0.1-3.4,0.5-4.8,1.9c-2,2-2.7,4.6-3.1,7.3
				c-0.2,1.3,0,2.7,0.1,4c0.1,1.2,0.2,2.4,0.6,3.6c0.8,2.8,2.1,5.4,3.8,7.8c1.9,2.6,4.1,4.9,6.9,6.7c0.4,0.3,0.7,0.2,0.9-0.2
				c0.3-0.7,0.6-1.4,0.8-2.1c0.4-1.6,0.9-3.1,1.2-4.7c0.3-1.4,0.6-2.8,0.7-4.3C182.3,241.5,182.3,238.8,182.4,236.4 M246.2,237.2
				c-0.2-1.2-0.4-2.6-0.6-3.9c-0.3-2.2-0.9-4.3-2-6.2c-1-1.7-2.3-3-4.3-3.3c-2.1-0.3-3.8,0.6-5.3,2.1c-1.5,1.6-2.3,3.5-2.6,5.6
				c-0.5,3.3-0.4,6.7,0.7,10c0.9,2.8,2.3,5.3,4,7.7c1.8,2.4,3.9,4.4,6.4,6.1c0.4,0.3,0.7,0.3,0.9-0.2c0.4-1.3,0.9-2.6,1.3-4
				c0.4-1.3,0.6-2.7,0.8-4c0.3-1.7,0.6-3.5,0.7-5.2C246.3,240.4,246.2,238.9,246.2,237.2 M445.8,265.5c-0.6-0.2-1-0.4-1.5-0.5
				c-1.8-0.4-3.6-0.7-5.4-1c-2.2-0.4-4.3-0.5-6.4,0.2c-1.1,0.4-1.9,1-2.3,2.2c-0.5,1.4,0.6,3.3,1.9,4c2.1,1.2,4.2,1.2,6.4,0.5
				c2.4-0.8,4.4-2.3,6.2-4.1C445.1,266.4,445.4,266,445.8,265.5 M443.7,207.6c-0.4,0.2-1.1,0.4-1.7,0.9c-4.5,3.2-4.5,8-1.9,12.2
				c0.3,0.4,0.6,0.5,0.9,0c0.3-0.4,0.6-0.8,0.8-1.3c1.7-2.8,3.5-5.5,4.1-8.8C446.2,209.1,445.5,207.6,443.7,207.6"/>
			<path class="st6" d="M355.6,200.3c-3.4-0.1-6-1.4-7.4-4.7c-0.8-1.9-0.7-3.9,0.1-5.8c1.7-4.1,4.8-6.7,9-8c2.6-0.8,5.2-0.7,7.6,0.8
				c1.9,1.2,3,3,3,5.3c0,5.6-3,9.1-7.7,11.5C358.7,200,357.2,200.4,355.6,200.3"/>
			<path class="st3" d="M319.6,139.2c2.6,0.5,3.5,2.5,4,4.8c0.6,2.8,0.5,5.6,0.4,8.4c-0.7,12.6-4.4,24.3-9.4,35.7
				c-6.3,14.2-14.6,27.2-24.3,39.3c-1.4,1.8-2.9,3.5-4.3,5.2c-0.3,0.4-0.5,0.8-0.7,1.3c-0.3,1.1-0.5,2.2-0.7,3.4
				c0.3-0.3,0.5-0.6,0.8-0.9c4.5-5.5,9.3-10.7,14.7-15.2c3.8-3.1,7.7-5.9,12.3-7.6c2.8-1.1,5.7-1.7,8.7-1.1c2.7,0.5,4.9,1.7,6,4.4
				c0.7,1.6,0.4,3.3,0.1,5c-0.7,3.9-2.4,7.4-4.7,10.6c-3.9,5.6-8.9,10.1-14.4,14.2c-1.7,1.3-3.6,2.5-5.4,3.7c-0.6,0.4-1,0.9-0.9,1.7
				c0.5,2.6,1,5.2,2.2,7.7c1.1,2.3,2.6,4,5.3,4.2c1.3,0.1,2.4-0.3,3.6-0.8c3.3-1.5,6.1-3.6,8.7-6.1c2.9-2.8,5.6-5.7,8.4-8.6
				c0.4-0.4,0.7-1,0.9-1.6c2.3-6,5.1-11.8,7.9-17.6c0.4-0.8,0.7-1.6,0.9-2.4c0.2-0.8-0.1-1.2-1-1.2c-0.6,0-1.2,0.2-1.8,0.1
				c-0.6,0-1.3-0.1-1.9-0.4c-0.9-0.4-1.2-1.2-1-2.2c0.3-1.3,1.1-2.3,1.9-3.2c2.8-2.9,6.3-4.8,10.1-6.2c2.7-1,5.6-1.7,8.5-1.8
				c0.8,0,1.5,0,2.3,0.1c1.8,0.3,2.9,1.6,2.6,3.4c-0.3,1.6-0.8,3.3-1.5,4.8c-2.5,5.6-5.1,11.2-7.6,16.9c-3.1,7.1-5.9,14.3-7.9,21.7
				c-0.3,1.1-0.4,2.3-0.4,3.4c0,1.2,0.6,2,1.9,2c1.7,0,3.5-0.1,5.2-0.4c4-0.7,7.9-1.9,11.7-3.3c0.1,0,0.2-0.1,0.2-0.1
				c-0.4-1.8-1-3.6-1.2-5.4c-0.5-3.8-0.2-7.5,0.7-11.2c2.7-11.5,9-20.7,19.1-26.9c5.1-3.1,10.6-4.7,16.6-5c3-0.1,6,0,8.8,1.1
				c6.8,2.6,9.8,9.1,7.4,16.1c-1.4,4.1-3.9,7.6-6.8,10.8c-5.9,6.5-12.8,11.6-20.6,15.5c-2.2,1.1-4.4,2.1-6.7,3.1
				c-0.2,0.1-0.3,0.2-0.5,0.3c1.2,1.5,2.7,2.6,4.4,3.4c3.2,1.5,6.6,1.8,10.1,1.3c7-0.8,13-4,18.5-8.3c4.6-3.5,8.3-7.9,11.9-12.4
				c3.1-3.8,6.1-7.7,9.1-11.5c0.3-0.4,0.3-0.7,0-1.1c-1.8-2.7-3.1-5.6-3.6-8.9c-0.6-3.9,0.3-7.6,2.2-11c3.8-6.7,9.4-11.2,16.7-13.4
				c1.7-0.5,3.5-0.7,5.3-0.3c2.9,0.6,4.4,2.4,4.6,5.3c0.2,2.6-0.6,5-1.6,7.3c-1.7,3.7-3.9,7.1-6.3,10.3c-1.2,1.6-2.4,3.1-3.6,4.7
				c1.2,1.5,2.5,3.1,3.7,4.6c3,3.7,5.8,7.5,7.8,11.8c1.5,3.2,2.4,6.5,2.2,10c-0.1,1.5-0.3,2.9-0.5,4.5c2,0,3.9-0.4,5.8-1.2
				c2.6-1.2,4.7-3.1,6.6-5.1c0.5-0.5,1-1.1,1.5-1.7c1-1.1,2.3-1.6,3.7-1.4c1.2,0.1,1.9,0.8,1.8,2c-0.1,0.9-0.3,1.8-0.7,2.6
				c-1,2.2-2.7,4-4.4,5.7c-2.9,3.1-6.1,5.9-10.1,7.5c-2.7,1.1-5.5,1.6-8.5,1.3c-0.2,0-0.6,0.1-0.7,0.2c-4.5,5-10.2,7.5-16.7,8.4
				c-4,0.6-8.1,0.7-12-0.8c-1.8-0.7-3.5-1.5-4.9-2.8c-3.6-3.2-3.5-7.7,0.1-10.8c2.6-2.2,5.6-3.4,8.9-4.2c5.5-1.3,11-1.2,16.6-0.7
				c0.2,0,0.4,0,0.7,0c0-1.4-0.4-2.8-0.9-4.1c-0.8-2.3-2.1-4.4-3.5-6.3c-2-2.6-4-5.1-6.1-7.7c-0.3,0.3-0.4,0.4-0.6,0.6
				c-4.5,5.5-9,11.1-13.6,16.5c-7.8,9.1-17.3,15.9-29,19.1c-5.5,1.5-11.1,1.9-16.7,0.5c-4.7-1.2-8.8-3.5-11.9-7.3
				c-0.4-0.5-0.8-0.6-1.4-0.3c-5.6,2.3-11.2,4.6-16.9,6.7c-2.1,0.8-4.4,1.3-6.6,1.6c-2.6,0.4-5.1,0-7.5-1.2
				c-2.9-1.5-4.3-4.1-4.8-7.3c-0.2-1.5-0.2-3-0.3-4.6c-0.2,0.2-0.4,0.4-0.6,0.5c-4.4,4.1-9,7.7-14.4,10.3c-2.1,1-4.3,1.8-6.6,2.1
				c-4.3,0.6-7.9-0.8-10.8-4c-2.6-2.8-4.1-6.2-5-9.9c-0.4-1.8-0.6-3.7-0.8-5.5c-0.2-2.1,0.6-3.8,2.2-5.2c1.9-1.7,4-3.3,6-5
				c3.6-3.1,7.2-6.2,10.1-10c1.2-1.6,2.3-3.3,2.7-5.3c0.3-1.2,0.5-2.5-0.7-3.4c-1.1-0.9-2.4-0.3-3.5,0.2c-2.6,1.3-4.9,3-7,4.9
				c-6.8,6-12.5,13-16.9,20.9c-1.6,2.8-2.2,5.9-3,9c-0.6,2.2-1,4.4-2.2,6.3c-2.3,3.6-5.5,6.1-9.8,7c-0.1,0-0.2,0-0.3,0.1
				c-3.5,0.5-5.4-1.5-4.6-4.9c0.6-2.8,1.4-5.5,2.2-8.2c0.1-0.3,0.2-0.6,0.3-1.1c-0.3,0.1-0.5,0.2-0.6,0.3c-6.2,3.9-12.9,5-20,3.2
				c-0.6-0.1-0.9,0-1.4,0.4c-4.9,4.4-10.4,7.7-16.9,9.4c-4.8,1.2-9.6,1.6-14.4-0.1c-5.9-2-9.6-6.2-11.5-12.1
				c-0.1-0.3-0.2-0.5-0.3-0.9c-0.2,0.1-0.4,0.2-0.6,0.3c-6.1,3.7-12.7,4.8-19.6,3c-0.6-0.1-0.9-0.1-1.4,0.3
				c-5.4,4.9-11.5,8.3-18.7,9.8c-5,1-9.9,1-14.6-1.3c-5.3-2.5-8.4-6.9-9.9-12.4c-1.5-5.4-1-10.9,0.5-16.2c2.7-9.8,8.4-17.7,16.3-24
				c0.9-0.7,2-1.3,3.1-1.9c0.9-0.5,1.8-0.2,2.6,0.5c1.4,1.3,1.5,3.6,0.2,5c-4.3,4.7-6.8,10.2-8.2,16.3c-0.9,3.9-1.1,7.8-0.5,11.7
				c0.5,3.3,1.5,6.4,3.4,9.1c3.4,4.8,8.3,6.1,13.6,3.7c2.1-1,3.9-2.3,5.5-3.9c-1.4-1.1-2.8-2.1-4.2-3.2
				c-11.6-10.1-12.7-26.1-5.4-37.2c2.5-3.7,5.9-6.3,10.4-7.1c5.3-0.9,9.9,0.6,13.7,4.3c3.9,3.7,5.8,8.3,6.4,13.6
				c0.8,8.6-1.7,16.4-6.3,23.6c-0.1,0.2-0.3,0.4-0.5,0.7c0.2,0.1,0.4,0.2,0.6,0.2c4.1,0.3,8.1-0.2,11.8-2.4c0.4-0.3,0.6-0.5,0.7-1.1
				c1-13.1,7.3-23.4,17.3-31.6c1-0.8,2.2-1.5,3.4-2.1c1-0.5,2-0.3,2.8,0.5c1.3,1.3,1.4,3.4,0.1,4.9c-4.8,5.3-7.5,11.7-8.6,18.7
				c-0.7,4.6-0.5,9.2,1,13.7c0.7,2.3,1.8,4.4,3.5,6.2c3,3.2,6.5,4.2,10.7,3c2.9-0.9,5.2-2.5,7.4-4.6c-0.2-0.2-0.3-0.3-0.5-0.4
				c-6.7-4.3-11.2-10.3-13-18.1c-1.8-8-0.5-15.5,4.2-22.3c5.9-8.5,17.4-9.4,24.6-1.5c3.5,3.9,5.2,8.5,5.6,13.6
				c0.5,8.2-1.9,15.7-6.3,22.5c-0.2,0.3-0.4,0.6-0.6,0.9c0.3,0.1,0.5,0.1,0.7,0.2c5.9,0.6,11-1.1,15.3-5.1c1.1-1,1.9-2.2,2.3-3.7
				c3.7-13.4,7.4-26.9,11.2-40.3c3.7-13,8.7-25.4,15.1-37.3c3.7-6.8,7.7-13.4,12.6-19.4c1.8-2.2,3.8-4.2,5.8-6.1
				c1.7-1.7,3.8-3,6.3-3.4H319.6z M375.5,254.2c0.4-0.2,0.7-0.4,0.9-0.5c1.8-1.1,3.5-2.3,5.1-3.8c1.5-1.4,3.1-2.6,4.6-4
				c4-3.7,7.6-7.8,10.2-12.7c1.6-3,2.7-6.1,2.4-9.6c-0.3-3.2-2.5-5-5.6-4.5c-2.7,0.4-5,1.7-6.8,3.5c-7.7,7.6-11.3,17-11.2,27.8
				C375,251.7,375.3,252.9,375.5,254.2 M289.3,216.2c0.2-0.1,0.2-0.1,0.2-0.1c0.2-0.3,0.4-0.5,0.6-0.8c4.1-6.2,7.7-12.7,10.9-19.4
				c3.7-8,6.8-16.2,7.8-25.1c0.3-2.5,0.4-5.1,0-7.7c-0.1-0.8-0.2-1.8-1.1-2c-0.9-0.2-1.5,0.6-1.9,1.3c-0.9,1.4-1.8,2.8-2.5,4.3
				c-3.3,7-5.6,14.4-7.7,21.8c-2.3,8-4,16.1-5.6,24.2C289.8,213.9,289.5,215,289.3,216.2 M176.9,251.2c0.1-0.2,0.2-0.4,0.3-0.6
				c2.4-6.7,3-13.6,1.3-20.5c-0.5-2.3-1.4-4.4-2.9-6.2c-1.4-1.6-3.2-2.3-5.4-1.9c-2.3,0.4-3.8,1.9-4.7,3.9
				c-1.7,3.8-1.5,7.6-0.2,11.5c2,5.9,6,10.3,11.2,13.6C176.6,251.1,176.8,251.1,176.9,251.2 M241.5,251.3c0.1-0.3,0.2-0.6,0.3-0.8
				c2-5.7,2.7-11.6,1.8-17.6c-0.4-2.9-1.1-5.7-2.9-8.2c-2.8-3.9-7.8-3.7-10.3,0.4c-1.5,2.6-1.8,5.4-1.5,8.3
				c0.4,3.8,1.9,7.1,4.1,10.1C235.4,246.7,238.2,249.2,241.5,251.3 M444.6,262.3c-0.6-0.2-0.8-0.2-1.1-0.3c-2.9-0.7-5.8-1.4-8.8-1.4
				c-1.3,0-2.5,0.2-3.6,0.9c-1.6,1-1.9,2.7-0.8,4.1c0.8,1,1.9,1.5,3.2,1.7c2.9,0.5,5.4-0.6,7.7-2.2
				C442.3,264.3,443.4,263.3,444.6,262.3 M441.6,218.4c0.1-0.1,0.2-0.1,0.2-0.2c1.9-2.7,3.6-5.5,4.7-8.6c0.4-1.1,0.6-2.2,0.4-3.3
				c-0.2-1-0.9-1.5-1.9-1.1c-0.7,0.2-1.3,0.5-1.9,1C439,209.3,438.7,213.9,441.6,218.4"/>
			<path class="st3" d="M359.9,180.7c2.5,0.1,5.1,0.9,6.7,3.5c1.5,2.4,1.5,5,0.4,7.5c-2.2,4.9-5.9,7.8-11.3,8.3
				c-3.9,0.3-7.5-1.9-8.6-5.3c-0.7-2.3-0.3-4.5,0.7-6.6C349.9,183.8,354.8,180.7,359.9,180.7"/>
			<path class="st5" d="M199.3,213.1c-1.3,0-2.4-0.3-3.1-0.6c-2.2-0.8-3.8-2.1-4.8-3.9c-1.1-2-1.2-4.4-0.3-6.7
				c-0.1-0.1-0.1-0.2-0.2-0.4c-0.9-1.8-1.8-3.6-2.8-5.2c-1.4-2.3-2.7-4.1-4.1-5.6c-0.6,0.1-1.2,0.2-1.8,0.2c-0.8,0-1.5-0.1-2.3-0.3
				c-4.1-1.1-6.7-5.1-6.2-9.4c0.5-4,4.1-7.2,8.2-7.3l0.2,0c2.8,0,5.3,1.3,6.9,3.5c1.6,0.2,3.1,0.6,4.7,1.1c-0.1-0.5-0.3-1-0.5-1.4
				c-0.6-1.9-1.4-3.6-2.4-5.3c-3.4-0.2-6.5-2.3-7.6-5.4c-1.2-3.3-0.2-7.3,2.5-9.6c1.6-1.4,3.7-2.2,5.9-2.2c1.5,0,3,0.4,4.3,1.2
				c2,1.2,3.4,3.1,3.9,5.3c2.5,1.2,4.8,2.6,7,4c2.1,1.4,4.2,3.1,6.2,4.9c0.1-0.7,0.3-1.4,0.4-2.1c0.2-0.8,0.3-1.6,0.5-2.4
				c0.1-0.7,0.3-1.4,0.4-2.2c0.1-0.5,0.2-0.9,0.3-1.4c-1.6-1.1-2.8-2.5-3.7-4.2c-1.4-2.8-1.5-5.9-0.4-9c1.5-4.3,5.8-7.2,10.5-7.2
				c0.6,0,1.2,0,1.9,0.1c2.5,0.4,4.8,1.6,6.7,3.4c2.2,2.2,3.4,5.2,3.3,8.3c-0.1,2.3-0.9,4.4-2.3,6.1c0,0,0,0.1,0,0.1
				c1,1.9,2,3.8,3,5.7c0.6-1.3,1.2-2.5,1.8-3.6c1.9-3.7,4.3-7,6.3-9.7c0.1-0.2,0.3-0.4,0.4-0.6c-0.1-0.5-0.1-1-0.2-1.5
				c-0.1-4.1,3.1-7.5,7.3-7.8c0.2,0,0.5,0,0.7,0c2.2,0,4.3,0.7,6,2.1c3.2,2.6,4,7,1.9,10.5c-0.8,1.4-2,2.5-3.5,3.2
				c-0.1,2-0.2,4-0.2,6.1c0,0.5,0,1,0,1.6c0.7-0.6,1.5-1.1,2.3-1.7c0.3-1.5,1-2.9,2.1-4.1c1.6-1.7,3.7-2.7,5.9-2.7
				c2.2,0,4.3,1,5.9,2.7c1.8,2,2.6,4.7,2.3,7.4c-0.4,2.7-1.9,5-4.1,6.4c-0.7,0.4-1.4,0.7-2.1,0.9c-0.6,1.6-1.1,3.2-1.6,4.9
				c-0.4,1.4-0.9,2.8-1.4,4.8c-0.2,0.7-0.3,1.5-0.5,2.3c-0.1,0.3-0.1,0.7-0.2,1c-0.1,0.5-0.2,0.9-0.3,1.4c-0.1,0.5-0.2,1.1-0.3,1.6
				c1.2,2.3,1.3,5,0.1,7.6c0,0-0.1,0.1-0.1,0.2c-1.4,3-3.5,4.5-6.4,4.5c-0.6,0-1.2-0.1-1.7-0.2v0c0,0-0.1,0-0.3,0l-1.2,0
				c-0.6,0-1.2,0-1.8,0c-0.6,0-1.3,0-1.9,0c-0.7,0-5.7,0.2-6.1,0.3c-0.5,0.1-3.4,0.3-4.7,0.4l-0.4,0c-1.1,0.1-2.2,0.2-3.2,0.4
				c-1.3,0.2-2.6,0.4-3.9,0.7l-1.3,0.2c-0.8,0.2-1.6,0.3-2.4,0.5l-1.6,0.4c-2,0.4-3.8,0.8-5.7,1.3l-0.5,0.1c-3.1,0.8-6,1.6-8.8,2.5
				c-2.4,0.8-4.8,1.8-7.3,2.9l-0.6,0.2C201.4,212.8,200.4,213.1,199.3,213.1"/>
			<path class="st6" d="M201,188.4c0-0.3,0.1-0.6,0.1-0.8c-0.4-4.2-1.3-8.4-2.6-12.4c-1-2.9-2.3-5.6-3.9-8.1
				c-0.1-0.1-0.2-0.3-0.3-0.4c-0.8-1-0.8-1-2.1-0.6c-1.3,0.5-3.2-0.4-3.7-1.7c-0.5-1.2,0-2.8,1-3.6c1-0.9,2.7-1.1,3.8-0.4
				c1.1,0.7,1.6,1.9,1.3,3.3c-0.2,0.8-0.1,0.8,0.6,1.1c3,1.3,5.9,2.9,8.6,4.7c3.4,2.3,6.4,5.1,9.2,8.1c0.7,0.7,1.2,1.5,1.8,2.3
				c0.2,0.3,0.5,0.7,0.8,1c0.1,0.1,0.3,0.3,0.5,0.3c0.1,0,0.2-0.3,0.3-0.4c0.4-1.8,0.8-3.7,1.2-5.5c0.4-2.1,0.9-4.2,1.3-6.3
				c0.3-1.5,0.6-3.1,0.9-4.6c0.3-1.4,0.6-2.9,0.9-4.3c0.1-0.3,0.1-0.5,0.1-0.8c0.1-0.4-0.2-0.7-0.6-0.9c-0.2-0.1-0.5-0.1-0.7-0.2
				c-3.3-1.1-4.9-4.4-3.7-7.7c0.8-2.4,3.4-4,6.4-3.5c1.5,0.2,2.7,0.9,3.8,1.9c2.2,2.2,2.3,5.8-0.5,8.1c-0.3,0.3-0.7,0.5-1,0.7
				c-0.5,0.3-0.5,0.5-0.3,1c1.9,3.6,3.8,7.2,5.7,10.8c1,1.9,1.9,3.8,2.8,5.7c0.3,0.7,0.7,1.3,1,2c0.1,0.2,0.3,0.3,0.5,0.7
				c0.2-0.5,0.4-0.8,0.5-1.1c0.6-1.5,1.1-3.1,1.8-4.6c1.3-2.7,2.5-5.4,3.9-8.1c1.7-3.2,3.7-6.1,5.8-9c0.6-0.8,1.3-1.6,1.9-2.3
				c0.5-0.6,0.5-0.7,0.1-1.3c-0.4-0.5-0.6-1.1-0.6-1.8c0-1.2,1-2.2,2.2-2.3c1.1-0.1,2,0.2,2.9,0.9c1.1,0.9,1.4,2.4,0.7,3.6
				c-0.4,0.7-1,1.1-1.8,1.2c-0.3,0-0.7,0-1,0c-0.6-0.1-0.7,0-0.9,0.6c-0.2,1.1-0.5,2.2-0.5,3.3c-0.2,2.3-0.3,4.6-0.3,7
				c0,2.8,0.1,5.6,0.2,8.4c0,1.3,0.1,2.7,0.2,4c0.1,0.9,0.3,1.7,0.4,2.8c0.3-0.3,0.5-0.5,0.6-0.7c0.8-1.3,1.6-2.5,2.5-3.8
				c1.3-1.8,2.8-3.3,4.5-4.7c1.2-1,2.5-1.8,3.8-2.7c0.5-0.3,0.7-0.6,0.6-1.2c-0.1-1,0.2-1.9,0.8-2.6c1.2-1.3,2.7-1.3,3.9,0
				c1.5,1.6,1.1,4.3-0.7,5.4c-0.7,0.4-1.5,0.5-2.3,0.1c-0.7-0.3-0.8-0.3-1.1,0.4c-1,2.7-1.9,5.5-2.8,8.2c-0.5,1.7-1,3.4-1.4,5.1
				c-0.3,1.2-0.5,2.4-0.7,3.6c-0.3,1.4-0.5,2.8-0.8,4.2c-0.1,0.7-0.1,1.2,0.4,1.8c0.9,1,0.9,2.2,0.3,3.5c0,0,0,0.1-0.1,0.1
				c-0.6,1.4-0.9,1.5-2.4,1.3c-0.4-0.1-0.7-0.1-1.1-0.1c-1.7,0-3.4,0-5.1,0c-1.3,0-2.5,0.1-3.7,0.2c-0.1,0-2.7,0.1-4,0.2
				c-1.2,0.1-6,0.6-7.3,0.8c-1.7,0.3-3.3,0.6-5,0.9c-1,0.2-2,0.3-2.9,0.6c-2.5,0.6-5,1.1-7.5,1.7c-3.2,0.8-6.5,1.7-9.7,2.7
				c-2.8,0.9-5.5,2.1-8.3,3.3c-0.8,0.4-1.5,0.2-2.3-0.1c-0.8-0.3-1.5-0.7-1.9-1.4c-0.4-0.8-0.3-1.6,0.1-2.4c0.2-0.4,0.5-0.7,0.7-1.1
				c0.2-0.3,0.2-0.5,0.1-0.9c-1.4-2.7-2.7-5.6-4.3-8.2c-1.6-2.7-3.5-5.2-5.8-7.5c-0.5-0.5-0.9-1-1.3-1.5c-0.7-0.7-0.7-0.7-1.3,0
				c-0.8,0.9-1.8,1.2-2.9,0.8c-1.5-0.4-2.4-1.8-2.2-3.5c0.2-1.3,1.5-2.5,2.9-2.5c1.2,0,2.8,0.7,3.1,2.5c0.1,0.5,0.3,0.7,0.8,0.7
				c3,0.1,5.8,0.8,8.6,1.9c2.1,0.9,4.1,2,5.8,3.5C200.5,188.1,200.7,188.2,201,188.4"/>
			<path class="st3" d="M186,181.4c-0.3,0.3-0.5,0.6-0.7,0.9c-1.1,1-2.7,1.1-3.9,0.2c-1.3-1-1.7-2.6-1-3.9c0.6-1.1,2-1.9,3.1-1.8
				c1.4,0.2,2.6,1.2,2.9,2.6c0.1,0.5,0.3,0.6,0.8,0.6c3.1,0.1,6,0.9,8.8,2.1c1.9,0.8,3.5,1.9,5,3.2c0.1,0.1,0.2,0.2,0.3,0.2
				c0,0,0.1,0,0.2,0c0-0.2,0-0.4-0.1-0.6c-0.3-2.4-0.8-4.7-1.4-7c-0.7-3-1.7-5.8-3.1-8.6c-0.8-1.7-1.7-3.3-2.9-4.8
				c-0.3-0.4-0.6-0.5-1-0.3c-1.3,0.6-2.6,0.2-3.5-0.8c-0.9-1-1.1-2.3-0.5-3.5c0.6-1.2,2-1.9,3.3-1.8c1.3,0.2,3.1,1.7,2.6,3.8
				c-0.2,0.7-0.1,0.7,0.5,1c2.9,1.4,5.7,3,8.3,4.9c4,2.8,7.5,6.1,10.5,9.9c0.3,0.4,0.6,0.7,1,1.2c0.1-0.6,0.3-1,0.3-1.5
				c0.4-2.4,0.7-4.8,1.1-7.2c0.2-1.4,0.5-2.8,0.7-4.2c0.2-1.2,0.4-2.5,0.6-3.7c0.2-1,0.3-1.9,0.5-2.9c0.2-0.8,0.1-1-0.7-1.3
				c-1.6-0.5-2.8-1.6-3.6-3.1c-0.9-1.9-0.8-3.7,0.3-5.4c1.2-1.9,2.9-2.9,5.2-2.9c2.2,0,4.5,1.6,5.2,3.7c1.1,2.9,0.2,5.5-2.5,7.2
				c-0.7,0.5-0.8,0.5-0.4,1.2c2.1,3.8,4.1,7.5,6.2,11.3c1,1.7,2,3.3,3,5c0.1,0.2,0.3,0.5,0.6,0.8c0.2-0.5,0.3-0.7,0.3-1
				c0.9-3.2,2.2-6.3,3.8-9.2c0.9-1.6,1.8-3.3,2.8-4.8c1.8-2.6,3.6-5.1,5.9-7.4c0.5-0.5,0.5-0.5,0.2-1c-1-1.8-0.1-3.6,1.6-4.5
				c1-0.5,2.6-0.1,3.4,0.8c0.9,1,1.2,2.1,0.7,3.3c-0.5,1.3-1.6,2-3,2c-0.4,0-0.7,0-1.2,0c-0.2,0.7-0.4,1.5-0.5,2.2
				c-0.7,3.7-0.8,7.4-0.4,11.1c0.3,2.4,0.6,4.8,1,7.2c0.1,0.7,0.4,1.5,0.6,2.3c0.2-0.2,0.3-0.4,0.4-0.5c1.6-3.1,3.9-5.6,6.8-7.6
				c1.1-0.8,2.3-1.5,3.5-2.2c0.3-0.2,0.4-0.4,0.4-0.8c-0.2-1.6,0.9-3,2.4-3.4c1.4-0.4,3,0.4,3.7,1.8c0.6,1.3,0.2,2.6-0.7,3.4
				c-1,1-2.3,1.2-3.5,0.6c-0.1,0-0.2-0.1-0.4-0.2c-0.3,0.7-0.6,1.3-0.8,2c-0.7,2.1-1.4,4.3-2,6.5c-0.4,1.6-0.6,3.2-0.9,4.8
				c-0.2,1-0.3,2-0.4,3c-0.1,0.7-0.1,1.5-0.1,2.2c0,0.1,0,0.2,0,0.3c-0.3,0.9,0.1,1.4,0.7,2c0.9,0.9,1,2,0.5,3.2c0,0,0,0,0,0.1
				c-0.6,1.4-0.8,1.6-2.4,1.3c-0.2,0-0.5-0.1-0.7-0.1c-2.2,0-4.4-0.1-6.6,0c-1.7,0-3.5,0.2-5.2,0.4c-1.2,0.1-2.5,0.2-3.7,0.3
				c-1.8,0.2-3.6,0.5-5.4,0.8c-2.1,0.3-4.2,0.7-6.3,1.1c-1.7,0.3-3.3,0.7-5,1.2c-2,0.5-4,1.1-6,1.7c-2,0.6-4,1.2-5.9,1.9
				c-2.9,1.1-5.8,2.2-8.7,3.4c-0.5,0.2-1,0.3-1.5,0c-0.6-0.3-1.3-0.5-1.9-0.9c-1-0.7-1.2-2-0.5-3.1c0.2-0.3,0.5-0.7,0.7-1
				c0.2-0.3,0.2-0.5,0.1-0.8c-1.2-2.5-2.4-4.9-3.9-7.2c-1.8-2.9-3.8-5.6-6.2-8.1C187.2,182.8,186.7,182.1,186,181.4"/>
			<g>
				<g>
					<polygon class="st5" points="222.6,312.2 216.9,310.3 211.9,313.5 212.2,307.4 207.3,303.8 213.2,302.1 215.2,296.4 
						218.6,301.5 224.7,301.6 220.9,306.3 					"/>
					<polygon class="st5" points="203.8,314 199.1,312.7 195,315.3 195.1,310.5 191.1,307.8 196,306.4 197.6,301.9 200.4,305.8 
						205.5,305.7 202.3,309.5 					"/>
					<polygon class="st5" points="187.2,314.3 183.7,313 180.4,314.6 180.9,311 178.1,308.7 181.8,308 183.4,304.7 185.2,307.9 
						189,308.2 186.4,310.8 					"/>
					<polygon class="st5" points="173,314.2 170.4,312.5 167.5,313.3 168.5,310.6 166.6,308.2 169.7,308.3 171.5,305.9 172.4,308.7 
						175.4,309.6 172.9,311.3 					"/>
					<polygon class="st5" points="161,311.1 159.1,309.5 156.7,309.8 157.8,307.7 156.6,305.5 159.1,306 160.8,304.3 161.2,306.7 
						163.5,307.7 161.3,308.8 					"/>
				</g>
				<g>
					<path class="st5" d="M231.2,300.4l4.2-0.6c0.5-0.1,1-0.1,1.5,0c0.5,0.1,0.9,0.2,1.3,0.5c0.4,0.2,0.7,0.5,0.9,0.9
						c0.2,0.4,0.4,0.9,0.5,1.4c0.1,0.5,0.1,0.9,0,1.3c-0.1,0.4-0.2,0.7-0.5,1c-0.2,0.3-0.5,0.6-0.9,0.7c-0.4,0.2-0.8,0.3-1.2,0.4
						l-1.7,0.3l0.4,2.8l-3.2,0.5L231.2,300.4z M235.1,304l0.3,0c0.1,0,0.3-0.1,0.4-0.1c0.1,0,0.3-0.1,0.4-0.2
						c0.1-0.1,0.2-0.2,0.2-0.3c0.1-0.1,0.1-0.3,0-0.5c0-0.2-0.1-0.3-0.2-0.4c-0.1-0.1-0.2-0.2-0.3-0.2c-0.1,0-0.3,0-0.4,0
						c-0.1,0-0.3,0-0.4,0l-0.3,0L235.1,304z"/>
					<path class="st5" d="M240.2,298.5l4.2-0.6c0.5-0.1,1.1-0.1,1.6,0c0.5,0.1,1,0.2,1.4,0.4c0.4,0.2,0.7,0.5,1,0.9
						c0.3,0.4,0.4,0.9,0.5,1.5c0,0.4,0.1,0.7,0,1c0,0.3-0.1,0.5-0.2,0.7c-0.1,0.2-0.3,0.4-0.5,0.6c-0.2,0.2-0.5,0.3-0.8,0.5l0,0.1
						c0.1,0.1,0.2,0.1,0.3,0.2c0.1,0.1,0.2,0.2,0.3,0.3l2.5,2.9l-4.1,0.5l-2-2.9l-0.1,0l0.4,3.1l-3.4,0.5L240.2,298.5z M244.2,302.4
						l0.2,0c0.1,0,0.3,0,0.4-0.1c0.1,0,0.3-0.1,0.4-0.2c0.1-0.1,0.2-0.2,0.2-0.3c0-0.1,0.1-0.3,0-0.4c0-0.2-0.1-0.3-0.1-0.4
						c-0.1-0.1-0.2-0.2-0.3-0.2s-0.2-0.1-0.4-0.1c-0.1,0-0.3,0-0.4,0l-0.3,0L244.2,302.4z"/>
					<path class="st5" d="M249.9,296.8l6.8-0.8l0.3,2.8l-3.1,0.4l0.1,1l2.8-0.4l0.3,2.6l-2.8,0.4l0.1,1l3.2-0.4l0.3,2.8l-6.9,0.9
						L249.9,296.8z"/>
					<path class="st5" d="M259.7,295l4-0.4l2.1,5.4l0.1,0c0-0.2,0-0.5,0-0.7c0-0.2,0-0.5,0.1-0.7l0.7-4.3l3.9-0.4l2.9,10.5l-3.7,0.4
						l-1.2-5.8l-0.1,0c0,0.2,0,0.4-0.1,0.5c0,0.2,0,0.4-0.1,0.5l-1,4.9l-2.3,0.2l-1.9-4.4c-0.1-0.2-0.2-0.4-0.2-0.6
						c-0.1-0.2-0.1-0.4-0.2-0.7l-0.1,0c0,0.2,0,0.4,0,0.6c0,0.2,0,0.4,0,0.6l0,4.6l-3.7,0.4L259.7,295z"/>
					<path class="st5" d="M273.9,293.1l4.1-0.4l1,11.2l-4.1,0.4L273.9,293.1z"/>
					<path class="st5" d="M290.7,291.1l0.5,6.9c0.1,0.9,0,1.6-0.2,2.2c-0.2,0.6-0.5,1.2-1,1.6c-0.4,0.4-1,0.8-1.6,1
						s-1.4,0.4-2.2,0.5c-0.8,0.1-1.6,0-2.2-0.1c-0.7-0.1-1.3-0.4-1.8-0.8c-0.5-0.4-0.9-0.9-1.2-1.5c-0.3-0.6-0.5-1.3-0.6-2.2
						l-0.5-6.9l4.2-0.3l0.5,6.5c0,0.2,0,0.4,0.1,0.6c0,0.2,0.1,0.4,0.2,0.5c0.1,0.2,0.2,0.3,0.4,0.4c0.2,0.1,0.4,0.1,0.7,0.1
						c0.3,0,0.5-0.1,0.6-0.2c0.2-0.1,0.3-0.2,0.3-0.4c0.1-0.2,0.1-0.4,0.1-0.6c0-0.2,0-0.4,0-0.7l-0.5-6.5L290.7,291.1z"/>
					<path class="st5" d="M294.3,290.4l4.6-0.2l2,6.3l0.1,0c0-0.3,0.1-0.5,0.1-0.8c0-0.3,0.1-0.5,0.1-0.8l1.1-4.8l4.5-0.2l2.6,12.1
						l-4.3,0.2l-0.9-6.6l-0.1,0c0,0.2-0.1,0.4-0.1,0.6c0,0.2-0.1,0.4-0.1,0.6l-1.5,5.5l-2.6,0.1l-1.8-5.1c-0.1-0.3-0.1-0.5-0.2-0.8
						c-0.1-0.2-0.1-0.5-0.1-0.8l-0.1,0c0,0.2,0,0.5,0,0.7c0,0.2,0,0.5,0,0.7l-0.3,5.2l-4.3,0.2L294.3,290.4z"/>
					<path class="st5" d="M317.2,289.6l4.5,0.1c1,0,2,0.2,2.8,0.4c0.9,0.3,1.6,0.6,2.3,1.2c0.6,0.5,1.1,1.2,1.5,2
						c0.4,0.8,0.5,1.8,0.5,2.9c0,0.9-0.2,1.7-0.5,2.4c-0.3,0.7-0.8,1.3-1.3,1.8c-0.6,0.5-1.2,0.9-2,1.1c-0.8,0.3-1.6,0.4-2.5,0.4
						l-5.6-0.1L317.2,289.6z M321.5,298.2l0.3,0c0.4,0,0.7,0,1-0.1c0.3-0.1,0.6-0.2,0.8-0.4c0.2-0.2,0.4-0.4,0.6-0.7
						c0.1-0.3,0.2-0.6,0.2-1c0-0.9-0.2-1.5-0.7-1.9c-0.5-0.4-1.1-0.6-1.9-0.6l-0.3,0L321.5,298.2z"/>
					<path class="st5" d="M331.2,289.5l8.5,0.8l-0.3,3.4l-3.9-0.4l-0.1,1.2l3.5,0.3l-0.3,3.3l-3.5-0.3l-0.1,1.2l4,0.4l-0.3,3.4
						l-8.6-0.8L331.2,289.5z"/>
					<path class="st5" d="M341.8,298.8l0.2,0.2c0.4,0.4,0.8,0.7,1.2,1c0.4,0.3,0.9,0.5,1.5,0.5c0.1,0,0.2,0,0.4,0
						c0.1,0,0.3,0,0.4-0.1c0.1,0,0.2-0.1,0.3-0.2c0.1-0.1,0.1-0.2,0.2-0.3c0-0.1,0-0.3-0.1-0.4c-0.1-0.1-0.1-0.2-0.2-0.2
						c-0.1-0.1-0.2-0.1-0.3-0.1c-0.1,0-0.2-0.1-0.3-0.1l-0.9-0.3c-0.4-0.1-0.8-0.3-1.2-0.5c-0.4-0.2-0.7-0.5-1-0.8
						c-0.3-0.3-0.5-0.7-0.6-1.1c-0.1-0.4-0.1-0.8-0.1-1.3c0.1-0.7,0.3-1.4,0.7-1.9c0.4-0.5,0.9-1,1.4-1.3c0.6-0.3,1.2-0.5,1.9-0.7
						c0.7-0.1,1.4-0.1,2,0c1.4,0.2,2.7,0.7,3.8,1.6l-1.7,3c-0.4-0.3-0.7-0.6-1.2-0.8c-0.4-0.2-0.9-0.4-1.4-0.5c-0.1,0-0.2,0-0.3,0
						c-0.1,0-0.2,0-0.3,0.1c-0.1,0-0.2,0.1-0.3,0.2c-0.1,0.1-0.1,0.2-0.1,0.3c0,0.1,0,0.2,0.1,0.3c0.1,0.1,0.1,0.1,0.2,0.2
						c0.1,0.1,0.2,0.1,0.3,0.1c0.1,0,0.2,0.1,0.3,0.1l1,0.4c0.5,0.2,0.9,0.4,1.3,0.6c0.4,0.2,0.7,0.5,1,0.9c0.3,0.3,0.4,0.7,0.6,1.1
						s0.1,0.9,0.1,1.4c-0.1,0.8-0.3,1.4-0.7,1.9c-0.4,0.5-0.9,0.9-1.4,1.2c-0.6,0.3-1.2,0.5-1.9,0.6c-0.7,0.1-1.4,0.1-2,0
						c-0.8-0.1-1.6-0.3-2.4-0.6c-0.8-0.3-1.6-0.7-2.2-1.2L341.8,298.8z"/>
					<path class="st5" d="M353,300.2l0.2,0.2c0.4,0.4,0.8,0.8,1.2,1.1c0.5,0.3,1,0.5,1.5,0.6c0.1,0,0.2,0,0.4,0c0.1,0,0.3,0,0.4-0.1
						c0.1,0,0.2-0.1,0.3-0.2c0.1-0.1,0.2-0.2,0.2-0.3c0-0.1,0-0.3,0-0.4c-0.1-0.1-0.1-0.2-0.2-0.2c-0.1-0.1-0.2-0.1-0.3-0.2
						c-0.1,0-0.2-0.1-0.3-0.1l-0.9-0.3c-0.4-0.2-0.9-0.4-1.2-0.6c-0.4-0.3-0.7-0.5-1-0.9c-0.3-0.3-0.4-0.7-0.6-1.1
						c-0.1-0.4-0.1-0.9,0-1.4c0.1-0.8,0.4-1.4,0.8-2c0.4-0.5,0.9-1,1.5-1.3c0.6-0.3,1.3-0.5,2-0.6c0.7-0.1,1.4-0.1,2.1,0.1
						c1.5,0.3,2.8,0.9,3.9,1.9l-1.9,3.1c-0.4-0.3-0.7-0.7-1.2-0.9c-0.4-0.3-0.9-0.5-1.4-0.5c-0.1,0-0.2,0-0.3,0
						c-0.1,0-0.2,0-0.3,0.1c-0.1,0-0.2,0.1-0.3,0.2c-0.1,0.1-0.1,0.2-0.2,0.3c0,0.1,0,0.2,0,0.3c0.1,0.1,0.1,0.2,0.2,0.2
						c0.1,0.1,0.2,0.1,0.3,0.2c0.1,0,0.2,0.1,0.3,0.1l1,0.4c0.5,0.2,0.9,0.4,1.3,0.7c0.4,0.3,0.7,0.6,1,0.9c0.3,0.4,0.4,0.7,0.5,1.2
						c0.1,0.4,0.1,0.9,0,1.5c-0.1,0.8-0.4,1.4-0.8,1.9c-0.4,0.5-0.9,0.9-1.5,1.2c-0.6,0.3-1.2,0.5-2,0.5c-0.7,0.1-1.4,0-2.1-0.1
						c-0.8-0.1-1.7-0.4-2.5-0.8c-0.8-0.4-1.6-0.8-2.3-1.3L353,300.2z"/>
					<path class="st5" d="M365.7,293.4l8.9,2.1l-0.8,3.6l-4.1-0.9l-0.3,1.3l3.7,0.9l-0.8,3.5l-3.7-0.9l-0.3,1.3l4.2,1l-0.8,3.6
						l-9.1-2.1L365.7,293.4z"/>
					<path class="st5" d="M377.7,295.7l5.9,1.8c0.8,0.2,1.5,0.5,2.1,0.9c0.6,0.4,1.1,0.8,1.6,1.4c0.4,0.5,0.7,1.1,0.8,1.8
						c0.1,0.7,0.1,1.5-0.2,2.3c-0.2,0.5-0.3,0.9-0.6,1.3c-0.2,0.3-0.5,0.6-0.8,0.8c-0.3,0.2-0.6,0.4-1,0.5c-0.4,0.1-0.8,0.1-1.3,0.2
						l0,0.1c0.1,0.1,0.2,0.3,0.3,0.4c0.1,0.2,0.2,0.4,0.3,0.6l1.6,5.3l-5.7-1.7l-0.9-5l-0.1,0l-1.3,4.3l-4.8-1.4L377.7,295.7z
						 M380.7,303.2l0.3,0.1c0.2,0.1,0.4,0.1,0.6,0.1c0.2,0,0.4,0,0.6,0c0.2,0,0.3-0.1,0.5-0.2c0.1-0.1,0.2-0.3,0.3-0.6
						c0.1-0.3,0.1-0.5,0.1-0.7c0-0.2-0.1-0.3-0.2-0.5c-0.1-0.1-0.3-0.2-0.5-0.3c-0.2-0.1-0.4-0.2-0.6-0.2l-0.4-0.1L380.7,303.2z"/>
					<path class="st5" d="M391.7,299.9l9.9,4.3l-1.8,4.2l-2.5-1.3l-3.9,8.9l-4.7-2.1l3.9-8.9l-2.6-1L391.7,299.9z"/>
					<path class="st5" d="M400,313.7l0.1,0.3c0.2,0.5,0.5,1,0.9,1.5c0.4,0.5,0.8,0.8,1.3,1.1c0.1,0.1,0.2,0.1,0.4,0.2
						c0.2,0.1,0.3,0.1,0.4,0.1c0.1,0,0.3,0,0.4-0.1c0.1-0.1,0.2-0.2,0.3-0.3c0.1-0.1,0.1-0.3,0.1-0.4c0-0.1-0.1-0.2-0.1-0.3
						c-0.1-0.1-0.2-0.2-0.3-0.3c-0.1-0.1-0.2-0.2-0.3-0.2l-0.8-0.6c-0.4-0.3-0.8-0.7-1.1-1c-0.3-0.4-0.5-0.8-0.7-1.2
						c-0.2-0.4-0.2-0.9-0.2-1.4c0-0.5,0.2-0.9,0.4-1.4c0.4-0.7,0.9-1.3,1.5-1.7c0.6-0.4,1.3-0.7,2-0.8c0.7-0.1,1.5-0.1,2.2,0
						c0.8,0.1,1.5,0.4,2.2,0.7c1.4,0.8,2.6,1.8,3.4,3.2l-2.9,2.6c-0.2-0.5-0.5-0.9-0.9-1.3c-0.3-0.4-0.8-0.7-1.3-1
						c-0.1-0.1-0.2-0.1-0.3-0.1c-0.1,0-0.3-0.1-0.4-0.1c-0.1,0-0.2,0-0.3,0.1c-0.1,0-0.2,0.1-0.3,0.3c-0.1,0.1-0.1,0.2-0.1,0.3
						c0,0.1,0.1,0.2,0.1,0.3c0.1,0.1,0.2,0.2,0.2,0.3c0.1,0.1,0.2,0.2,0.3,0.2l0.9,0.8c0.4,0.4,0.8,0.7,1.1,1.1
						c0.3,0.4,0.5,0.8,0.7,1.3c0.1,0.4,0.2,0.9,0.2,1.4c0,0.5-0.2,1-0.5,1.5c-0.4,0.8-0.9,1.3-1.5,1.7c-0.6,0.4-1.3,0.6-2,0.8
						c-0.7,0.1-1.4,0.1-2.2-0.1c-0.7-0.2-1.5-0.4-2.1-0.8c-0.8-0.4-1.6-1-2.3-1.6c-0.7-0.7-1.4-1.3-1.9-2.1L400,313.7z"/>
				</g>
			</g>
		</g>
	</g>
</g>
</svg>
