<svg xmlns="http://www.w3.org/2000/svg" viewBox="1943 2441.3 194.103 183.481">
  <defs>
    <style>
      .cls-1 {
        fill: #d70778;
      }
    </style>
  </defs>
  <g id="satisfaction" transform="translate(1943 2427.291)">
    <g id="Group_20" data-name="Group 20" transform="translate(49.364 14.009)">
      <g id="Group_19" data-name="Group 19" transform="translate(0 0)">
        <path id="Path_48" data-name="Path 48" class="cls-1" d="M177.9,14.009A47.689,47.689,0,1,0,225.588,61.7,47.743,47.743,0,0,0,177.9,14.009Zm0,88.938A41.249,41.249,0,1,1,219.148,61.7,41.3,41.3,0,0,1,177.9,102.947Z" transform="translate(-130.211 -14.009)"/>
      </g>
    </g>
    <g id="Group_22" data-name="Group 22" transform="translate(98.726 102.113)">
      <g id="Group_21" data-name="Group 21">
        <path id="Path_49" data-name="Path 49" class="cls-1" d="M308.106,246.407A47.689,47.689,0,1,0,355.794,294.1,47.742,47.742,0,0,0,308.106,246.407Zm0,88.938A41.249,41.249,0,1,1,349.355,294.1,41.3,41.3,0,0,1,308.106,335.345Z" transform="translate(-260.417 -246.407)"/>
      </g>
    </g>
    <g id="Group_24" data-name="Group 24" transform="translate(0 102.113)">
      <g id="Group_23" data-name="Group 23">
        <path id="Path_50" data-name="Path 50" class="cls-1" d="M47.689,246.407A47.689,47.689,0,1,0,95.377,294.1,47.743,47.743,0,0,0,47.689,246.407Zm0,88.938A41.249,41.249,0,1,1,88.938,294.1,41.3,41.3,0,0,1,47.689,335.345Z" transform="translate(0 -246.407)"/>
      </g>
    </g>
    <g id="Group_26" data-name="Group 26" transform="translate(80.576 72.2)">
      <g id="Group_25" data-name="Group 25" transform="translate(0 0)">
        <path id="Path_51" data-name="Path 51" class="cls-1" d="M244.553,168.446a3.221,3.221,0,0,0-4.555,0,15.545,15.545,0,0,1-21.96,0A3.22,3.22,0,0,0,213.484,173a21.993,21.993,0,0,0,31.068,0A3.219,3.219,0,0,0,244.553,168.446Z" transform="translate(-212.541 -167.503)"/>
      </g>
    </g>
    <g id="Group_28" data-name="Group 28" transform="translate(31.211 158.153)">
      <g id="Group_27" data-name="Group 27">
        <path id="Path_52" data-name="Path 52" class="cls-1" d="M114.34,400.652a21.993,21.993,0,0,0-31.068,0,3.22,3.22,0,0,0,4.554,4.553,15.546,15.546,0,0,1,21.961,0,3.22,3.22,0,1,0,4.554-4.553Z" transform="translate(-82.328 -394.228)"/>
      </g>
    </g>
    <g id="Group_30" data-name="Group 30" transform="translate(129.938 160.888)">
      <g id="Group_29" data-name="Group 29">
        <path id="Path_53" data-name="Path 53" class="cls-1" d="M372.48,401.443H345.966a3.22,3.22,0,0,0,0,6.44H372.48a3.22,3.22,0,0,0,0-6.44Z" transform="translate(-342.746 -401.443)"/>
      </g>
    </g>
    <g id="Group_32" data-name="Group 32" transform="translate(160.518 138.663)">
      <g id="Group_31" data-name="Group 31">
        <circle id="Ellipse_12" data-name="Ellipse 12" class="cls-1" cx="3.22" cy="3.22" r="3.22"/>
      </g>
    </g>
    <g id="Group_34" data-name="Group 34" transform="translate(125.873 138.663)">
      <g id="Group_33" data-name="Group 33">
        <circle id="Ellipse_13" data-name="Ellipse 13" class="cls-1" cx="3.22" cy="3.22" r="3.22"/>
      </g>
    </g>
    <g id="Group_36" data-name="Group 36" transform="translate(61.79 138.663)">
      <g id="Group_35" data-name="Group 35">
        <circle id="Ellipse_14" data-name="Ellipse 14" class="cls-1" cx="3.22" cy="3.22" r="3.22"/>
      </g>
    </g>
    <g id="Group_38" data-name="Group 38" transform="translate(27.145 138.663)">
      <g id="Group_37" data-name="Group 37">
        <circle id="Ellipse_15" data-name="Ellipse 15" class="cls-1" cx="3.22" cy="3.22" r="3.22"/>
      </g>
    </g>
    <g id="Group_40" data-name="Group 40" transform="translate(76.512 47.314)">
      <g id="Group_39" data-name="Group 39" transform="translate(0 0)">
        <circle id="Ellipse_16" data-name="Ellipse 16" class="cls-1" cx="3.22" cy="3.22" r="3.22"/>
      </g>
    </g>
    <g id="Group_42" data-name="Group 42" transform="translate(111.157 47.314)">
      <g id="Group_41" data-name="Group 41" transform="translate(0 0)">
        <circle id="Ellipse_17" data-name="Ellipse 17" class="cls-1" cx="3.22" cy="3.22" r="3.22"/>
      </g>
    </g>
  </g>
</svg>
