<svg xmlns="http://www.w3.org/2000/svg" viewBox="1042.268 280.6 167.466 109.891">
  <defs>
    <style>
      .cls-1 {
        fill: #ededee;
      }

      .cls-2 {
        fill: #dddcdf;
      }

      .cls-3 {
        fill: #786145;
      }

      .cls-4 {
        fill: #50412e;
      }

      .cls-5 {
        fill: #f6f6f6;
      }

      .cls-6 {
        fill: #ea348b;
      }

      .cls-7 {
        fill: #b02768;
      }
    </style>
  </defs>
  <g id="Group_17" data-name="Group 17" transform="translate(106 -103)">
    <g id="Group_16" data-name="Group 16" transform="translate(249 351)">
      <rect id="XMLID_226_" class="cls-1" width="8.545" height="24.762" transform="translate(762.71 115.856)"/>
      <path id="XMLID_227_" class="cls-2" d="M-.05,0,8.532,0V24.767H-.05Z" transform="translate(771.268 115.852)"/>
      <path id="XMLID_235_" class="cls-3" d="M106.335,230h-28.5c0,5.97-2.244,10.81-7.169,10.81s-8.917-4.84-8.917-10.81H35v21.62h71.335Z" transform="translate(665.664 -149.196)"/>
      <path id="XMLID_236_" class="cls-4" d="M0,.035,70.261-.111l-.108,21.681L0,21.515Z" transform="translate(771.139 80.915)"/>
      <path id="XMLID_239_" class="cls-1" d="M133.99,350H115v10.518h37.979V350Z" transform="translate(619.238 -218.027)"/>
      <rect id="Rectangle_7" data-name="Rectangle 7" class="cls-5" width="140.736" height="26.251" transform="translate(700.664 54.554)"/>
      <path id="XMLID_242_" class="cls-6" d="M61.343,195.26c0,6.249,4.482,9.6,9.332,9.6s8.23-3.349,8.23-9.6V172.63h26.343V150H96.468L36.439,166.619,35,172.63H61.343Z" transform="translate(665.944 -110.962)"/>
      <path id="Rectangle_5" data-name="Rectangle 5" class="cls-7" d="M0,0H65.905a5,5,0,0,1,5,5V35.026a0,0,0,0,1,0,0H0a0,0,0,0,1,0,0V0A0,0,0,0,1,0,0Z" transform="translate(770.495 32.6)"/>
      <path id="Rectangle_6" data-name="Rectangle 6" class="cls-6" d="M5,0H70.905a0,0,0,0,1,0,0V35.026a0,0,0,0,1,0,0H0a0,0,0,0,1,0,0V5A5,5,0,0,1,5,0Z" transform="translate(700.664 32.6)"/>
      <path id="Path_37" data-name="Path 37" class="cls-1" d="M85.662-.1.6-.009V10.3c0,2.508,2.471,4.54,5.52,4.54l79.542-.045Z" transform="translate(686.668 102.524)"/>
      <path id="XMLID_240_" class="cls-2" d="M195,360.518h37.073V350H195Z" transform="translate(576.198 -218.027)"/>
      <path id="Path_36" data-name="Path 36" class="cls-2" d="M.6-.1l83.6.091V10.3c0,2.508-2.429,4.54-5.425,4.54L.6,14.792Z" transform="translate(770.536 102.524)"/>
    </g>
  </g>
</svg>
