<svg xmlns="http://www.w3.org/2000/svg" viewBox="-993.5 628.01 103.838 112.991">
  <defs>
    <style>
      .cls-1 {
        fill: #ededee;
      }

      .cls-2 {
        fill: #d70778;
      }

      .cls-3 {
        fill: #a10c5d;
      }

      .cls-4 {
        fill: #dddcdf;
      }

      .cls-5 {
        fill: none;
        stroke: #a10c5d;
        stroke-width: 5px;
      }
    </style>
  </defs>
  <g id="_005-coffee-cup-1" data-name="005-coffee-cup-1" transform="translate(-1003.744 628.01)">
    <g id="Group_44" data-name="Group 44" transform="translate(51.742 0)">
      <path id="Path_191" data-name="Path 191" class="cls-1" d="M386.766,225.921h9.6v-7.369h-9.6a3.147,3.147,0,0,1-3.026-2.24L377.3,195.195a3.164,3.164,0,0,1,3.026-4.087h12v-7.369h-12a10.532,10.532,0,0,0-10.074,13.607l6.445,21.117A10.476,10.476,0,0,0,386.766,225.921Z" transform="translate(-411.276 -143.191)"/>
      <path id="Path_192" data-name="Path 192" class="cls-2" d="M165.042,23.735h-7.369a10.589,10.589,0,0,1,1.624-5.79,3.362,3.362,0,0,0,.646-2.121A3.368,3.368,0,0,0,159.3,13.7a10.585,10.585,0,0,1-1.624-5.79,10.59,10.59,0,0,1,1.624-5.79A3.367,3.367,0,0,0,159.943,0h7.369a10.588,10.588,0,0,1-1.624,5.79,3.367,3.367,0,0,0-.646,2.122,3.368,3.368,0,0,0,.646,2.122,10.585,10.585,0,0,1,1.624,5.79,10.589,10.589,0,0,1-1.624,5.79A3.365,3.365,0,0,0,165.042,23.735Z" transform="translate(-157.673 0)"/>
    </g>
    <path id="Path_193" data-name="Path 193" class="cls-3" d="M267.92,23.736h-7.369a10.583,10.583,0,0,1,1.624-5.79,3.365,3.365,0,0,0,.646-2.121,3.367,3.367,0,0,0-.646-2.122,10.583,10.583,0,0,1-1.624-5.79,10.584,10.584,0,0,1,1.624-5.79A3.367,3.367,0,0,0,262.821,0h7.369a10.585,10.585,0,0,1-1.624,5.79,3.366,3.366,0,0,0-.646,2.122,3.367,3.367,0,0,0,.646,2.122,10.583,10.583,0,0,1,1.624,5.79,10.583,10.583,0,0,1-1.624,5.79A3.366,3.366,0,0,0,267.92,23.736Z" transform="translate(-186.106 -0.001)"/>
    <path id="Path_194" data-name="Path 194" class="cls-1" d="M126.745,213.72H67.483l-8.269-72.036h75.8Z" transform="translate(-29.201 -110.416)"/>
    <g id="Group_45" data-name="Group 45" transform="translate(21.744 31.268)">
      <path id="Path_195" data-name="Path 195" class="cls-4" d="M260.726,213.72H231.135V141.684h37.86Z" transform="translate(-184.926 -141.684)"/>
      <path id="Path_196" data-name="Path 196" class="cls-2" d="M101.505,467.586H34.322a12.577,12.577,0,0,1-12.577-12.577h92.338A12.577,12.577,0,0,1,101.505,467.586Z" transform="translate(-21.745 -385.863)"/>
    </g>
    <path id="Path_197" data-name="Path 197" class="cls-3" d="M101.5,467.586H67.953V455.009h46.129A12.577,12.577,0,0,1,101.5,467.586Z" transform="translate(0 -354.595)"/>
    <line id="Line_13" data-name="Line 13" class="cls-5" y2="33.99" transform="translate(58.01 31.49)"/>
    <path id="Path_198" data-name="Path 198" class="cls-2" d="M-985.6,1009.159V994.1l8.3-4,7.3,4v15.063h-15.6Z" transform="translate(1035.744 -933.21)"/>
  </g>
</svg>
