<?xml version="1.0" encoding="iso-8859-1"?>
<svg xmlns="http://www.w3.org/2000/svg" xmlns:xlink="http://www.w3.org/1999/xlink" version="1.1" viewBox="0 0 19.5 19.5" enable-background="new 0 0 19.5 19.5" width="512px" height="512px">
  <g fill-rule="evenodd">
    <path d="M9.75,0C4.374,0,0,4.374,0,9.75c0,5.376,4.374,9.75,9.75,9.75   c5.376,0,9.75-4.374,9.75-9.75C19.5,4.374,15.126,0,9.75,0z M9.75,18C5.201,18,1.5,14.299,1.5,9.75c0-4.549,3.701-8.25,8.25-8.25   C14.299,1.5,18,5.201,18,9.75C18,14.299,14.299,18,9.75,18z" fill="#d70778"/>
    <path d="m10.5,9.387v-5.079c0-0.414-0.336-0.75-0.75-0.75-0.414,0-0.75,0.335-0.75,0.75v5.442c0,0.229 0.105,0.446 0.285,0.589l4.471,3.53c0.138,0.108 0.302,0.161 0.464,0.161 0.222,0 0.441-0.098 0.59-0.285 0.257-0.325 0.201-0.797-0.124-1.054l-4.186-3.304z" fill="#d70778"/>
  </g>
</svg>
