<svg xmlns="http://www.w3.org/2000/svg" viewBox="-847 628.01 103.394 112.991">
  <defs>
    <style>
      .cls-1 {
        fill: #cccccf;
      }

      .cls-2 {
        fill: #d70778;
      }

      .cls-3 {
        fill: #a10c5d;
      }

      .cls-4 {
        fill: #ededee;
      }

      .cls-5 {
        fill: #dddcdf;
      }
    </style>
  </defs>
  <g id="_005-coffee-cup-1" data-name="005-coffee-cup-1" transform="translate(-868.744 628.01)">
    <g id="Group_42" data-name="Group 42" transform="translate(51.742 0)">
      <path id="Path_183" data-name="Path 183" class="cls-1" d="M379.381,225.921h-9.6v-7.369h9.6a3.146,3.146,0,0,0,3.026-2.24l6.444-21.117a3.163,3.163,0,0,0-3.026-4.087h-12v-7.369h12A10.532,10.532,0,0,1,395.9,197.346l-6.444,21.117A10.475,10.475,0,0,1,379.381,225.921Z" transform="translate(-322.97 -143.191)"/>
      <path id="Path_184" data-name="Path 184" class="cls-2" d="M165.042,23.735h-7.369a10.589,10.589,0,0,1,1.624-5.79,3.362,3.362,0,0,0,.646-2.121A3.368,3.368,0,0,0,159.3,13.7a10.585,10.585,0,0,1-1.624-5.79,10.59,10.59,0,0,1,1.624-5.79A3.367,3.367,0,0,0,159.943,0h7.369a10.588,10.588,0,0,1-1.624,5.79,3.367,3.367,0,0,0-.646,2.122,3.368,3.368,0,0,0,.646,2.122,10.585,10.585,0,0,1,1.624,5.79,10.589,10.589,0,0,1-1.624,5.79A3.365,3.365,0,0,0,165.042,23.735Z" transform="translate(-157.673 0)"/>
    </g>
    <path id="Path_185" data-name="Path 185" class="cls-3" d="M267.92,23.736h-7.369a10.583,10.583,0,0,1,1.624-5.79,3.365,3.365,0,0,0,.646-2.121,3.367,3.367,0,0,0-.646-2.122,10.583,10.583,0,0,1-1.624-5.79,10.584,10.584,0,0,1,1.624-5.79A3.367,3.367,0,0,0,262.821,0h7.369a10.585,10.585,0,0,1-1.624,5.79,3.366,3.366,0,0,0-.646,2.122,3.367,3.367,0,0,0,.646,2.122,10.583,10.583,0,0,1,1.624,5.79,10.583,10.583,0,0,1-1.624,5.79A3.366,3.366,0,0,0,267.92,23.736Z" transform="translate(-186.106 -0.001)"/>
    <path id="Path_186" data-name="Path 186" class="cls-4" d="M126.745,213.72H67.483l-8.269-72.036h75.8Z" transform="translate(-29.201 -110.416)"/>
    <g id="Group_43" data-name="Group 43" transform="translate(21.744 31.268)">
      <path id="Path_187" data-name="Path 187" class="cls-5" d="M260.726,213.72H231.135V141.684h37.86Z" transform="translate(-184.926 -141.684)"/>
      <path id="Path_188" data-name="Path 188" class="cls-2" d="M101.505,467.586H34.322a12.577,12.577,0,0,1-12.577-12.577h92.338A12.577,12.577,0,0,1,101.505,467.586Z" transform="translate(-21.745 -385.863)"/>
    </g>
    <path id="Path_189" data-name="Path 189" class="cls-3" d="M101.5,467.586H67.953V455.009h46.129A12.577,12.577,0,0,1,101.5,467.586Z" transform="translate(0 -354.595)"/>
    <ellipse id="Ellipse_5" data-name="Ellipse 5" class="cls-2" cx="18.01" cy="13.689" rx="18.01" ry="13.689" transform="translate(45.497 67.337) rotate(-45)"/>
    <path id="Path_190" data-name="Path 190" class="cls-3" d="M196.655,237.756c-4.2,4.175-5.946,2.473-10.172,6.7-4.245,4.245-2.508,5.982-6.753,10.227-4.227,4.227-5.968,2.525-10.173,6.7a10.516,10.516,0,0,0,.814.921c5.346,5.346,15.381,3.978,22.414-3.055C199.434,252.6,201.016,243.273,196.655,237.756Z" transform="translate(-115.193 -185.287)"/>
  </g>
</svg>
