<svg id="Group_368" data-name="Group 368" xmlns="http://www.w3.org/2000/svg" viewBox="-1421.5 623.136 101.879 155.365">
  <defs>
    <style>
      .cls-1 {
        fill: #d70778;
        stroke: #a10c5d;
      }

      .cls-2 {
        fill: #ededee;
        stroke: #ededee;
      }

      .cls-3 {
        fill: #dddcdf;
      }
    </style>
  </defs>
  <g id="_008-ice-cream-1" data-name="008-ice-cream-1" transform="translate(-1472.454 623.636)">
    <path id="Path_199" data-name="Path 199" class="cls-1" d="M83.251,91.113A10.5,10.5,0,0,0,93.742,80.623V75.035a3.762,3.762,0,0,1,4.292-3.725,27.515,27.515,0,0,0,3.861.272,25.4,25.4,0,0,0,13.394-3.663,3.763,3.763,0,0,1,4.113.068,20.954,20.954,0,0,0,11.789,3.6,21.145,21.145,0,0,0,4.275-41.853,3.763,3.763,0,0,1-2.966-3.16,30.912,30.912,0,0,0-61.211,0,3.763,3.763,0,0,1-2.966,3.16,21.147,21.147,0,0,0-.288,41.358,3.762,3.762,0,0,1,2.951,3.674v5.862A10.5,10.5,0,0,0,81.476,91.113Z"/>
    <path id="Path_200" data-name="Path 200" class="cls-2" d="M155.082,148.85a28.471,28.471,0,0,1-13.966-3.629,33.1,33.1,0,0,1-15.958,3.624v1.522a18.035,18.035,0,0,1-18.015,18.015h-1.775a17.968,17.968,0,0,1-4.164-.491L120.747,220.6a5.375,5.375,0,0,0,10.079,0l26.64-71.858C156.68,148.808,155.886,148.85,155.082,148.85Z" transform="translate(-23.893 -69.743)"/>
  </g>
  <path id="Path_201" data-name="Path 201" class="cls-3" d="M-1370.561,778l15.361-79.1a21.727,21.727,0,0,0,16.1,4c.1.2-26.4,71.5-26.4,71.5s-1.7,2.6-2.8,3.1A6.159,6.159,0,0,1-1370.561,778Z"/>
</svg>
