<svg xmlns="http://www.w3.org/2000/svg" viewBox="357.896 -141.297 122.104 128.009">
  <defs>
    <style>
      .cls-1, .cls-2 {
        fill: #d70778;
        stroke: #d70778;
      }

      .cls-1 {
        stroke-width: 3px;
      }

      .cls-2 {
        stroke-width: 4px;
      }
    </style>
  </defs>
  <g id="Group_7" data-name="Group 7" transform="translate(359.896 -139.297)">
    <g id="_001-placeholder" data-name="001-placeholder" transform="translate(0 0)">
      <path id="Path_17" data-name="Path 17" class="cls-1" d="M36.779,39.558A13.779,13.779,0,1,0,23,25.779,13.8,13.8,0,0,0,36.779,39.558Zm0-23.621a9.842,9.842,0,1,1-9.842,9.842A9.853,9.853,0,0,1,36.779,15.937Z" transform="translate(22.273 11.621)"/>
      <path id="Path_18" data-name="Path 18" class="cls-2" d="M48.394,107.783l30.2-43.614a35.99,35.99,0,0,0,4.335-7.635c6.24-14.648,3.375-34.262-7.84-45.476a37.744,37.744,0,0,0-53.383,0C8.508,24.249,6.871,49.068,18.152,64.109ZM24.486,13.84a33.811,33.811,0,0,1,47.816,0c11.909,11.907,13.375,34.323,3.1,48.027l-27,39L21.346,61.808C11.111,48.163,12.579,25.747,24.486,13.84Z" transform="translate(10.309)"/>
      <path id="Path_19" data-name="Path 19" class="cls-2" d="M82.9,43.015a1.968,1.968,0,1,0-.461,3.909c20.7,2.437,31.725,9,31.725,12.808,0,5.342-20.967,12.795-55.115,12.795S3.937,65.074,3.937,59.732c0-3.8,11.025-10.371,31.725-12.808a1.968,1.968,0,0,0-.461-3.909C14.476,45.455,0,52.329,0,59.732c0,8.314,20.284,16.731,59.052,16.731S118.1,68.047,118.1,59.732C118.1,52.329,103.628,45.455,82.9,43.015Z" transform="translate(0 47.545)"/>
    </g>
  </g>
</svg>
