<svg id="Group_369" data-name="Group 369" xmlns="http://www.w3.org/2000/svg" viewBox="-1276.5 611.1 92.2 165.3">
  <defs>
    <style>
      .cls-1 {
        fill: #dddcdf;
      }

      .cls-2, .cls-5 {
        fill: #ededee;
      }

      .cls-3, .cls-6 {
        fill: #d70778;
      }

      .cls-3 {
        stroke: #a10c5d;
      }

      .cls-4 {
        fill: none;
      }

      .cls-4, .cls-5 {
        stroke: #ededee;
        stroke-width: 6px;
      }
    </style>
  </defs>
  <path id="Path_205" data-name="Path 205" class="cls-1" d="M-1240.6,753.3v-79h30.2l-17.7,77.5Z"/>
  <g id="Group_47" data-name="Group 47" transform="translate(46 -299)">
    <path id="Path_202" data-name="Path 202" class="cls-2" d="M-1257.7,967.7c-1.287-3.707-.646-12.527-.646-12.527L-1257.3,937s-.025-6.95,3.4-11,6.47-5,10.3-5.2c4.56-.237,11.2,0,11.2,0a2.955,2.955,0,0,1,3.1,3.1,3.443,3.443,0,0,1-3.1,3.5h-10.1a9.912,9.912,0,0,0-5.6,2.8c-1.29,1.286-2.263,3.861-2.5,7.1-.6,8.2-3.3,32.6-3.3,32.6S-1256.413,971.407-1257.7,967.7Z" transform="translate(-1 1)"/>
    <path id="milkshake-with-straw" class="cls-3" d="M167.048,48.7c-1.745-4.207-7.6-6-7.581-6.128a11.744,11.744,0,0,0-5.948-16.207,10.722,10.722,0,0,0,1.13-4.8V20.293A20.316,20.316,0,0,0,134.357,0H130.4a3.446,3.446,0,0,0,0,6.893h2.011a2.912,2.912,0,0,1,0,5.824h-8.238a9.8,9.8,0,0,0-8.962,13.776,11.74,11.74,0,0,0-5.66,16.08A11.746,11.746,0,0,0,102.8,59.845c-.058.064.053-.069,0,0a10.033,10.033,0,0,1,2.5,4.124c15.191-.065,63.424,0,63.424,0V60s-2.294-.359-2.279-.6C166.548,59.3,168.793,52.907,167.048,48.7Z" transform="translate(-1423.148 910.6)"/>
    <g id="Group_46" data-name="Group 46" transform="translate(-1316.535 972.817)">
      <path id="Path_203" data-name="Path 203" class="cls-4" d="M147.52,71.734H86.964l17.022,74.126a5.855,5.855,0,0,0,4.838,5.12,64.855,64.855,0,0,0,9.147.731s5.766.133,8.749-.731,3.712-5.12,3.712-5.12Z" transform="translate(-86.964 -71.734)"/>
    </g>
    <path id="Path_204" data-name="Path 204" class="cls-5" d="M15.561,16.8H14.52a4.57,4.57,0,0,1,4.718,4.513l10.41,9.369a4.684,4.684,0,0,1-4.684,4.684H5.184A4.684,4.684,0,0,1,.5,30.682l10.41-9.369A4.512,4.512,0,0,1,15.561,16.8Z" transform="translate(-1300.753 1037.034)"/>
  </g>
  <path id="Path_206" data-name="Path 206" class="cls-2" d="M-1250.2,753.3l10.6,1.7V672.6h-29.1l14.7,72.2Z"/>
  <circle id="Ellipse_6" data-name="Ellipse 6" class="cls-6" cx="15.5" cy="15.5" r="15.5" transform="translate(-1255 689)"/>
</svg>
