<svg xmlns="http://www.w3.org/2000/svg" viewBox="4259.8 5238.375 171.4 171.401">
  <defs>
    <style>
      .cls-1 {
        fill: #fff;
      }

      .cls-2 {
        fill: #d70778;
      }

      .cls-3, .cls-5 {
        fill: none;
      }

      .cls-3 {
        stroke: #fff;
        stroke-width: 4px;
      }

      .cls-4 {
        stroke: none;
      }
    </style>
  </defs>
  <g id="Group_325" data-name="Group 325" transform="translate(3927 5048)">
    <g id="Group_324" data-name="Group 324" transform="translate(366.8 354.883) rotate(-25)">
      <g id="_007-waffle" data-name="007-waffle" transform="translate(15.674 -114.063)">
        <path id="Path_1004" data-name="Path 1004" class="cls-1" d="M57.252,0A57.252,57.252,0,1,0,114.5,57.252,57.318,57.318,0,0,0,57.252,0Zm0,110.435a53.183,53.183,0,1,1,53.183-53.183A53.243,53.243,0,0,1,57.252,110.435Z" transform="translate(7.236 7.236)"/>
        <path id="Path_1005" data-name="Path 1005" class="cls-2" d="M110.089,18.888a64.489,64.489,0,0,0-91.2,91.2,64.489,64.489,0,0,0,91.2-91.2Z" transform="translate(0 0)"/>
      </g>
    </g>
    <g id="Group_323" data-name="Group 323" transform="translate(332.8 244.883) rotate(-25)">
      <g id="_007-waffle-2" data-name="007-waffle" transform="translate(0 0)">
        <path id="Path_1001" data-name="Path 1001" class="cls-1" d="M57.252,0A57.252,57.252,0,1,0,114.5,57.252,57.318,57.318,0,0,0,57.252,0Zm0,110.435a53.183,53.183,0,1,1,53.183-53.183A53.243,53.243,0,0,1,57.252,110.435Z" transform="translate(7.236 7.236)"/>
        <path id="Path_1002" data-name="Path 1002" class="cls-1" d="M110.089,18.888a64.489,64.489,0,0,0-91.2,91.2,64.489,64.489,0,0,0,91.2-91.2Zm-45.6,106.674C31.173,125.562,4.07,97.8,4.07,64.489A60.487,60.487,0,0,1,64.488,4.07c33.315,0,61.369,27.7,61.369,61.012S97.8,125.562,64.488,125.562Z" transform="translate(0 0)"/>
        <path id="Path_1003" data-name="Path 1003" class="cls-1" d="M102.59,44.323a2.035,2.035,0,0,0-3.454-1.156l-.915.916-8.1-8.1-5.887-5.981-.789-.485,7.79-7.914A2.884,2.884,0,0,0,91,18.521c-1.534-1.73-4.656-6.3-7.905-6.744a2.919,2.919,0,0,0-2.4.473l-7.071,6.937L59.009,4.87l.913-.913A2.035,2.035,0,0,0,58.766.5,52.158,52.158,0,0,0,44.325.5a2.035,2.035,0,0,0-1.156,3.454l.915.915L29.44,19.559l-7.549-7.225a2.669,2.669,0,0,0-2.783-.447c-2.023,1.091-6.362,5.437-7.634,7.311a3.092,3.092,0,0,0-.737,1.636,2.035,2.035,0,0,0,.59,1.6l7.666,7.572,1.437-1.481-7.463,7.462-8.1,8.1-.915-.915A2.035,2.035,0,0,0,.5,44.323a52.079,52.079,0,0,0,0,14.444,2.035,2.035,0,0,0,3.454,1.156l.915-.915,8.1,8.1,6.138,6.327-.112.38-7.508,7.51c-.663,1.782-.095,1.876.242,3.084,1.272,1.536,3.879,5.321,8.326,7.214a3.041,3.041,0,0,0,2.6-.475l6.7-6.752L44.084,98.219l-.915.916a2.035,2.035,0,0,0,1.156,3.454,51.929,51.929,0,0,0,14.442,0,2.035,2.035,0,0,0,1.156-3.454l-.913-.913,8.1-8.1,5.8-5.844,1.063-1.152,7.511,7.511c.011.01.023.02.276.2.508.477,1.717.282,2.809-.444,3.054-1.818,6.219-5.893,7.312-7.918a2.035,2.035,0,0,0-.352-2.4l-6.878-7.241L98.221,59.007l.915.916a2.035,2.035,0,0,0,3.454-1.156,52.12,52.12,0,0,0,0-14.444Zm-3.642,9.906a2.036,2.036,0,0,0-2.167.462l-16.454,16.7a2.035,2.035,0,0,0,0,2.878l.409.409,6.433,6.244s.643.587-1.456,2.978-3.085,2.131-3.085,2.131l-7.222-7.223a2.036,2.036,0,0,0-2.878,0l-3.94,4.03c-.382.382-2.129,2.172-2.923,2.966L54.693,96.779a2.035,2.035,0,0,0-.462,2.166,47.646,47.646,0,0,1-5.368,0,2.036,2.036,0,0,0-.462-2.167L30.785,80.073a2.036,2.036,0,0,0-2.878,0l-6.962,7a14.216,14.216,0,0,1-2.933-1.892,13.843,13.843,0,0,1-2.176-2.554l7.474-7.379a2.035,2.035,0,0,0,0-2.878L21.87,70.249l-4.585-4.585L6.312,54.691a2.035,2.035,0,0,0-2.167-.462q-.075-1.342-.075-2.684t.075-2.684A2.035,2.035,0,0,0,6.312,48.4L17.285,37.426l4.585-4.585,1.441-1.4a2.034,2.034,0,0,0,0-2.878l-7.474-7.435A8.867,8.867,0,0,1,18.2,18.105c1.929-1.789,2.491-1.632,2.491-1.632L28,23.876a2.035,2.035,0,0,0,2.878,0L48.4,6.31a2.035,2.035,0,0,0,.462-2.167,47.649,47.649,0,0,1,5.368,0,2.035,2.035,0,0,0,.462,2.165L72.178,23.5a2.035,2.035,0,0,0,2.878,0l7.421-7.286a10.719,10.719,0,0,1,2.613,1.7,10.53,10.53,0,0,1,1.868,2.474l-7.826,7.691a2.035,2.035,0,0,0,0,2.878l2.091,1.882,4.585,4.585L96.781,48.4a2.036,2.036,0,0,0,2.167.462q.075,1.342.075,2.684T98.948,54.229Z" transform="translate(12.942 12.944)"/>
      </g>
      <g id="Rectangle_156" data-name="Rectangle 156" class="cls-3" transform="translate(22.482 64.235) rotate(-45)">
        <rect class="cls-4" width="26.828" height="26.828" rx="4"/>
        <rect class="cls-5" x="2" y="2" width="22.828" height="22.828" rx="2"/>
      </g>
      <g id="Rectangle_157" data-name="Rectangle 157" class="cls-3" transform="translate(45.187 86.941) rotate(-45)">
        <rect class="cls-4" width="26.828" height="26.828" rx="4"/>
        <rect class="cls-5" x="2" y="2" width="22.828" height="22.828" rx="2"/>
      </g>
      <g id="Rectangle_158" data-name="Rectangle 158" class="cls-3" transform="translate(45.333 41.384) rotate(-45)">
        <rect class="cls-4" width="26.828" height="26.828" rx="4"/>
        <rect class="cls-5" x="2" y="2" width="22.828" height="22.828" rx="2"/>
      </g>
      <g id="Rectangle_159" data-name="Rectangle 159" class="cls-3" transform="translate(68.984 64.089) rotate(-45)">
        <rect class="cls-4" width="26.828" height="26.828" rx="4"/>
        <rect class="cls-5" x="2" y="2" width="22.828" height="22.828" rx="2"/>
      </g>
    </g>
  </g>
</svg>
